<svg width="96" height="96" viewBox="0 0 96 96" fill="none" xmlns="http://www.w3.org/2000/svg">
<path d="M51.1982 87.5679H65.971" stroke="white" stroke-width="2.55705" stroke-miterlimit="10" stroke-linecap="round" stroke-linejoin="round"/>
<path d="M29.1035 87.5679H43.8763" stroke="white" stroke-width="2.55705" stroke-miterlimit="10" stroke-linecap="round" stroke-linejoin="round"/>
<path d="M51.1979 87.5682C51.1979 89.5905 49.5586 91.2292 47.537 91.2292C45.5153 91.2292 43.876 89.5905 43.876 87.5682C43.876 85.5465 45.5153 83.9072 47.537 83.9072C49.5586 83.9072 51.1979 85.5465 51.1979 87.5682Z" stroke="white" stroke-width="2.55705" stroke-miterlimit="10" stroke-linecap="round" stroke-linejoin="round"/>
<path d="M47.5381 69.4854V83.9045" stroke="white" stroke-width="2.55705" stroke-miterlimit="10" stroke-linecap="round" stroke-linejoin="round"/>
<path d="M78.6377 52.1224H16.4358C15.0806 52.1224 13.9727 53.2304 13.9727 54.587V66.5479C13.9727 67.9011 15.0806 69.0111 16.4358 69.0111H78.6386C79.9945 69.0111 81.1031 67.9012 81.1031 66.5479V54.5879C81.1025 53.23 79.9945 52.1221 78.638 52.1221L78.6377 52.1224Z" stroke="white" stroke-width="2.55705" stroke-miterlimit="10" stroke-linecap="round" stroke-linejoin="round"/>
<path d="M19.6838 60.5664C19.6838 61.0732 19.8827 61.5201 20.2325 61.8312C20.5656 62.1275 20.9841 62.2562 21.3731 62.2562C21.762 62.2562 22.1806 62.1275 22.5137 61.8312C22.8635 61.5201 23.0624 61.0732 23.0624 60.5664C23.0624 60.0596 22.8633 59.6127 22.5135 59.3018C22.1803 59.0057 21.7619 58.8771 21.3731 58.8771C20.9843 58.8771 20.5658 59.0057 20.2327 59.3018C19.8829 59.6127 19.6838 60.0596 19.6838 60.5664Z" stroke="#2DFF73" stroke-width="1.81605" stroke-miterlimit="10" stroke-linecap="round" stroke-linejoin="round"/>
<path d="M27.3176 60.5664C27.3176 61.0737 27.5167 61.5209 27.8668 61.8321C28.2001 62.1285 28.619 62.2572 29.0081 62.2572C29.3973 62.2572 29.8161 62.1285 30.1495 61.8321C30.4995 61.5209 30.6987 61.0737 30.6987 60.5664C30.6987 60.0592 30.4994 59.612 30.1493 59.301C29.8159 59.0047 29.3972 58.8762 29.0081 58.8762C28.6191 58.8762 28.2004 59.0047 27.867 59.301C27.5169 59.612 27.3176 60.0592 27.3176 60.5664Z" stroke="#2DFF73" stroke-width="1.81605" stroke-miterlimit="10" stroke-linecap="round" stroke-linejoin="round"/>
<path d="M34.9562 60.5664C34.9562 61.0732 35.1552 61.5201 35.5049 61.8312C35.838 62.1275 36.2566 62.2562 36.6455 62.2562C37.0345 62.2562 37.453 62.1275 37.7861 61.8312C38.1359 61.5201 38.3349 61.0732 38.3349 60.5664C38.3349 60.0596 38.1358 59.6127 37.7859 59.3018C37.4528 59.0057 37.0343 58.8771 36.6455 58.8771C36.2568 58.8771 35.8383 59.0057 35.5052 59.3018C35.1553 59.6127 34.9562 60.0596 34.9562 60.5664Z" stroke="#2DFF73" stroke-width="1.81605" stroke-miterlimit="10" stroke-linecap="round" stroke-linejoin="round"/>
<path d="M69.7324 58.1152H74.6384V63.0212H69.7324V58.1152Z" stroke="#2DFF73" stroke-width="1.81605" stroke-miterlimit="10" stroke-linecap="round" stroke-linejoin="round"/>
<path d="M59.8936 58.1147H64.7995V63.0207H59.8936V58.1147Z" stroke="#2DFF73" stroke-width="1.81605" stroke-miterlimit="10" stroke-linecap="round" stroke-linejoin="round"/>
<path d="M78.6377 29.1768H16.4358C15.0806 29.1768 13.9727 30.2866 13.9727 31.6413V43.6022C13.9727 44.9574 15.0806 46.0654 16.4358 46.0654H78.6386C79.9945 46.0654 81.1031 44.9574 81.1031 43.6022V31.6422C81.1025 30.287 79.9945 29.177 78.638 29.177L78.6377 29.1768Z" stroke="white" stroke-width="2.55705" stroke-miterlimit="10" stroke-linecap="round" stroke-linejoin="round"/>
<path d="M19.6838 37.6226C19.6838 38.1294 19.8827 38.5763 20.2325 38.8874C20.5656 39.1836 20.9841 39.3124 21.3731 39.3124C21.762 39.3124 22.1806 39.1836 22.5137 38.8874C22.8635 38.5763 23.0624 38.1294 23.0624 37.6226C23.0624 37.1157 22.8633 36.6689 22.5135 36.3579C22.1803 36.0619 21.7619 35.9333 21.3731 35.9333C20.9843 35.9333 20.5658 36.0619 20.2327 36.3579C19.8829 36.6689 19.6838 37.1157 19.6838 37.6226Z" stroke="#2DFF73" stroke-width="1.81605" stroke-miterlimit="10" stroke-linecap="round" stroke-linejoin="round"/>
<path d="M27.3176 37.6226C27.3176 38.1298 27.5167 38.577 27.8668 38.8882C28.2001 39.1846 28.619 39.3133 29.0081 39.3133C29.3973 39.3133 29.8161 39.1846 30.1495 38.8882C30.4995 38.577 30.6987 38.1298 30.6987 37.6226C30.6987 37.1153 30.4994 36.6682 30.1493 36.3571C29.8159 36.0609 29.3972 35.9323 29.0081 35.9323C28.6191 35.9323 28.2004 36.0609 27.867 36.3571C27.5169 36.6682 27.3176 37.1153 27.3176 37.6226Z" stroke="#2DFF73" stroke-width="1.81605" stroke-miterlimit="10" stroke-linecap="round" stroke-linejoin="round"/>
<path d="M34.9562 37.6226C34.9562 38.1294 35.1552 38.5763 35.5049 38.8874C35.838 39.1836 36.2566 39.3124 36.6455 39.3124C37.0345 39.3124 37.453 39.1836 37.7861 38.8874C38.1359 38.5763 38.3349 38.1294 38.3349 37.6226C38.3349 37.1157 38.1358 36.6689 37.7859 36.3579C37.4528 36.0619 37.0343 35.9333 36.6455 35.9333C36.2568 35.9333 35.8383 36.0619 35.5052 36.3579C35.1553 36.6689 34.9562 37.1157 34.9562 37.6226Z" stroke="#2DFF73" stroke-width="1.81605" stroke-miterlimit="10" stroke-linecap="round" stroke-linejoin="round"/>
<path d="M69.7324 35.168H74.6384V40.0739H69.7324V35.168Z" stroke="#2DFF73" stroke-width="1.81605" stroke-miterlimit="10" stroke-linecap="round" stroke-linejoin="round"/>
<path d="M59.8936 35.168H64.7995V40.0739H59.8936V35.168Z" stroke="#2DFF73" stroke-width="1.81605" stroke-miterlimit="10" stroke-linecap="round" stroke-linejoin="round"/>
<path d="M78.6377 6.23291H16.4358C15.0806 6.23291 13.9727 7.34089 13.9727 8.69742V20.6584C13.9727 22.0116 15.0806 23.1216 16.4358 23.1216H78.6386C79.9945 23.1216 81.1031 22.0117 81.1031 20.6584V8.69836C81.1025 7.34051 79.9945 6.23319 78.638 6.23319L78.6377 6.23291Z" stroke="white" stroke-width="2.55705" stroke-miterlimit="10" stroke-linecap="round" stroke-linejoin="round"/>
<path d="M19.6838 14.6758C19.6838 15.1826 19.8829 15.6295 20.2327 15.9404C20.5658 16.2365 20.9843 16.3651 21.3731 16.3651C21.7619 16.3651 22.1803 16.2365 22.5135 15.9404C22.8633 15.6295 23.0624 15.1826 23.0624 14.6758C23.0624 14.169 22.8633 13.7221 22.5135 13.4112C22.1803 13.1151 21.7619 12.9865 21.3731 12.9865C20.9843 12.9865 20.5658 13.1151 20.2327 13.4112C19.8829 13.7221 19.6838 14.169 19.6838 14.6758Z" stroke="#2DFF73" stroke-width="1.81605" stroke-miterlimit="10" stroke-linecap="round" stroke-linejoin="round"/>
<path d="M27.3176 14.6758C27.3176 15.1831 27.5169 15.6302 27.867 15.9413C28.2004 16.2375 28.6191 16.3661 29.0081 16.3661C29.3972 16.3661 29.8159 16.2375 30.1493 15.9413C30.4994 15.6302 30.6987 15.1831 30.6987 14.6758C30.6987 14.1685 30.4994 13.7214 30.1493 13.4103C29.8159 13.1141 29.3972 12.9855 29.0081 12.9855C28.6191 12.9855 28.2004 13.1141 27.867 13.4103C27.5169 13.7214 27.3176 14.1685 27.3176 14.6758Z" stroke="#2DFF73" stroke-width="1.81605" stroke-miterlimit="10" stroke-linecap="round" stroke-linejoin="round"/>
<path d="M34.9562 14.6758C34.9562 15.1826 35.1553 15.6295 35.5052 15.9404C35.8383 16.2365 36.2568 16.3651 36.6455 16.3651C37.0343 16.3651 37.4528 16.2365 37.7859 15.9404C38.1358 15.6295 38.3349 15.1826 38.3349 14.6758C38.3349 14.169 38.1358 13.7221 37.7859 13.4112C37.4528 13.1151 37.0343 12.9865 36.6455 12.9865C36.2568 12.9865 35.8383 13.1151 35.5052 13.4112C35.1553 13.7221 34.9562 14.169 34.9562 14.6758Z" stroke="#2DFF73" stroke-width="1.81605" stroke-miterlimit="10" stroke-linecap="round" stroke-linejoin="round"/>
<path d="M69.7324 12.2246H74.6384V17.1306H69.7324V12.2246Z" stroke="#2DFF73" stroke-width="1.81605" stroke-miterlimit="10" stroke-linecap="round" stroke-linejoin="round"/>
<path d="M59.8936 12.2241H64.7995V17.1301H59.8936V12.2241Z" stroke="#2DFF73" stroke-width="1.81605" stroke-miterlimit="10" stroke-linecap="round" stroke-linejoin="round"/>
</svg>