<svg width="96" height="96" viewBox="0 0 96 96" fill="none" xmlns="http://www.w3.org/2000/svg">
<path d="M46.6777 83.716H48.9941V86.0324H46.6777V83.716ZM48.9941 77.8648H46.6777V80.1812H48.9941V77.8648ZM48.9941 9.72021H46.6777V12.0366H48.9941V9.72021ZM46.6777 17.8878H48.9941V15.5714H46.6777V17.8878ZM80.9333 66.1615L79.7139 68.2337L81.7862 69.4531L83.0056 67.3809L80.9333 66.1615ZM70.8152 60.3103L72.8875 61.5297L71.6681 63.6019L69.5958 62.3825L69.9614 61.7728L48.8721 73.9633V74.4506H48.0184L47.8968 74.573L47.6527 74.4514H46.6774V73.9642L25.8312 61.8954L26.0753 62.3826L24.003 63.602L22.7836 61.5297L24.8559 60.3103L25.3431 61.0416L25.344 37.2702L24.003 36.5389L25.2224 34.4666L26.3193 35.0763L46.6774 23.2516V21.3009H48.9938V23.2516L69.4734 35.0763L70.6928 34.4666L71.9122 36.5389L70.4496 37.3927V61.4079L70.8152 60.3103ZM68.0107 36.9045L47.8969 25.3238L27.783 36.9045V60.1884L47.8969 71.8908L68.0107 60.31V36.9045ZM74.7157 65.1865L76.788 66.4058L78.0074 64.3336L75.9351 63.1142L74.7157 65.1865ZM19.0057 33.492L21.0779 34.7113L22.2973 32.6391L20.2251 31.4197L19.0057 33.492ZM14.0074 30.6884L16.0796 31.9078L17.299 29.8355L15.2267 28.6161L14.0074 30.6884ZM12.7881 67.2591L14.0075 69.3314L16.0798 68.1119L14.8604 66.0397L12.7881 67.2591ZM17.9081 64.3331L19.1275 66.4054L21.1998 65.186L19.9804 63.1138L17.9081 64.3331ZM76.7883 33.4915L75.5689 31.4192L73.4966 32.6386L74.716 34.7108L76.7883 33.4915ZM81.7866 30.6879L80.5672 28.6156L78.4949 29.835L79.7143 31.9073L81.7866 30.6879ZM35.7068 40.4395L47.8973 47.51L60.0878 40.4395L47.8973 33.369L35.7068 40.4395ZM34.7315 56.1657L46.8003 63.1147V49.4607L34.7315 42.5117V56.1657ZM49.1167 63.1138L61.0631 56.2874V42.6342L49.1167 49.4607V63.1138Z" fill="white"/>
<path d="M35.7068 40.4396L47.8973 47.5101L60.0877 40.4396L47.8973 33.3691L35.7068 40.4396ZM34.7314 56.1658L46.8002 63.1148V49.4608L34.7314 42.5118V56.1658ZM49.1166 63.1139L61.0631 56.2875V42.6343L49.1166 49.4608V63.1139Z" fill="#2DFF73"/>
<circle cx="47.8705" cy="4.14541" r="2.72344" stroke="#2DFF73" stroke-width="1.75312"/>
<circle cx="85.7895" cy="26.2255" r="2.72344" stroke="#2DFF73" stroke-width="1.75312"/>
<circle cx="9.94961" cy="26.705" r="2.72344" stroke="#2DFF73" stroke-width="1.75312"/>
<circle cx="87.2299" cy="71.3456" r="2.72344" stroke="#2DFF73" stroke-width="1.75312"/>
<circle cx="8.50918" cy="71.3456" r="2.72344" stroke="#2DFF73" stroke-width="1.75312"/>
<circle cx="47.8705" cy="91.5058" r="2.72344" stroke="#2DFF73" stroke-width="1.75312"/>
</svg>