<svg width="96" height="96" viewBox="0 0 96 96" fill="none" xmlns="http://www.w3.org/2000/svg">
<path d="M91.7247 53.7924L77.9851 47.8355L91.7247 41.8794L48.044 22.957L4.36328 41.8794L18.1029 47.8362L4.36328 53.7924L18.1029 59.7492L4.36328 65.7053L48.044 84.6277L91.7247 65.7053L77.9851 59.7492L91.7247 53.7924ZM11.8886 41.8796L48.044 26.2143L84.1994 41.8796L74.2719 46.1979L48.044 57.5545L21.8657 46.2074L11.8886 41.8796ZM11.8886 53.7924L21.8161 49.4741L48.044 60.8212L74.2223 49.4741L84.1497 53.7924L74.2223 58.1106L48.044 69.468L21.8657 58.1106L11.8886 53.7924ZM84.2011 65.7051L48.0458 81.3704L11.8904 65.7051L21.8178 61.3868L48.0458 72.7242L74.2241 61.3771L84.2011 65.7051Z" fill="white"/>
<path d="M91.7247 41.7445L77.9851 35.7877L91.7247 29.8316L48.044 10.9092L4.36328 29.8316L18.1029 35.7884L4.36328 41.7445L18.1029 47.7013L4.36328 53.6574L48.044 72.5798L91.7247 53.6574L77.9851 47.7013L91.7247 41.7445ZM11.8886 29.8318L48.044 14.1664L84.1994 29.8318L74.2719 34.15L48.044 45.5066L21.8657 34.1596L11.8886 29.8318ZM11.8886 41.7445L21.8161 37.4262L48.044 48.7733L74.2223 37.4262L84.1497 41.7445L74.2223 46.0628L48.044 57.4201L21.8657 46.0628L11.8886 41.7445ZM84.2011 53.6572L48.0458 69.3226L11.8904 53.6572L21.8178 49.339L48.0458 60.6763L74.2241 49.3292L84.2011 53.6572Z" fill="white"/>
<path d="M11.8886 29.8318L48.044 14.1664L84.1994 29.8318L74.2719 34.15L48.044 45.5066L21.8657 34.1596L11.8886 29.8318Z" fill="black"/>
<path d="M11.8886 41.7445L21.8161 37.4262L48.044 48.7733L74.2223 37.4262L84.1497 41.7445L74.2223 46.0628L48.044 57.4201L21.8657 46.0628L11.8886 41.7445Z" fill="black"/>
<path d="M11.8886 29.8318L48.044 14.1664L84.1994 29.8318L74.2719 34.15L48.044 45.5066L21.8657 34.1596L11.8886 29.8318Z" fill="#2DFF73"/>
<path d="M11.8886 29.8318L48.044 14.1664L84.1994 29.8318L74.2719 34.15L48.044 45.5066L21.8657 34.1596L11.8886 29.8318Z" fill="black"/>
<path fill-rule="evenodd" clip-rule="evenodd" d="M77.9851 35.7877L91.7247 29.8316L48.044 10.9092L4.36328 29.8316L18.1029 35.7884L21.8657 37.4477L48.044 48.7733L74.1727 37.4477L74.2223 37.4262L77.9851 35.7877ZM48.044 14.1664L11.8886 29.8318L21.8657 34.1596L48.044 45.5066L74.2719 34.15L84.1994 29.8318L48.044 14.1664Z" fill="#2DFF73"/>
<path d="M44.6373 36.0936C44.1741 36.3456 43.6571 36.5341 43.0863 36.6591C42.5156 36.7766 41.9303 36.824 41.3305 36.8014C40.7373 36.7752 40.1623 36.6759 39.6055 36.5037L40.3164 35.4818C40.8937 35.6206 41.4569 35.6706 42.006 35.6317C42.5618 35.5892 43.0381 35.4599 43.4351 35.2439C43.6469 35.1287 43.7967 35.01 43.8846 34.8879C43.9725 34.7658 44.0048 34.6479 43.9816 34.5343C43.9519 34.4168 43.86 34.3109 43.7057 34.2166C43.5386 34.1144 43.3443 34.0568 43.1228 34.0437C42.8948 34.0266 42.633 34.0577 42.3373 34.1369L40.4256 34.6425C39.6504 34.849 38.9436 34.9292 38.3053 34.883C37.6605 34.8328 37.0971 34.6604 36.6151 34.3657C36.1909 34.1064 35.924 33.8209 35.8144 33.5092C35.7114 33.1939 35.7618 32.8769 35.9656 32.558C36.1761 32.2355 36.5327 31.9375 37.0355 31.6638C37.4788 31.4226 37.9629 31.2445 38.4879 31.1297C39.0128 31.0148 39.5459 30.9661 40.0871 30.9835C40.6349 30.9973 41.1679 31.0823 41.686 31.2385L40.985 32.255C40.5119 32.1263 40.0432 32.0805 39.5789 32.1178C39.1082 32.1512 38.6942 32.2651 38.3369 32.4595C38.1318 32.5711 37.982 32.6898 37.8875 32.8155C37.793 32.9412 37.7637 33.0648 37.7998 33.1863C37.8295 33.3038 37.9215 33.4097 38.0757 33.504C38.2428 33.6062 38.4468 33.6659 38.6879 33.6833C38.9224 33.6967 39.1876 33.6639 39.4832 33.5847L41.3459 33.0834C42.1277 32.8733 42.8313 32.7912 43.4566 32.8371C44.0885 32.8794 44.6455 33.0479 45.1275 33.3426C45.5452 33.598 45.8055 33.8871 45.9083 34.2099C46.0047 34.5288 45.9476 34.8532 45.737 35.1832C45.5265 35.5057 45.16 35.8091 44.6373 36.0936Z" fill="#2DFF73"/>
<path d="M48.2578 33.9896L41.076 29.5987L43.4876 28.2862C44.2882 27.8506 45.1372 27.5668 46.0345 27.4349C46.9319 27.3031 47.8126 27.314 48.6766 27.4676C49.5406 27.6212 50.3197 27.9102 51.0138 28.3345C51.7079 28.7589 52.166 29.2263 52.388 29.7367C52.6037 30.2432 52.5713 30.751 52.2909 31.26C52.0105 31.7691 51.4701 32.2414 50.6695 32.6771L48.2578 33.9896ZM48.4947 32.3568L49.4078 31.8599C49.8908 31.597 50.2144 31.3132 50.3787 31.0084C50.5366 30.6997 50.5411 30.389 50.3924 30.0763C50.2438 29.7561 49.9382 29.4546 49.4755 29.1717C49.0063 28.8849 48.5022 28.6913 47.9631 28.5911C47.4306 28.4873 46.8958 28.4738 46.3588 28.5507C45.8218 28.6276 45.3117 28.7975 44.8288 29.0603L43.9157 29.5572L48.4947 32.3568Z" fill="#2DFF73"/>
<path d="M55.5946 29.9968L48.4128 25.606L49.9511 24.7688L53.5468 26.9672L52.9755 27.111L52.4818 23.3916L54.4072 22.3438L54.9113 26.0352L53.9402 25.3383L61.6486 26.7022L59.8523 27.6798L55.0094 26.8062L55.1664 27.9574L57.1329 29.1597L55.5946 29.9968Z" fill="#2DFF73"/>
</svg>