<svg width="96" height="96" viewBox="0 0 96 96" fill="none" xmlns="http://www.w3.org/2000/svg">
<g clip-path="url(#clip0_1109_2394)">
<path fill-rule="evenodd" clip-rule="evenodd" d="M30.1171 50.3731C30.824 49.7837 31.531 49.3127 32.3564 48.8409C36.5989 46.3657 42.1377 45.0693 48.03 45.0693C55.3363 45.0693 61.8181 47.0726 65.8247 50.3722L67.475 51.6703C68.0644 52.3772 68.6538 53.0842 69.1248 53.7911C69.9501 55.205 70.4211 56.6196 70.4211 58.2695C70.4211 58.2695 70.3036 64.8687 70.3036 64.9872C70.3036 67.4624 69.4782 69.7006 67.8284 71.8223C67.6231 72.0863 67.0071 72.7029 66.6504 73.0003C66.5942 73.0471 66.5373 73.0947 66.4796 73.1429C65.8115 73.7013 65.0432 74.3435 64.1752 74.886C59.9327 77.3612 54.5113 78.775 48.9734 78.8926L46.8518 78.7751C41.7848 78.6575 36.7169 77.4787 32.8278 75.2395C31.649 74.5325 30.5885 73.8255 29.764 73.1186C28.9058 72.549 28.8657 72.4932 28.6971 72.259C28.6267 72.1613 28.5339 72.0325 28.35 71.8223C26.7002 69.9365 25.7574 67.8157 25.7574 65.5764L25.5215 58.6236C25.5215 56.1484 26.5819 53.7917 28.4677 51.7885L30.1171 50.3731Z" fill="black"/>
<path fill-rule="evenodd" clip-rule="evenodd" d="M30.1171 50.3731C30.824 49.7837 31.531 49.3127 32.3564 48.8409C36.5989 46.3657 42.1377 45.0693 48.03 45.0693C55.3363 45.0693 61.8181 47.0726 65.8247 50.3722L67.475 51.6703C68.0644 52.3772 68.6538 53.0842 69.1248 53.7911C69.9501 55.205 70.4211 56.6196 70.4211 58.2695C70.4211 58.2695 70.3036 64.8687 70.3036 64.9872C70.3036 67.4624 69.4782 69.7006 67.8284 71.8223C67.6231 72.0863 67.0071 72.7029 66.6504 73.0003C66.5942 73.0471 66.5373 73.0947 66.4796 73.1429C65.8115 73.7013 65.0432 74.3435 64.1752 74.886C59.9327 77.3612 54.5113 78.775 48.9734 78.8926L46.8518 78.7751C41.7848 78.6575 36.7169 77.4787 32.8278 75.2395C31.649 74.5325 30.5885 73.8255 29.764 73.1186C29.052 72.5082 28.9746 72.5362 28.35 71.8223C26.7002 69.9365 25.7574 67.8157 25.7574 65.5764L25.5215 58.6236C25.5215 56.1484 26.5819 53.7917 28.4677 51.7885L30.1171 50.3731ZM66.0606 52.495C67.8287 54.3808 68.8891 56.3839 68.8891 58.6232C68.8891 65.2225 60.0507 70.5255 48.8555 70.643V67.1074C56.6327 66.8723 62.761 63.1008 62.761 58.5048C62.761 57.3269 62.4075 56.1481 61.5822 55.0876L66.0606 52.495ZM64.4105 51.081C60.639 48.2525 54.6292 46.3676 48.0298 46.3676C41.3121 46.3676 35.3023 48.2533 31.5317 51.081L35.8918 53.6737C38.602 51.4344 42.963 49.9022 48.03 49.9022C52.9796 49.9022 57.458 51.3161 60.0506 53.5552L64.4105 51.081ZM46.8518 67.3433V70.8789C35.8916 70.5256 27.1714 65.2225 27.1714 58.6232C27.1714 56.5022 28.1143 54.3806 29.8817 52.6133L34.3601 55.3235C33.6523 56.3839 33.1813 57.5619 33.1813 58.7407C33.1813 63.2182 39.1921 66.9898 46.8518 67.3433Z" fill="#2DFF73"/>
<path d="M46.9259 11.0389C46.9259 10.4495 47.397 9.97851 47.9864 9.97851C48.5758 9.97851 49.0468 10.4495 49.0468 11.0389C49.0468 11.6283 48.5758 12.0994 47.9864 12.0994C47.3978 12.0994 46.9259 11.6283 46.9259 11.0389ZM47.9864 16.3418C48.5758 16.3418 49.0468 15.8708 49.0468 15.2814C49.0468 14.692 48.5758 14.221 47.9864 14.221C47.397 14.221 46.9259 14.692 46.9259 15.2814C46.9259 15.8708 47.3978 16.3418 47.9864 16.3418ZM47.9864 24.7094C48.5758 24.7094 49.0468 24.2384 49.0468 23.649C49.0468 23.0596 48.5758 22.5885 47.9864 22.5885C47.397 22.5885 46.9259 23.0596 46.9259 23.649C46.9259 24.2375 47.3978 24.7094 47.9864 24.7094ZM47.9864 28.9519C48.5758 28.9519 49.0468 28.4809 49.0468 27.8915C49.0468 27.302 48.5758 26.831 47.9864 26.831C47.397 26.831 46.9259 27.302 46.9259 27.8915C46.9259 28.48 47.3978 28.9519 47.9864 28.9519ZM47.9864 33.0761C48.5758 33.0761 49.0468 32.6051 49.0468 32.0157C49.0468 31.4263 48.5758 30.9552 47.9864 30.9552C47.397 30.9552 46.9259 31.4263 46.9259 32.0157C46.9259 32.6051 47.3978 33.0761 47.9864 33.0761ZM47.9864 20.4669C48.5758 20.4669 49.0468 19.9959 49.0468 19.4065C49.0468 18.8171 48.5758 18.346 47.9864 18.346C47.397 18.346 46.9259 18.8171 46.9259 19.4065C46.9259 19.9951 47.3978 20.4669 47.9864 20.4669ZM21.4708 65.2487C20.9998 65.4846 20.7639 66.1916 21.1173 66.6626C21.3533 67.1337 22.0602 67.3696 22.5313 67.0161C23.0023 66.7802 23.2382 66.0732 22.8847 65.6022C22.5321 65.1312 21.9427 65.0136 21.4708 65.2487ZM78.0373 69.8456C78.5084 70.0815 79.2161 69.9631 79.4512 69.4921C79.6872 69.0211 79.5688 68.3133 79.0978 68.0782C78.6267 67.8423 77.919 67.9607 77.6839 68.4317C77.3304 68.9027 77.5663 69.4913 78.0373 69.8456ZM74.3843 67.7239C74.8553 67.9599 75.5631 67.8415 75.7982 67.3704C76.0341 66.8994 75.9157 66.1916 75.4447 65.9565C74.9737 65.7206 74.2659 65.839 74.0308 66.31C73.6773 66.781 73.9133 67.488 74.3843 67.7239ZM70.7312 65.6031C71.2023 65.839 71.91 65.7207 72.1451 65.2496C72.3811 64.7786 72.2627 64.0708 71.7917 63.8357C71.3206 63.5998 70.6129 63.7182 70.3778 64.1892C70.0243 64.6602 70.2594 65.3672 70.7312 65.6031ZM86.8761 29.4241V73.2632C86.8761 73.6166 86.6401 73.9701 86.405 74.206L48.3405 96.0077H48.2229H48.1054C47.9878 96.0077 47.8695 96.1253 47.7519 96.1253C47.6343 96.1253 47.516 96.1253 47.3984 96.0077H47.2809H47.1633L9.45232 74.206C9.09884 73.9701 8.98129 73.6166 8.98129 73.2632L8.98047 29.4241C8.98047 29.0706 9.21639 28.7172 9.4515 28.4812L47.3982 6.56171C47.7517 6.32578 48.1051 6.32578 48.4586 6.56171L86.4053 28.4812C86.6413 28.7172 86.8772 29.0706 86.8772 29.4241H86.8761ZM11.9254 29.5417L30.0734 40.1475C30.7804 39.5581 31.4873 39.087 32.3127 38.6152C36.5552 36.14 42.094 34.8437 47.9864 34.8437C55.2927 34.8437 61.7745 36.847 65.781 40.1466L83.694 29.6582L47.8685 8.80078L11.9254 29.5417ZM68.8455 48.3976C68.8455 46.1583 67.785 44.1551 66.0169 42.2693L61.5386 44.862C62.3639 45.9224 62.7174 47.1013 62.7174 48.2791C62.7174 52.8751 56.5891 56.6467 48.8118 56.8817V60.4173C60.0071 60.2998 68.8455 54.9968 68.8455 48.3976ZM46.8081 60.6532V57.1176C39.1485 56.7641 33.1377 52.9926 33.1377 48.515C33.1377 47.3362 33.6087 46.1583 34.3165 45.0979L29.8381 42.3876C28.0707 44.155 27.1278 46.2766 27.1278 48.3976C27.1278 54.9968 35.8479 60.2999 46.8081 60.6532ZM64.3669 40.8554C60.5954 38.0268 54.5856 36.1419 47.9862 36.1419C41.2685 36.1419 35.2587 38.0277 31.488 40.8554L35.8481 43.448C38.5584 41.2087 42.9194 39.6765 47.9864 39.6765C52.9359 39.6765 57.4143 41.0904 60.007 43.3295L64.3669 40.8554ZM46.8081 93.2972V68.5494C41.7411 68.4319 36.6733 67.253 32.7841 65.0138C31.6053 64.3068 30.5448 63.5999 29.7203 62.893C29.1788 62.3964 29.085 62.3105 28.3064 61.5966C26.6566 59.7109 25.7138 57.59 25.7138 55.3507L25.4778 48.398C25.4778 45.9228 26.5383 43.566 28.424 41.5628L10.982 31.3104V71.3783C11.3355 71.3783 11.8074 71.4959 11.9249 71.8493C12.1609 72.2028 12.0425 72.6747 11.8074 73.0282L46.8081 93.2972ZM84.7548 31.3098L67.4313 41.4446C68.0207 42.1516 68.6101 42.8585 69.0811 43.5654C69.9065 44.9794 70.3775 46.394 70.3775 48.0438C70.3775 48.0438 70.2599 54.643 70.2599 54.7615C70.2599 57.2367 69.4346 59.475 67.7847 61.5966C67.4132 61.9681 67.1015 62.2799 66.6068 62.7746C65.8998 63.364 65.0745 64.071 64.1315 64.6604C59.8891 67.1356 54.4677 68.5493 48.9297 68.667V93.4148L84.7552 72.674L84.7548 31.3098ZM81.6904 71.967C82.1614 72.2029 82.8692 72.0845 83.1043 71.6135C83.3402 71.1425 83.2218 70.4347 82.7508 70.1996C82.2798 69.9636 81.572 70.082 81.3369 70.5531C80.9834 71.0241 81.1018 71.6135 81.6904 71.967ZM14.1641 69.4918C13.6931 69.7277 13.4571 70.4346 13.8106 70.9057C14.0466 71.3767 14.7535 71.6126 15.2245 71.2591C15.6956 71.0232 15.9315 70.3163 15.578 69.8452C15.3429 69.3742 14.6351 69.1383 14.1641 69.4918ZM17.8171 67.3709C17.3461 67.6069 17.1102 68.3138 17.4637 68.7848C17.6996 69.2559 18.4066 69.4918 18.8776 69.1383C19.3486 68.9024 19.5845 68.1954 19.2311 67.7244C18.9959 67.2534 18.289 67.0175 17.8171 67.3709Z" fill="white"/>
<path fill-rule="evenodd" clip-rule="evenodd" d="M30.1171 40.2242C30.824 39.6348 31.531 39.1638 32.3564 38.6919C36.5989 36.2167 42.1377 34.9204 48.03 34.9204C55.3363 34.9204 61.8181 36.9237 65.8247 40.2233L67.475 41.5214C68.0644 42.2283 68.6538 42.9353 69.1248 43.6422C69.9501 45.0561 70.4211 46.4707 70.4211 48.1206C70.4211 48.1206 70.3036 54.7198 70.3036 54.8383C70.3036 57.3135 69.4782 59.5517 67.8284 61.6734C67.6231 61.9374 67.0071 62.554 66.6504 62.8514C66.5942 62.8982 66.5373 62.9458 66.4796 62.994C65.8115 63.5524 65.0432 64.1946 64.1752 64.7371C59.9327 67.2123 54.5113 68.6261 48.9734 68.7437L46.8518 68.6261C41.7848 68.5086 36.7169 67.3298 32.8278 65.0905C31.649 64.3836 30.5885 63.6766 29.764 62.9697C28.9058 62.4001 28.8657 62.3443 28.6971 62.1101C28.6267 62.0124 28.5339 61.8835 28.35 61.6733C26.7002 59.7876 25.7574 57.6668 25.7574 55.4275L25.5215 48.4747C25.5215 45.9995 26.5819 43.6428 28.4677 41.6396L30.1171 40.2242Z" fill="black"/>
<path d="M46.9699 11.1156C46.9699 10.5262 47.4409 10.0552 48.0303 10.0552C48.6197 10.0552 49.0907 10.5262 49.0907 11.1156C49.0907 11.705 48.6197 12.176 48.0303 12.176C47.4417 12.176 46.9699 11.705 46.9699 11.1156ZM48.0303 16.4185C48.6197 16.4185 49.0907 15.9475 49.0907 15.3581C49.0907 14.7687 48.6197 14.2976 48.0303 14.2976C47.4409 14.2976 46.9699 14.7687 46.9699 15.3581C46.9699 15.9475 47.4417 16.4185 48.0303 16.4185ZM48.0303 24.7861C48.6197 24.7861 49.0907 24.315 49.0907 23.7256C49.0907 23.1362 48.6197 22.6652 48.0303 22.6652C47.4409 22.6652 46.9699 23.1362 46.9699 23.7256C46.9699 24.3142 47.4417 24.7861 48.0303 24.7861ZM48.0303 29.0285C48.6197 29.0285 49.0907 28.5575 49.0907 27.9681C49.0907 27.3787 48.6197 26.9077 48.0303 26.9077C47.4409 26.9077 46.9699 27.3787 46.9699 27.9681C46.9699 28.5567 47.4417 29.0285 48.0303 29.0285ZM48.0303 33.1528C48.6197 33.1528 49.0907 32.6817 49.0907 32.0923C49.0907 31.5029 48.6197 31.0319 48.0303 31.0319C47.4409 31.0319 46.9699 31.5029 46.9699 32.0923C46.9699 32.6817 47.4417 33.1528 48.0303 33.1528ZM48.0303 20.5436C48.6197 20.5436 49.0907 20.0725 49.0907 19.4831C49.0907 18.8937 48.6197 18.4227 48.0303 18.4227C47.4409 18.4227 46.9699 18.8937 46.9699 19.4831C46.9699 20.0717 47.4417 20.5436 48.0303 20.5436ZM21.5148 65.3254C21.0437 65.5613 20.8078 66.2683 21.1613 66.7393C21.3972 67.2103 22.1042 67.4462 22.5752 67.0928C23.0462 66.8568 23.2822 66.1499 22.9287 65.6789C22.576 65.2078 21.9866 65.0903 21.5148 65.3254ZM78.0813 69.9222C78.5523 70.1582 79.2601 70.0398 79.4952 69.5688C79.7311 69.0977 79.6127 68.39 79.1417 68.1549C78.6707 67.9189 77.9629 68.0373 77.7278 68.5083C77.3743 68.9794 77.6102 69.568 78.0813 69.9222ZM74.4282 67.8006C74.8993 68.0365 75.607 67.9181 75.8421 67.4471C76.0781 66.9761 75.9597 66.2683 75.4887 66.0332C75.0176 65.7973 74.3099 65.9156 74.0748 66.3867C73.7213 66.8577 73.9572 67.5647 74.4282 67.8006ZM70.7752 65.6798C71.2462 65.9157 71.954 65.7973 72.1891 65.3263C72.425 64.8553 72.3066 64.1475 71.8356 63.9124C71.3646 63.6764 70.6568 63.7948 70.4217 64.2659C70.0682 64.7369 70.3033 65.4438 70.7752 65.6798ZM86.92 29.5008V73.3398C86.92 73.6933 86.6841 74.0468 86.449 74.2827L48.3844 96.0844H48.2669H48.1493C48.0318 96.0844 47.9134 96.2019 47.7958 96.2019C47.6783 96.2019 47.5599 96.2019 47.4424 96.0844H47.3248H47.2073L9.49627 74.2827C9.14279 74.0468 9.02524 73.6933 9.02524 73.3398L9.02441 29.5008C9.02441 29.1473 9.26034 28.7938 9.49544 28.5579L47.4421 6.63837C47.7956 6.40244 48.1491 6.40244 48.5026 6.63837L86.4493 28.5579C86.6852 28.7938 86.9211 29.1473 86.9211 29.5008H86.92ZM11.9694 29.6183L30.1174 40.2241C30.8243 39.6347 31.5313 39.1637 32.3567 38.6919C36.5992 36.2167 42.138 34.9203 48.0303 34.9203C55.3366 34.9203 61.8184 36.9236 65.825 40.2232L83.7379 29.7349L47.9125 8.87744L11.9694 29.6183ZM68.8894 48.4742C68.8894 46.2349 67.829 44.2318 66.0609 42.346L61.5825 44.9386C62.4078 45.9991 62.7613 47.1779 62.7613 48.3558C62.7613 52.9518 56.633 56.7233 48.8558 56.9584V60.494C60.051 60.3764 68.8894 55.0735 68.8894 48.4742ZM46.8521 60.7299V57.1943C39.1924 56.8408 33.1816 53.0692 33.1816 48.5917C33.1816 47.4129 33.6526 46.2349 34.3604 45.1745L29.882 42.4643C28.1147 44.2316 27.1718 46.3532 27.1718 48.4742C27.1718 55.0735 35.8919 60.3766 46.8521 60.7299ZM64.4108 40.932C60.6393 38.1035 54.6295 36.2186 48.0301 36.2186C41.3124 36.2186 35.3026 38.1043 31.532 40.932L35.8921 43.5247C38.6024 41.2854 42.9633 39.7532 48.0303 39.7532C52.9799 39.7532 57.4583 41.1671 60.0509 43.4062L64.4108 40.932ZM46.8521 93.3739V68.6261C41.7851 68.5085 36.7172 67.3297 32.8281 65.0904C31.6493 64.3835 30.5888 63.6765 29.7643 62.9696C29.1713 62.426 28.9978 62.2669 28.3503 61.6733C26.7005 59.7875 25.7577 57.6667 25.7577 55.4274L25.5218 48.4746C25.5218 45.9994 26.5822 43.6427 28.468 41.6395L11.026 31.387V71.455C11.3795 71.455 11.8513 71.5725 11.9689 71.926C12.2048 72.2795 12.0864 72.7513 11.8513 73.1048L46.8521 93.3739ZM84.7988 31.3864L67.4753 41.5213C68.0647 42.2282 68.6541 42.9352 69.1251 43.6421C69.9504 45.056 70.4214 46.4706 70.4214 48.1205C70.4214 48.1205 70.3039 54.7197 70.3039 54.8382C70.3039 57.3134 69.4786 59.5516 67.8287 61.6733C67.4933 62.0086 67.0787 62.4233 66.6507 62.8513C65.9437 63.4407 65.1184 64.1476 64.1755 64.737C59.933 67.2122 54.5116 68.626 48.9737 68.7436V93.4915L84.7991 72.7506L84.7988 31.3864ZM81.7343 72.0436C82.2054 72.2795 82.9131 72.1612 83.1482 71.6901C83.3841 71.2191 83.2658 70.5113 82.7947 70.2762C82.3237 70.0403 81.6159 70.1587 81.3808 70.6297C81.0274 71.1007 81.1457 71.6901 81.7343 72.0436ZM14.208 69.5684C13.737 69.8043 13.5011 70.5113 13.8546 70.9823C14.0905 71.4534 14.7975 71.6893 15.2685 71.3358C15.7395 71.0999 15.9754 70.3929 15.622 69.9219C15.3869 69.4509 14.6791 69.2149 14.208 69.5684ZM17.8611 67.4476C17.3901 67.6835 17.1541 68.3905 17.5076 68.8615C17.7435 69.3325 18.4505 69.5685 18.9215 69.215C19.3926 68.979 19.6285 68.2721 19.275 67.8011C19.0399 67.33 18.3329 67.0941 17.8611 67.4476Z" fill="white"/>
<path fill-rule="evenodd" clip-rule="evenodd" d="M30.1171 4.94148C30.824 4.35208 31.531 3.88105 32.3564 3.40922C36.5989 0.93401 42.1377 -0.362305 48.03 -0.362305C55.3363 -0.362305 61.8181 1.64099 65.8247 4.9406L67.475 6.23864C68.0644 6.94559 68.6538 7.65255 69.1248 8.35946C69.9501 9.77337 70.4211 11.188 70.4211 12.8379C70.4211 12.8379 70.3036 19.4371 70.3036 19.5555C70.3036 22.0308 69.4782 24.269 67.8284 26.3907C67.6231 26.6547 67.0071 27.2713 66.6504 27.5687C66.5942 27.6155 66.5373 27.6631 66.4796 27.7113C65.8115 28.2697 65.0432 28.9118 64.1752 29.4544C59.9327 31.9296 54.5113 33.3433 48.9734 33.461L46.8518 33.3434C41.7848 33.2259 36.7169 32.0471 32.8278 29.8078C31.649 29.1009 30.5885 28.3939 29.764 27.687C28.9058 27.1173 28.8657 27.0616 28.6971 26.8274C28.6267 26.7296 28.5339 26.6008 28.35 26.3906C26.7002 24.5049 25.7574 22.384 25.7574 20.1447L25.5215 13.192C25.5215 10.7168 26.5819 8.36005 28.4677 6.35686L30.1171 4.94148Z" fill="black"/>
<path fill-rule="evenodd" clip-rule="evenodd" d="M30.5035 5.17469C31.1963 4.59963 31.8891 4.14006 32.6979 3.67972C36.8554 1.26476 42.2832 0 48.0575 0C55.2174 0 61.5693 1.95453 65.4956 5.17383L67.1129 6.44027C67.6905 7.13002 68.268 7.81977 68.7296 8.50947C69.5384 9.88897 70 11.2692 70 12.8789C70 12.8789 69.8848 19.3174 69.8848 19.433C69.8848 21.848 69.076 24.0318 67.4592 26.1018C67.258 26.3594 66.6543 26.961 66.3048 27.2511C66.2498 27.2968 66.194 27.3432 66.1375 27.3902C65.4828 27.935 64.7298 28.5616 63.8792 29.0909C59.7217 31.5059 54.409 32.8852 48.982 33L46.9029 32.8853C41.9374 32.7706 36.9711 31.6205 33.1599 29.4358C32.0047 28.746 30.9654 28.0563 30.1575 27.3666C29.4598 26.771 29.3839 26.7983 28.7719 26.1017C27.1551 24.2619 26.2312 22.1927 26.2312 20.0079L26 13.2244C26 10.8094 27.0392 8.51005 28.8871 6.55562L30.5035 5.17469ZM65.7268 7.24491C67.4595 9.08477 68.4987 11.0392 68.4987 13.224C68.4987 19.6626 59.8374 24.8365 48.8665 24.9512V21.5016C56.4879 21.2723 62.4934 17.5926 62.4934 13.1084C62.4934 11.9592 62.147 10.8091 61.3382 9.77444L65.7268 7.24491ZM64.1098 5.86538C60.4139 3.10569 54.5245 1.26665 48.0573 1.26665C41.4742 1.26665 35.5849 3.10649 31.8897 5.86538L36.1625 8.39491C38.8185 6.21011 43.0921 4.71518 48.0575 4.71518C52.9079 4.71518 57.2966 6.09468 59.8373 8.27931L64.1098 5.86538ZM46.9029 21.7318V25.1813C36.1623 24.8366 27.6169 19.6626 27.6169 13.224C27.6169 11.1546 28.5409 9.08465 30.2729 7.36031L34.6615 10.0046C33.9679 11.0392 33.5063 12.1885 33.5063 13.3386C33.5063 17.7071 39.3967 21.3869 46.9029 21.7318Z" fill="#2DFF73"/>
</g>
<defs>
<clipPath id="clip0_1109_2394">
<rect width="96" height="96" fill="white"/>
</clipPath>
</defs>
</svg>