<svg width="96" height="96" viewBox="0 0 96 96" fill="none" xmlns="http://www.w3.org/2000/svg">
<path d="M57.9465 37.036C58.3942 37.7079 58.1708 38.4922 57.4989 38.8282C56.7145 39.1641 55.8192 38.8282 55.259 38.0438C54.9231 37.4836 54.9231 36.9235 55.3708 36.5875L54.0262 34.5719C53.3543 34.5719 52.6824 34.3477 52.3465 33.7875C51.8988 33.1156 52.1223 32.3312 52.7941 31.9953C53.5785 31.6593 54.4739 32.107 55.034 32.7797C55.3699 33.3398 55.3699 33.9 54.9223 34.2359L56.266 36.2516C56.9387 36.2516 57.6106 36.5875 57.9465 37.036ZM43.3861 43.4197C43.8338 44.0916 44.8424 44.4275 45.6259 44.0916C46.2978 43.7556 46.522 42.9712 46.0736 42.2994C45.7376 41.7392 44.9533 41.515 44.3939 41.515L36.2179 30.3148L37.5617 24.7147C37.7859 24.7147 38.0094 24.7147 38.2336 24.603C38.5696 24.4912 38.7938 24.267 38.9055 23.9311C39.0172 23.2592 38.4578 22.4748 37.6734 22.2514C37.2258 22.1396 36.7773 22.1396 36.4414 22.2514C36.1054 22.3631 35.8812 22.5873 35.7695 23.0358C35.6578 23.5959 35.9937 24.1561 36.5539 24.492L35.0984 30.4273L43.4985 41.9635C43.0501 42.3002 43.0501 42.8596 43.386 43.4198L43.3861 43.4197ZM64.4425 39.836C63.7706 40.172 63.5463 40.9564 63.9948 41.6282C64.4424 42.3001 65.451 42.6361 66.2346 42.3001C66.7948 42.0759 67.019 41.5157 66.9065 40.9563L69.5948 39.836L66.6829 35.9155C67.0189 35.5796 67.1306 34.9077 66.6829 34.4593C66.2352 33.7874 65.2266 33.4514 64.4431 33.7874C63.6587 34.1233 63.547 34.9077 63.9954 35.5796C64.3313 36.1398 65.1157 36.364 65.6751 36.364L67.9149 39.5L66.2345 40.1719C65.6743 39.836 65.0024 39.6118 64.4422 39.836L64.4425 39.836ZM21.3217 54.6199C11.6895 41.5157 15.3856 26.1714 29.4976 20.5713C43.6097 14.8594 62.7622 20.9072 72.3944 34.1239C82.0266 47.2281 78.3305 62.5724 64.2184 68.1725C50.1064 73.7726 30.8419 67.7241 21.3217 54.6199ZM26.25 58.6519L28.9382 47.676L23.8983 45.9962L22.1061 53.5004C22.5538 53.8363 22.8905 54.2848 22.8905 54.8442C23.8984 56.1879 25.018 57.42 26.25 58.652V58.6519ZM21.2101 52.4916L23.0023 44.8759L30.0586 47.1157L27.1468 59.4364C29.275 61.3403 31.7391 63.0208 34.3149 64.4762H34.5391L36.6674 55.6285L48.3152 50.9244C48.0909 50.3642 48.4269 49.8041 48.9871 49.5806C49.659 49.2447 50.6668 49.5806 51.2269 50.2525C51.6746 50.9244 51.5628 51.7088 50.7792 52.0447C50.2191 52.269 49.4355 52.1565 48.987 51.7088L37.7868 56.1885L35.7712 64.7004C35.9954 64.9246 36.2189 65.1481 36.3314 65.3723C37.0033 65.7082 37.6752 66.0442 38.4596 66.2684L39.8034 60.6683C39.2432 60.3324 38.9073 59.7722 39.019 59.2121C39.1307 58.8761 39.3549 58.6519 39.6909 58.4277C40.0268 58.2034 40.4753 58.3159 40.9229 58.4277C41.8191 58.6519 42.3792 59.4355 42.155 60.2199C42.0433 60.5558 41.8191 60.78 41.4831 60.8918C41.2589 61.0035 41.0354 61.0035 40.8112 61.0035L39.4674 66.7154C40.6995 67.1631 42.0433 67.6115 43.2753 67.9474L46.4114 54.619L52.2357 56.5229L50.556 63.4669C51.1161 63.8028 51.4521 64.363 51.3403 64.9231C51.2286 65.2591 51.0044 65.4833 50.6685 65.595C50.3325 65.7067 49.8841 65.7067 49.4364 65.595C48.5403 65.3708 47.9801 64.5872 48.2043 63.8028C48.316 63.4669 48.5403 63.2426 48.8762 63.1309C49.1004 63.0192 49.3239 63.0192 49.5481 63.0192L51.0044 56.8589L47.1965 55.6268L44.2825 68.1725C46.9707 68.8443 49.7708 69.1803 52.4584 69.1803L55.0342 58.5403C54.4741 58.2044 54.1381 57.6442 54.2499 57.084C54.3616 56.7481 54.5858 56.5239 54.9217 56.2996C55.2577 56.1879 55.7061 56.1879 56.1538 56.2996C57.0499 56.5239 57.6101 57.3075 57.3859 57.9794C57.2741 58.3153 57.0499 58.5395 56.714 58.6512C56.4897 58.763 56.2663 58.763 56.0421 58.763L53.578 68.9553C55.3703 68.8436 57.1625 68.6194 58.8421 68.2834L56.8265 65.5952V65.371L60.9704 48.1231L70.4909 44.3152C70.3792 43.755 70.4909 43.1949 71.1628 42.9714C71.8347 42.6355 72.8425 42.9714 73.4027 43.6433C73.8503 44.3152 73.7386 45.0996 72.955 45.4355C72.3948 45.6598 71.6112 45.5473 71.1628 45.0996L61.979 49.0201L57.947 65.7085L59.8509 68.2844C61.083 67.9484 62.3149 67.6125 63.547 67.1641C65.0032 66.6039 66.2352 65.932 67.4674 65.1484L68.9237 59.1007C68.3635 58.7648 68.0276 58.2046 68.1393 57.6444C68.251 57.3085 68.4752 57.0843 68.8112 56.8601C69.1471 56.7483 69.5956 56.7483 70.0432 56.8601C70.9394 57.0843 71.4995 57.8679 71.2753 58.6523C71.1636 58.9882 70.9394 59.2124 70.6034 59.3242C70.3792 59.4359 70.1557 59.4359 69.9315 59.4359L68.8112 64.2516C73.6269 60.6671 76.2035 55.4038 76.4269 49.6911L66.0111 53.835L64.4432 60.2195C65.0033 60.5554 65.3393 61.1156 65.2275 61.6758C65.1158 62.0117 64.8916 62.2359 64.5556 62.4601C64.2197 62.5719 63.7713 62.5719 63.3236 62.4601C62.4275 62.2359 61.8673 61.4523 62.0915 60.6679C62.2032 60.332 62.4275 60.1078 62.7634 59.996C62.9876 59.8843 63.2111 59.8843 63.4353 59.8843L65.0033 53.1638L76.4277 48.5715C76.316 43.9793 74.748 39.051 71.2752 34.4595C69.2596 31.7712 66.7955 29.307 64.1071 27.2914L60.7468 41.5158C61.307 41.8518 61.6429 42.4119 61.5312 42.9721C61.4195 43.308 61.1953 43.5322 60.8593 43.7565C60.5234 43.8682 60.0749 43.8682 59.6273 43.7565C58.7311 43.5322 58.171 42.7486 58.3952 41.9643C58.5069 41.6283 58.7311 41.4041 59.0671 41.2924C59.2913 41.1806 59.5148 41.1806 59.739 41.1806L63.2108 26.6202C62.203 25.8358 61.0826 25.1639 59.9632 24.492L59.6272 25.8357L51.7865 28.9718C51.8982 29.532 51.7865 30.0921 51.1146 30.3156C50.4427 30.6515 49.4349 30.3156 48.8748 29.6437C48.4271 28.9718 48.5388 28.1874 49.3224 27.8515C49.8826 27.6272 50.5545 27.7398 51.1147 28.1874L58.507 25.1632L58.8429 23.9311C55.4827 22.1389 52.0108 20.9069 48.3146 20.1232L45.8505 30.4274L58.6187 47.7879L57.6109 52.156C58.1711 52.4919 58.507 53.0521 58.3953 53.6123C58.2836 53.9482 58.0593 54.1724 57.7234 54.3967C57.3874 54.5084 56.939 54.5084 56.4913 54.3967C55.5952 54.1724 55.0351 53.3888 55.2593 52.7169C55.371 52.381 55.5952 52.1568 55.9312 52.0451C56.1554 51.9333 56.3788 51.9333 56.6031 51.9333L57.4992 47.9013L44.8428 30.4276L47.3068 19.8992C46.0747 19.675 44.9544 19.5632 43.7223 19.4515L41.2583 29.9799L52.5703 45.5482L33.5302 53.2765L32.7458 56.4126C33.3059 56.7485 33.6419 57.3087 33.5302 57.8688C33.4184 58.2048 33.1942 58.429 32.8583 58.6532C32.5223 58.8774 32.0739 58.7649 31.6262 58.6532C30.7301 58.429 30.1699 57.6454 30.3941 56.9735C30.5059 56.6376 30.7301 56.4133 31.066 56.3016C31.2903 56.1899 31.5137 56.1899 31.7379 56.1899L32.5223 52.718L51.0022 45.2139L40.1389 30.0918L42.6029 19.5635C39.691 19.4517 36.891 19.6752 34.0909 20.3478L32.0745 28.9722C32.6347 29.3081 32.9706 29.98 32.8589 30.4285C32.7472 30.7644 32.523 30.9886 32.187 31.2129C31.8511 31.3246 31.4026 31.3246 30.955 31.2129C30.0588 30.9886 29.4987 30.205 29.7229 29.5331C29.8346 29.1972 30.0588 28.973 30.3948 28.8613C30.619 28.7495 30.8424 28.7495 31.0667 28.7495L32.9706 20.5736C32.0745 20.7978 31.0667 21.1338 30.1706 21.4697C29.8346 21.5814 29.4987 21.8057 29.1627 21.9174L26.4745 33.0058L32.5222 34.9097C32.6339 34.798 32.8581 34.6855 32.9698 34.5738C33.3058 34.462 33.7542 34.462 34.0902 34.5738C34.9863 34.798 35.5464 35.5816 35.3222 36.2535C35.2105 36.5894 34.9863 36.8136 34.6504 37.0379C34.3144 37.1496 33.866 37.1496 33.4183 37.0379C32.7464 36.8136 32.298 36.2535 32.1862 35.8058L25.1299 33.566L27.8182 22.59C26.6978 23.1501 25.6899 23.822 24.7939 24.4939L22.1057 35.5823L37.1137 40.2864C37.2254 40.1747 37.4497 40.0622 37.5614 39.9504C37.8973 39.8387 38.3458 39.8387 38.6817 39.9504C39.5778 40.1747 40.138 40.9583 39.9138 41.6301C39.8021 41.9661 39.5778 42.1903 39.2419 42.4145C38.9059 42.5263 38.4575 42.5263 38.0098 42.4145C37.3379 42.1903 36.8895 41.6301 36.7778 41.1825L20.6493 36.1426L23.1133 25.7268C17.625 30.7667 15.6092 38.159 17.7374 45.6631C18.4093 42.8631 18.9695 40.2873 18.9695 40.2873L19.0812 39.8396L32.7455 44.0959C32.8572 43.9841 33.0814 43.8716 33.1931 43.7599C33.5291 43.6482 33.9775 43.6482 34.3135 43.7599C35.2096 43.9841 35.7697 44.7678 35.5455 45.4396C35.4338 45.7756 35.2096 45.9998 34.8736 46.224C34.5377 46.3357 34.0892 46.3357 33.6416 46.224C32.9697 45.9998 32.5212 45.4396 32.4095 44.992L19.8655 41.0715C19.6413 42.0793 18.9694 44.992 18.4092 47.6794C19.4179 49.1326 20.2022 50.8123 21.2101 52.4919L21.2101 52.4916ZM87.7393 62.2364L84.4916 69.6287C81.5797 76.2366 75.9796 81.8367 67.9155 85.0852C48.2034 93.0377 21.3227 84.525 7.88247 66.1567C-0.0700651 55.2917 -1.52629 43.4203 2.61758 33.9001L5.86524 26.5078C5.75352 26.6195 5.75352 26.732 5.75352 26.9555C8.55357 20.1233 14.2655 14.4114 22.5538 11.163C42.2659 3.21044 69.1466 11.7232 82.5868 30.0915C90.4268 40.7323 91.883 52.6039 87.7393 62.2361L87.7393 62.2364ZM15.162 56.9723C17.0659 59.5482 19.1941 61.9006 21.5465 63.9162C22.4426 64.7006 23.4504 65.5959 24.4584 66.2687C27.0342 68.1726 29.7224 69.8531 32.5225 71.197C37.1148 73.4368 41.9305 75.0048 46.8587 75.6766C47.4189 75.7884 48.0908 75.9009 48.651 75.9009C50.4432 76.1251 52.347 76.2368 54.1392 76.2368C58.9549 76.2368 63.7714 75.3407 68.1395 73.5486C71.3871 72.2048 74.1872 70.5243 76.5396 68.3961C76.8756 68.0601 77.324 67.7242 77.66 67.3882C78.3319 66.7163 79.0038 65.932 79.6756 65.1484C80.0116 64.7007 80.2358 64.364 80.5717 63.9163C82.8116 60.6687 84.1562 56.9724 84.6038 52.9403C84.7155 51.9325 84.7155 50.9247 84.7155 49.9161C84.7155 48.9083 84.6038 47.9005 84.4913 46.8918C83.8194 41.7394 81.803 36.3635 77.9952 31.3236C77.6592 30.7634 77.2108 30.3157 76.8748 29.8673C76.0904 28.8595 75.3069 27.9634 74.4108 27.0673C73.067 25.7235 71.7225 24.379 70.2669 23.2594C66.7951 20.4593 62.9872 18.1069 58.9549 16.3155C53.1306 13.7396 46.9703 12.2834 40.8108 12.0592H39.0186H37.2264C36.6662 12.0592 35.9943 12.1709 35.4342 12.1709C34.2021 12.2826 33.0817 12.3951 31.8497 12.6186C31.2896 12.7303 30.7294 12.8428 30.0575 12.9545C28.3778 13.4022 26.5857 13.8506 25.0176 14.5225C17.4019 17.5468 12.2494 22.9227 9.78536 29.3072C9.44942 30.2033 9.11347 31.2111 8.88925 32.1072C8.66502 33.1151 8.44158 34.0112 8.32908 35.0191C7.88141 42.3004 10.0096 49.9161 15.162 56.9735L15.162 56.9723Z" fill="white"/>
<path d="M57.947 37.0358C58.3946 37.7077 58.1712 38.4921 57.4993 38.828C56.7149 39.164 55.8196 38.828 55.2595 38.0436C54.9235 37.4835 54.9235 36.9233 55.3712 36.5874L54.0266 34.5717C53.3547 34.5717 52.6828 34.3475 52.3469 33.7873C51.8992 33.1155 52.1227 32.3311 52.7946 31.9951C53.579 31.6592 54.4743 32.1069 55.0344 32.7795C55.3704 33.3397 55.3704 33.8999 54.9227 34.2358L56.2665 36.2514C56.9391 36.2514 57.611 36.5874 57.947 37.0358ZM43.3865 43.4195C43.8342 44.0914 44.8428 44.4274 45.6263 44.0914C46.2982 43.7555 46.5225 42.9711 46.074 42.2992C45.7381 41.739 44.9537 41.5148 44.3943 41.5148L36.2184 30.3146L37.5621 24.7145C37.7864 24.7145 38.0098 24.7145 38.234 24.6028C38.57 24.4911 38.7942 24.2669 38.9059 23.9309C39.0177 23.259 38.4583 22.4747 37.6739 22.2512C37.2262 22.1395 36.7778 22.1395 36.4418 22.2512C36.1059 22.3629 35.8816 22.5872 35.7699 23.0356C35.6582 23.5958 35.9941 24.1559 36.5543 24.4919L35.0988 30.4272L43.499 41.9634C43.0505 42.3001 43.0506 42.8594 43.3865 43.4195ZM64.4429 39.8359C63.771 40.1718 63.5468 40.9562 63.9952 41.6281C64.4429 42.3 65.4515 42.6359 66.235 42.3C66.7952 42.0758 67.0194 41.5156 66.9069 40.9562L69.5952 39.8359L66.6833 35.9154C67.0193 35.5794 67.131 34.9076 66.6833 34.4591C66.2357 33.7872 65.2271 33.4513 64.4435 33.7872C63.6591 34.1232 63.5474 34.9076 63.9958 35.5794C64.3318 36.1396 65.1162 36.3638 65.6755 36.3638L67.9154 39.4999L66.2349 40.1718C65.6747 39.8358 65.003 39.6117 64.4429 39.8359ZM21.3221 54.6197C11.69 41.5155 15.386 26.1712 29.4981 20.5711C43.6101 14.8592 62.7626 20.9071 72.3948 34.1238C82.027 47.228 78.3309 62.5723 64.2189 68.1724C50.1068 73.7725 30.8423 67.7239 21.3221 54.6197ZM26.2504 58.6518L28.9387 47.6758L23.8988 45.9961L22.1066 53.5002C22.5542 53.8362 22.891 54.2846 22.891 54.844C23.8988 56.1878 25.0184 57.4198 26.2504 58.6518ZM21.2105 52.4915L23.0027 44.8758L30.0591 47.1156L27.1472 59.4362C29.2754 61.3401 31.7395 63.0207 34.3153 64.4761H34.5395L36.6678 55.6283L48.3156 50.9243C48.0914 50.3641 48.4273 49.8039 48.9875 49.5805C49.6594 49.2445 50.6672 49.5805 51.2273 50.2524C51.675 50.9243 51.5633 51.7086 50.7797 52.0446C50.2195 52.2688 49.4359 52.1563 48.9874 51.7086L37.7873 56.1883L35.7716 64.7003C35.9958 64.9245 36.2193 65.1479 36.3318 65.3722C37.0037 65.7081 37.6756 66.044 38.46 66.2683L39.8038 60.6682C39.2436 60.3322 38.9077 59.7721 39.0194 59.2119C39.1311 58.876 39.3554 58.6517 39.6913 58.4275C40.0272 58.2033 40.4757 58.3158 40.9234 58.4275C41.8195 58.6517 42.3796 59.4354 42.1554 60.2197C42.0437 60.5557 41.8195 60.7799 41.4835 60.8916C41.2593 61.0033 41.0359 61.0033 40.8116 61.0033L39.4679 66.7152C40.6999 67.1629 42.0437 67.6114 43.2757 67.9473L46.4118 54.6189L52.2361 56.5228L50.5564 63.4667C51.1165 63.8027 51.4525 64.3628 51.3408 64.923C51.229 65.2589 51.0048 65.4832 50.6689 65.5949C50.3329 65.7066 49.8845 65.7066 49.4368 65.5949C48.5407 65.3707 47.9805 64.587 48.2048 63.8027C48.3165 63.4667 48.5407 63.2425 48.8766 63.1308C49.1009 63.0191 49.3243 63.0191 49.5485 63.0191L51.0048 56.8588L47.1969 55.6267L44.2829 68.1723C46.9711 68.8442 49.7712 69.1801 52.4588 69.1801L55.0347 58.5402C54.4745 58.2042 54.1386 57.6441 54.2503 57.0839C54.362 56.748 54.5862 56.5237 54.9222 56.2995C55.2581 56.1878 55.7066 56.1878 56.1542 56.2995C57.0503 56.5237 57.6105 57.3073 57.3863 57.9792C57.2746 58.3152 57.0504 58.5394 56.7144 58.6511C56.4902 58.7628 56.2667 58.7628 56.0425 58.7628L53.5785 68.9552C55.3707 68.8435 57.1629 68.6193 58.8426 68.2833L56.8269 65.5951V65.3708L60.9708 48.1229L70.4914 44.3151C70.3796 43.7549 70.4914 43.1947 71.1632 42.9713C71.8351 42.6353 72.843 42.9713 73.4031 43.6432C73.8508 44.3151 73.739 45.0994 72.9554 45.4354C72.3953 45.6596 71.6116 45.5471 71.1632 45.0994L61.9795 49.0199L57.9474 65.7084L59.8513 68.2842C61.0834 67.9483 62.3154 67.6124 63.5474 67.1639C65.0036 66.6037 66.2356 65.9318 67.4678 65.1483L68.9241 59.1006C68.3639 58.7646 68.028 58.2045 68.1397 57.6443C68.2514 57.3084 68.4757 57.0841 68.8116 56.8599C69.1476 56.7482 69.596 56.7482 70.0437 56.8599C70.9398 57.0841 71.4999 57.8677 71.2757 58.6521C71.164 58.9881 70.9398 59.2123 70.6038 59.324C70.3796 59.4357 70.1562 59.4357 69.9319 59.4357L68.8116 64.2514C73.6273 60.667 76.2039 55.4037 76.4273 49.691L66.0116 53.8348L64.4436 60.2193C65.0037 60.5553 65.3397 61.1155 65.228 61.6756C65.1162 62.0116 64.892 62.2358 64.5561 62.46C64.2201 62.5717 63.7717 62.5717 63.324 62.46C62.4279 62.2358 61.8677 61.4522 62.092 60.6678C62.2037 60.3318 62.4279 60.1076 62.7638 59.9959C62.9881 59.8842 63.2115 59.8842 63.4357 59.8842L65.0037 53.1637L76.4281 48.5714C76.3164 43.9791 74.7484 39.0508 71.2756 34.4593C69.26 31.7711 66.796 29.3069 64.1075 27.2912L60.7472 41.5157C61.3074 41.8516 61.6434 42.4118 61.5316 42.9719C61.4199 43.3079 61.1957 43.5321 60.8597 43.7563C60.5238 43.868 60.0754 43.868 59.6277 43.7563C58.7316 43.5321 58.1714 42.7485 58.3956 41.9641C58.5074 41.6282 58.7316 41.4039 59.0675 41.2922C59.2917 41.1805 59.5152 41.1805 59.7394 41.1805L63.2113 26.62C62.2034 25.8357 61.083 25.1638 59.9636 24.4918L59.6277 25.8356L51.7869 28.9716C51.8987 29.5318 51.7869 30.092 51.115 30.3154C50.4432 30.6514 49.4353 30.3154 48.8752 29.6435C48.4275 28.9716 48.5393 28.1873 49.3229 27.8513C49.883 27.6271 50.5549 27.7396 51.1151 28.1873L58.5074 25.163L58.8434 23.931C55.4831 22.1387 52.0112 20.9067 48.315 20.1231L45.8509 30.4273L58.6192 47.7878L57.6113 52.1559C58.1715 52.4918 58.5074 53.052 58.3957 53.6121C58.284 53.9481 58.0598 54.1723 57.7238 54.3965C57.3879 54.5082 56.9394 54.5082 56.4918 54.3965C55.5956 54.1723 55.0355 53.3887 55.2597 52.7168C55.3714 52.3809 55.5956 52.1566 55.9316 52.0449C56.1558 51.9332 56.3793 51.9332 56.6035 51.9332L57.4996 47.9011L44.8432 30.4274L47.3072 19.899C46.0752 19.6748 44.9548 19.5631 43.7228 19.4514L41.2587 29.9797L52.5707 45.548L33.5306 53.2764L32.7462 56.4124C33.3063 56.7484 33.6423 57.3085 33.5306 57.8687C33.4189 58.2046 33.1946 58.4288 32.8587 58.6531C32.5227 58.8773 32.0743 58.7648 31.6266 58.6531C30.7305 58.4288 30.1704 57.6452 30.3946 56.9734C30.5063 56.6374 30.7305 56.4132 31.0665 56.3015C31.2907 56.1897 31.5141 56.1897 31.7383 56.1897L32.5227 52.7179L51.0027 45.2138L40.1393 30.0917L42.6033 19.5633C39.6915 19.4516 36.8914 19.675 34.0914 20.3477L32.0749 28.972C32.6351 29.308 32.971 29.9799 32.8593 30.4283C32.7476 30.7643 32.5234 30.9885 32.1874 31.2127C31.8515 31.3244 31.403 31.3244 30.9554 31.2127C30.0593 30.9885 29.4991 30.2049 29.7233 29.533C29.835 29.1971 30.0593 28.9728 30.3952 28.8611C30.6194 28.7494 30.8429 28.7494 31.0671 28.7494L32.971 20.5734C32.0749 20.7977 31.0671 21.1336 30.171 21.4696C29.835 21.5813 29.4991 21.8055 29.1631 21.9172L26.4749 33.0056L32.5226 34.9096C32.6343 34.7978 32.8585 34.6853 32.9703 34.5736C33.3062 34.4619 33.7547 34.4619 34.0906 34.5736C34.9867 34.7978 35.5469 35.5814 35.3227 36.2533C35.2109 36.5893 34.9867 36.8135 34.6508 37.0377C34.3148 37.1494 33.8664 37.1494 33.4187 37.0377C32.7468 36.8135 32.2984 36.2533 32.1867 35.8057L25.1303 33.5658L27.8186 22.5898C26.6982 23.15 25.6903 23.8219 24.7943 24.4938L22.1061 35.5821L37.1141 40.2862C37.2259 40.1745 37.4501 40.062 37.5618 39.9503C37.8978 39.8386 38.3462 39.8386 38.6821 39.9503C39.5783 40.1745 40.1384 40.9581 39.9142 41.63C39.8025 41.9659 39.5783 42.1902 39.2423 42.4144C38.9064 42.5261 38.4579 42.5261 38.0103 42.4144C37.3384 42.1902 36.8899 41.63 36.7782 41.1823L20.6497 36.1424L23.1138 25.7267C17.6255 30.7665 15.6096 38.1589 17.7379 45.663C18.4098 42.863 18.9699 40.2871 18.9699 40.2871L19.0816 39.8394L32.7459 44.0957C32.8576 43.984 33.0818 43.8715 33.1936 43.7598C33.5295 43.6481 33.9779 43.6481 34.3139 43.7598C35.21 43.984 35.7702 44.7676 35.5459 45.4395C35.4342 45.7754 35.21 45.9996 34.8741 46.2239C34.5381 46.3356 34.0897 46.3356 33.642 46.2239C32.9701 45.9996 32.5217 45.4395 32.4099 44.9918L19.8659 41.0713C19.6417 42.0792 18.9698 44.9918 18.4097 47.6793C19.4183 49.1324 20.2027 50.8119 21.2105 52.4915Z" fill="#2DFF73"/>
</svg>