<svg width="96" height="96" viewBox="0 0 96 96" fill="none" xmlns="http://www.w3.org/2000/svg">
<path fill-rule="evenodd" clip-rule="evenodd" d="M84.0619 45.2254V22.6009H76.397V21.6977C76.397 19.1987 75.2963 16.8461 73.3761 15.2444C71.456 13.6421 68.9461 12.984 66.486 13.428L65.1958 13.663V2.88916L9.76667 22.6H8.30273V85.0964H18.835L22.3741 85.0975H31.7769H35.3153H39.7397H43.2777H61.6269L65.1637 85.0964H84.0608V62.4701H88.1881V45.2235L84.0619 45.2254ZM71.11 17.9593C69.9979 17.033 68.5368 16.6467 67.1204 16.9083L35.8572 22.6005H72.8579V21.6973C72.8579 20.2492 72.2215 18.8869 71.11 17.9593ZM61.6568 14.3071V7.90136L24.7576 21.0249L61.6568 14.3071ZM11.842 81.559H80.5237V62.4709H74.6268V75.5158H16.2638V74.63H73.7411V62.4708H64.4133L59.9574 53.848L64.4133 45.2244H73.7411V33.066H16.2638V32.1808H74.6268V45.2244H80.5237V26.1391H11.842V81.559ZM66.5676 58.9346H84.6509V48.7647H66.5676L63.9403 53.8493L66.5676 58.9346Z" fill="white"/>
<path fill-rule="evenodd" clip-rule="evenodd" d="M84.0607 62.4699H88.188V45.2234L84.0618 45.2252L80.5235 45.2243H74.6267V32.1807H16.2637V33.0658H73.741V45.2243H64.4131L59.9572 53.8478L64.4131 62.4706H73.741V74.6298H16.2637V75.5157H74.6267V62.4708H80.5235L84.0607 62.4699ZM66.5674 58.9344H84.6508V48.7646H66.5674L63.9402 53.8491L66.5674 58.9344Z" fill="#2DFF73"/>
</svg>