<svg width="96" height="96" viewBox="0 0 96 96" fill="none" xmlns="http://www.w3.org/2000/svg">
<rect x="10.8657" y="10.8657" width="64.3638" height="64.3638" stroke="white" stroke-width="3.7314"/>
<rect x="20.7719" y="20.7705" width="64.3638" height="64.3638" fill="black" stroke="#2DFF73" stroke-width="3.7314"/>
<path d="M35.7482 58.9048L33.0803 48.7118H35.3788L37.39 57.2493H36.7744L38.895 48.7118H41.0841L43.2048 57.2493H42.5891L44.6003 48.7118H46.8989L44.2309 58.9048H41.7682L39.6338 50.6957H40.3453L38.2109 58.9048H35.7482ZM47.9555 58.9048V48.7118H54.8101V50.5589H50.0762V52.8711H54.5364V54.7182H50.0762V57.0577H54.8101V58.9048H47.9555ZM56.0122 58.9048V48.7118H60.322C61.0243 48.7118 61.6263 48.8304 62.128 49.0676C62.6297 49.3047 63.0128 49.6468 63.2773 50.0937C63.5418 50.5315 63.674 51.0651 63.674 51.6945C63.674 52.1414 63.5509 52.5701 63.3046 52.9806C63.0584 53.3819 62.6525 53.7194 62.087 53.993V52.9532C62.6251 53.163 63.0401 53.4138 63.332 53.7057C63.6239 53.9976 63.8245 54.3168 63.934 54.6634C64.0435 55.0009 64.0982 55.3566 64.0982 55.7306C64.0982 56.7339 63.7653 57.5138 63.0994 58.0702C62.4336 58.6266 61.5078 58.9048 60.322 58.9048H56.0122ZM58.1329 57.0577H60.5683C60.997 57.0577 61.339 56.9346 61.5944 56.6883C61.8498 56.4421 61.9775 56.1228 61.9775 55.7306C61.9775 55.3293 61.8498 55.0055 61.5944 54.7592C61.339 54.5129 60.997 54.3898 60.5683 54.3898H58.1329V57.0577ZM58.1329 52.5427H60.4725C60.8009 52.5427 61.0608 52.4515 61.2524 52.2691C61.453 52.0776 61.5534 51.8267 61.5534 51.5166C61.5534 51.2065 61.453 50.9602 61.2524 50.7778C61.0608 50.5863 60.8009 50.4905 60.4725 50.4905H58.1329V52.5427ZM68.5506 59.069C67.9851 59.069 67.447 58.9641 66.9362 58.7543C66.4254 58.5354 65.9921 58.2298 65.6364 57.8376C65.2807 57.4454 65.0435 56.9848 64.925 56.4557L66.7994 55.8264C66.9544 56.2642 67.1825 56.5971 67.4835 56.8252C67.7845 57.0441 68.1402 57.1535 68.5506 57.1535C68.8881 57.1535 69.1754 57.0897 69.4126 56.962C69.6589 56.8343 69.8504 56.6564 69.9872 56.4284C70.124 56.1912 70.1925 55.9176 70.1925 55.6075C70.1925 55.2974 70.124 55.0328 69.9872 54.8139C69.8595 54.5859 69.6725 54.4126 69.4263 54.294C69.1891 54.1663 68.8972 54.1025 68.5506 54.1025C68.35 54.1025 68.1493 54.1253 67.9486 54.1709C67.748 54.2165 67.5656 54.2803 67.4014 54.3624L66.9088 53.3363L69.522 50.4905H65.5406V48.7118H71.9027V50.3537L69.221 53.4047L69.2895 52.5427C69.9006 52.5427 70.4296 52.6704 70.8765 52.9258C71.3326 53.1721 71.6838 53.5187 71.93 53.9657C72.1854 54.4126 72.3131 54.9325 72.3131 55.5254C72.3131 56.2004 72.149 56.8069 71.8206 57.3451C71.4922 57.8832 71.0453 58.3073 70.4798 58.6175C69.9143 58.9185 69.2712 59.069 68.5506 59.069Z" fill="#2DFF73"/>
</svg>