<svg width="200" height="226" viewBox="0 0 200 226" fill="none" xmlns="http://www.w3.org/2000/svg">
<g clip-path="url(#clip0_252_1035)">
<path d="M166.37 97.8652V152.67L118.959 125.485L166.37 97.8652Z" fill="#030203" stroke="#464646" stroke-width="2" stroke-miterlimit="10" stroke-linecap="round" stroke-linejoin="round"/>
<path d="M146.367 64.5915L99.8262 91.1241V37.624H100.044L146.367 64.5915Z" fill="#030203" stroke="#464646" stroke-width="2" stroke-miterlimit="10" stroke-linecap="round" stroke-linejoin="round"/>
<path d="M99.8243 37.624V91.1241L99.6068 91.3416L52.8486 64.5915L99.8243 37.624Z" fill="#030203" stroke="#464646" stroke-width="2" stroke-miterlimit="10" stroke-linecap="round" stroke-linejoin="round"/>
<path d="M80.2484 125.703L33.4902 152.453V98.3008L80.2484 125.703Z" fill="#030203" stroke="#464646" stroke-width="2" stroke-miterlimit="10" stroke-linecap="round" stroke-linejoin="round"/>
<path d="M157.023 58.502L146.367 64.5914L100.044 37.6239H99.8262V25.445L100.044 25.2275L157.023 58.502Z" fill="#030203" stroke="white" stroke-width="2" stroke-miterlimit="10" stroke-linecap="round" stroke-linejoin="round"/>
<path d="M99.8223 25.4453V37.6242L52.8467 64.5917L41.9727 58.5023L99.8223 25.4453Z" fill="#030203" stroke="white" stroke-width="2" stroke-miterlimit="10" stroke-linecap="round" stroke-linejoin="round"/>
<path d="M52.8472 64.5911L99.6054 91.3411L99.8228 91.1236L146.364 64.5911L157.02 58.5016L100.04 25.2272H99.8228L41.9732 58.5016L52.8472 64.5911ZM196.601 59.1541L99.8228 114.829L3.26172 59.1541L99.8228 3.26172L196.601 59.1541Z" fill="#030203" stroke="#2DFF73" stroke-width="2" stroke-miterlimit="10" stroke-linecap="round" stroke-linejoin="round"/>
<path d="M177.245 91.5586V158.977L166.371 152.67V97.8655L177.245 91.5586Z" fill="#030203" stroke="white" stroke-width="2" stroke-miterlimit="10" stroke-linecap="round" stroke-linejoin="round"/>
<path d="M166.37 152.67V152.888L118.742 180.073L118.96 125.485L166.37 152.67Z" fill="#030203" stroke="#464646" stroke-width="2" stroke-miterlimit="10" stroke-linecap="round" stroke-linejoin="round"/>
<path d="M80.2504 125.703V179.856L33.4922 152.888V152.453L80.2504 125.703Z" fill="#030203" stroke="#464646" stroke-width="2" stroke-miterlimit="10" stroke-linecap="round" stroke-linejoin="round"/>
<path d="M80.2497 179.855V192.468L22.835 158.542L33.4915 152.452V152.887L80.2497 179.855Z" fill="#030203" stroke="white" stroke-width="2" stroke-miterlimit="10" stroke-linecap="round" stroke-linejoin="round"/>
<path d="M33.4915 98.3004V152.453L22.835 158.542V92.2109L33.4915 98.3004Z" fill="#030203" stroke="white" stroke-width="2" stroke-miterlimit="10" stroke-linecap="round" stroke-linejoin="round"/>
<path d="M33.4914 98.3007L22.8349 92.2113V158.543L80.2496 192.469V179.856V125.703L33.4914 98.3007ZM99.8228 114.829V225.309L3.26172 169.199V59.1543L99.8228 114.829Z" fill="#030203" stroke="#2DFF73" stroke-width="2" stroke-miterlimit="10" stroke-linecap="round" stroke-linejoin="round"/>
<path d="M177.242 158.977L118.74 192.469V180.072L166.368 152.887V152.67L177.242 158.977Z" fill="#030203" stroke="white" stroke-width="2" stroke-miterlimit="10" stroke-linecap="round" stroke-linejoin="round"/>
<path d="M196.603 59.1543V169.199L100.042 225.309V114.829L196.603 59.1543ZM177.247 158.978V91.5588L166.373 97.8657L118.963 125.486L118.745 180.291V192.469L177.247 158.978Z" fill="#030203" stroke="#2DFF73" stroke-width="2" stroke-miterlimit="10" stroke-linecap="round" stroke-linejoin="round"/>
</g>
<defs>
<clipPath id="clip0_252_1035">
<rect width="200" height="226" fill="white"/>
</clipPath>
</defs>
</svg>