<svg width="200" height="226" viewBox="0 0 200 226" fill="none" xmlns="http://www.w3.org/2000/svg">
<path d="M138.46 24.4219V24.6386H138.243L99.8902 46.7375L61.3203 24.4219H61.537L99.8902 2.10645L138.46 24.4219Z" fill="#121212" stroke="#464646" stroke-width="2" stroke-miterlimit="10" stroke-linecap="round" stroke-linejoin="round"/>
<path d="M138.461 46.3032L118.742 57.5693V79.0182V79.2348L99.8906 68.6187V46.7365L138.244 24.6377V46.0866L138.461 46.3032Z" fill="#121212" stroke="#464646" stroke-width="2" stroke-miterlimit="10" stroke-linecap="round" stroke-linejoin="round"/>
<path d="M99.8902 46.7384V68.6206L81.0386 79.67L80.8219 79.2367V57.7878L61.3203 46.5217V24.4229L99.8902 46.7384Z" fill="#121212" stroke="#464646" stroke-width="2" stroke-miterlimit="10" stroke-linecap="round" stroke-linejoin="round"/>
<path d="M196.749 101.768V168.065L157.963 190.597L157.746 190.38V80.5361L196.533 58.0039H196.749V101.768Z" fill="#121212" stroke="white" stroke-width="2" stroke-miterlimit="10" stroke-linecap="round" stroke-linejoin="round"/>
<path d="M196.532 58.0037L157.745 80.5359V80.1026L118.742 57.5704L138.46 46.3043L157.095 35.2549H157.312L196.532 58.0037Z" fill="#121212" stroke="white" stroke-width="2" stroke-miterlimit="10" stroke-linecap="round" stroke-linejoin="round"/>
<path d="M157.745 80.5348V190.379L139.111 178.896V91.3676V90.9343L118.742 79.2349V79.0182V57.5693L157.745 80.1015V80.5348Z" fill="#121212" stroke="white" stroke-width="2" stroke-miterlimit="10" stroke-linecap="round" stroke-linejoin="round"/>
<path d="M139.111 178.897V201.212V201.429L99.8906 224.178V113.9L139.111 91.3682V178.897Z" fill="#121212" stroke="#2DFF73" stroke-width="2" stroke-miterlimit="10" stroke-linecap="round" stroke-linejoin="round"/>
<path d="M80.8231 79.2349V79.4515L60.6714 91.3676V91.5842V179.113C60.4548 179.113 60.2381 179.33 60.0214 179.546C59.3713 179.763 58.5046 180.413 57.4212 180.846C54.6043 182.363 50.9206 184.529 47.4537 186.263C46.5869 186.696 45.9369 187.129 45.2868 187.563C43.3367 188.646 41.6032 189.729 41.1698 190.162H40.9531V80.5348L41.1698 80.3181L80.6064 57.5693V79.2349H80.8231Z" fill="#121212" stroke="white" stroke-width="2" stroke-miterlimit="10" stroke-linecap="round" stroke-linejoin="round"/>
<path d="M61.3215 46.5201L80.8231 57.7862L41.6032 80.3184L3.25 58.0029L42.0366 35.4707L61.3215 46.5201Z" fill="#121212" stroke="white" stroke-width="2" stroke-miterlimit="10" stroke-linecap="round" stroke-linejoin="round"/>
<path d="M41.6032 80.3194L41.3865 80.5361V190.164L3.25 168.065V102.202V58.0039L41.6032 80.3194Z" fill="#121212" stroke="white" stroke-width="2" stroke-miterlimit="10" stroke-linecap="round" stroke-linejoin="round"/>
<path d="M60.6719 179.115V91.8027L85.1572 105.885L99.4584 114.335L99.8918 113.902V224.179L60.8886 201.647L60.6719 201.43V179.115Z" fill="#121212" stroke="#2DFF73" stroke-width="2" stroke-miterlimit="10" stroke-linecap="round" stroke-linejoin="round"/>
<path d="M139.112 90.9356V91.3689L99.8918 113.901L99.4584 114.334L85.1572 105.885L60.6719 91.5856V91.3689L81.0402 79.6695L99.8918 68.6201L118.743 79.2362L139.112 90.9356Z" fill="#121212" stroke="#2DFF73" stroke-width="2" stroke-miterlimit="10" stroke-linecap="round" stroke-linejoin="round"/>
</svg>