<svg width="200" height="226" viewBox="0 0 200 226" fill="none" xmlns="http://www.w3.org/2000/svg">
<g clip-path="url(#clip0_252_991)">
<path d="M99.8855 115.266V225.303H99.4522L3.24414 170.176V104.372L61.3156 137.71V160.153L42.2474 149.04L22.5291 137.71V160.153L80.6006 193.708V148.604V126.597L22.7458 93.0411L3.24414 81.9285V59.4854L99.8855 115.266Z" fill="#030203" stroke="#464646" stroke-width="2" stroke-miterlimit="10" stroke-linecap="round" stroke-linejoin="round"/>
<path d="M157.74 59.0496L138.239 48.1548L99.8855 70.1622V70.3801L80.6006 59.2675L99.8855 47.9369L119.17 36.8243L138.455 25.7117L196.744 59.4854L99.8855 115.048V115.266L3.24414 59.4854L99.8855 3.26855L119.17 14.5991L99.8855 25.7117L41.814 59.4854L80.6006 81.9285L99.4521 93.0411L99.8855 92.8232L138.239 70.598L157.74 59.0496Z" fill="#030203" stroke="white" stroke-width="2" stroke-miterlimit="10" stroke-linecap="round" stroke-linejoin="round"/>
<path d="M177.028 93.041V181.506L157.743 170.611V126.379L138.241 115.266L177.028 93.041Z" fill="#030203" stroke="#2DFF73" stroke-width="2" stroke-miterlimit="10" stroke-linecap="round" stroke-linejoin="round"/>
<path d="M157.743 126.379L138.458 137.71L118.739 126.379L138.241 115.267L157.743 126.379Z" fill="#030203" stroke="#2DFF73" stroke-width="2" stroke-miterlimit="10" stroke-linecap="round" stroke-linejoin="round"/>
<path d="M138.241 48.1543L157.743 59.049L138.241 70.3795V48.1543Z" fill="#030203" stroke="white" stroke-width="2" stroke-miterlimit="10" stroke-linecap="round" stroke-linejoin="round"/>
<path d="M138.458 137.71V182.379L118.739 171.484V126.38L138.458 137.71Z" fill="#030203" stroke="#2DFF73" stroke-width="2" stroke-miterlimit="10" stroke-linecap="round" stroke-linejoin="round"/>
<path d="M138.458 182.377L118.739 193.708V171.482L138.458 182.377Z" fill="#030203" stroke="#2DFF73" stroke-width="2" stroke-miterlimit="10" stroke-linecap="round" stroke-linejoin="round"/>
<path d="M138.24 48.1543V70.3795L99.8867 92.8227V70.1616L138.24 48.1543Z" fill="#030203" stroke="white" stroke-width="2" stroke-miterlimit="10" stroke-linecap="round" stroke-linejoin="round"/>
<path d="M119.171 14.5996V36.8249L99.886 47.9375L80.601 59.268V81.929L41.8145 59.4859L99.886 25.7122L119.171 14.5996Z" fill="#030203" stroke="white" stroke-width="2" stroke-miterlimit="10" stroke-linecap="round" stroke-linejoin="round"/>
<path d="M99.8845 70.1623V92.8234L99.4512 93.0413L80.5996 81.9286V59.2676L99.8845 70.3802V70.1623Z" fill="#030203" stroke="white" stroke-width="2" stroke-miterlimit="10" stroke-linecap="round" stroke-linejoin="round"/>
<path d="M80.6028 148.604V193.709L22.5312 160.153L42.0329 149.04H42.2496L61.3178 160.153L80.6028 148.604Z" fill="#030203" stroke="#464646" stroke-width="2" stroke-miterlimit="10" stroke-linecap="round" stroke-linejoin="round"/>
<path d="M80.6013 126.598V148.605L61.3164 160.153V137.71L80.6013 126.598Z" fill="#030203" stroke="#464646" stroke-width="2" stroke-miterlimit="10" stroke-linecap="round" stroke-linejoin="round"/>
<path d="M80.6006 126.597L61.3156 137.709L3.24414 104.372L22.5291 93.041H22.7458L80.6006 126.597Z" fill="#030203" stroke="#464646" stroke-width="2" stroke-miterlimit="10" stroke-linecap="round" stroke-linejoin="round"/>
<path d="M42.2496 149.039H42.0329L22.5312 160.152V137.709L42.2496 149.039Z" fill="#030203" stroke="#464646" stroke-width="2" stroke-miterlimit="10" stroke-linecap="round" stroke-linejoin="round"/>
<path d="M118.739 171.483V193.708L138.458 182.378V137.71L157.743 126.379V170.612V192.619L100.538 225.303H99.8877V115.266L196.746 59.4854V170.176L177.027 181.506V93.0411L138.241 115.266L118.739 126.379V171.483Z" fill="#030203" stroke="#2DFF73" stroke-width="2" stroke-miterlimit="10" stroke-linecap="round" stroke-linejoin="round"/>
</g>
<defs>
<clipPath id="clip0_252_991">
<rect width="200" height="226" fill="white"/>
</clipPath>
</defs>
</svg>