<svg width="65" height="65" viewBox="0 0 65 65" fill="none" xmlns="http://www.w3.org/2000/svg">
<rect width="65" height="65" rx="10" fill="url(#paint0_linear_493_4980)"/>
<mask id="mask0_493_4980" style="mask-type:alpha" maskUnits="userSpaceOnUse" x="13" y="12" width="40" height="40">
<rect x="13" y="12" width="40" height="40" fill="#D9D9D9"/>
</mask>
<g mask="url(#mask0_493_4980)">
<path d="M47.4167 27.625L45.0833 25.2917L46.3333 24L41 18.6667L39.7083 19.9167L37.3333 17.5417L38.5833 16.25C39.2222 15.6111 40.0139 15.2986 40.9583 15.3125C41.9028 15.3264 42.6944 15.6528 43.3333 16.2917L48.7083 21.6667C49.3472 22.3056 49.6667 23.0903 49.6667 24.0208C49.6667 24.9514 49.3472 25.7361 48.7083 26.375L47.4167 27.625ZM27.4167 47.6667C26.7778 48.3056 25.9931 48.625 25.0625 48.625C24.1319 48.625 23.3472 48.3056 22.7083 47.6667L17.3333 42.2917C16.6944 41.6528 16.375 40.8681 16.375 39.9375C16.375 39.0069 16.6944 38.2222 17.3333 37.5833L18.5833 36.3333L20.9583 38.7083L19.6667 39.9583L25.0417 45.3333L26.2917 44.0417L28.6667 46.4167L27.4167 47.6667ZM43.9583 33.6667L46.3333 31.2917L33.7083 18.6667L31.3333 21.0417L43.9583 33.6667ZM32.2917 45.3333L34.6667 42.9167L22.0833 30.3333L19.6667 32.7083L32.2917 45.3333ZM32.0417 35.5833L36.625 31.0417L33.9583 28.375L29.4167 32.9583L32.0417 35.5833ZM34.6667 47.6667C34.0278 48.3056 33.2361 48.625 32.2917 48.625C31.3472 48.625 30.5556 48.3056 29.9167 47.6667L17.3333 35.0833C16.6944 34.4444 16.375 33.6528 16.375 32.7083C16.375 31.7639 16.6944 30.9722 17.3333 30.3333L19.7083 27.9583C20.3472 27.3194 21.1319 27 22.0625 27C22.9931 27 23.7778 27.3194 24.4167 27.9583L27.0417 30.5833L31.625 26L29 23.4167C28.3611 22.7778 28.0417 21.9861 28.0417 21.0417C28.0417 20.0972 28.3611 19.3056 29 18.6667L31.375 16.2917C32.0139 15.6528 32.7986 15.3333 33.7292 15.3333C34.6597 15.3333 35.4444 15.6528 36.0833 16.2917L48.7083 28.9167C49.3472 29.5556 49.6667 30.3403 49.6667 31.2708C49.6667 32.2014 49.3472 32.9861 48.7083 33.625L46.3333 36C45.6944 36.6389 44.9028 36.9583 43.9583 36.9583C43.0139 36.9583 42.2222 36.6389 41.5833 36L39 33.375L34.4167 37.9583L37.0417 40.5833C37.6806 41.2222 38 42.0069 38 42.9375C38 43.8681 37.6806 44.6528 37.0417 45.2917L34.6667 47.6667Z" fill="white"/>
</g>
<defs>
<linearGradient id="paint0_linear_493_4980" x1="32.5" y1="0" x2="32.5" y2="65" gradientUnits="userSpaceOnUse">
<stop stop-color="#26D07C" stop-opacity="0.6"/>
<stop offset="1" stop-color="#26D07C" stop-opacity="0.2"/>
</linearGradient>
</defs>
</svg>
