<svg width="65" height="65" viewBox="0 0 65 65" fill="none" xmlns="http://www.w3.org/2000/svg">
<rect width="65" height="65" rx="10" fill="url(#paint0_linear_281_6731)"/>
<mask id="mask0_281_6731" style="mask-type:alpha" maskUnits="userSpaceOnUse" x="13" y="13" width="40" height="40">
<rect x="13" y="13" width="40" height="40" fill="#D9D9D9"/>
</mask>
<g mask="url(#mask0_281_6731)">
<path d="M33 45.25C36.3889 42.1389 38.9028 39.3125 40.5417 36.7708C42.1805 34.2292 43 31.9722 43 30C43 26.9722 42.0347 24.4931 40.1042 22.5625C38.1736 20.6319 35.8055 19.6667 33 19.6667C30.1944 19.6667 27.8264 20.6319 25.8958 22.5625C23.9653 24.4931 23 26.9722 23 30C23 31.9722 23.8194 34.2292 25.4583 36.7708C27.0972 39.3125 29.6111 42.1389 33 45.25ZM33 48.5417C32.6111 48.5417 32.2222 48.4722 31.8333 48.3333C31.4444 48.1944 31.0972 47.9861 30.7917 47.7083C28.9861 46.0417 27.3889 44.4167 26 42.8333C24.6111 41.25 23.4514 39.7153 22.5208 38.2292C21.5903 36.7431 20.8819 35.3125 20.3958 33.9375C19.9097 32.5625 19.6667 31.25 19.6667 30C19.6667 25.8333 21.0069 22.5139 23.6875 20.0417C26.368 17.5694 29.4722 16.3333 33 16.3333C36.5278 16.3333 39.6319 17.5694 42.3125 20.0417C44.993 22.5139 46.3333 25.8333 46.3333 30C46.3333 31.25 46.0903 32.5625 45.6042 33.9375C45.118 35.3125 44.4097 36.7431 43.4792 38.2292C42.5486 39.7153 41.3889 41.25 40 42.8333C38.6111 44.4167 37.0139 46.0417 35.2083 47.7083C34.9028 47.9861 34.5555 48.1944 34.1667 48.3333C33.7778 48.4722 33.3889 48.5417 33 48.5417ZM33 33C33.9167 33 34.7014 32.6736 35.3542 32.0208C36.0069 31.3681 36.3333 30.5833 36.3333 29.6667C36.3333 28.75 36.0069 27.9653 35.3542 27.3125C34.7014 26.6597 33.9167 26.3333 33 26.3333C32.0833 26.3333 31.2986 26.6597 30.6458 27.3125C29.993 27.9653 29.6667 28.75 29.6667 29.6667C29.6667 30.5833 29.993 31.3681 30.6458 32.0208C31.2986 32.6736 32.0833 33 33 33Z" fill="white"/>
</g>
<defs>
<linearGradient id="paint0_linear_281_6731" x1="32.5" y1="0" x2="32.5" y2="65" gradientUnits="userSpaceOnUse">
<stop stop-color="#26D07C" stop-opacity="0.6"/>
<stop offset="1" stop-color="#26D07C" stop-opacity="0.2"/>
</linearGradient>
</defs>
</svg>
