<svg width="65" height="65" viewBox="0 0 65 65" fill="none" xmlns="http://www.w3.org/2000/svg">
<rect width="65" height="65" rx="10" fill="url(#paint0_linear_646_5349)"/>
<mask id="mask0_646_5349" style="mask-type:alpha" maskUnits="userSpaceOnUse" x="12" y="12" width="40" height="40">
<rect x="12" y="12" width="40" height="40" fill="#D9D9D9"/>
</mask>
<g mask="url(#mask0_646_5349)">
<path d="M43.6667 44.375L41.2917 46.7083C40.9861 47.0139 40.6042 47.1736 40.1458 47.1875C39.6875 47.2014 39.2917 47.0417 38.9583 46.7083C38.6528 46.4028 38.5 46.0139 38.5 45.5417C38.5 45.0694 38.6528 44.6806 38.9583 44.375L41.2917 42L38.9583 39.625C38.6528 39.3194 38.4931 38.9375 38.4792 38.4792C38.4653 38.0208 38.625 37.625 38.9583 37.2917C39.2639 36.9861 39.6528 36.8333 40.125 36.8333C40.5972 36.8333 40.9861 36.9861 41.2917 37.2917L43.6667 39.625L46.0417 37.2917C46.3472 36.9861 46.7292 36.8264 47.1875 36.8125C47.6458 36.7986 48.0417 36.9583 48.375 37.2917C48.6806 37.5972 48.8333 37.9861 48.8333 38.4583C48.8333 38.9305 48.6806 39.3194 48.375 39.625L46.0417 42L48.375 44.375C48.6806 44.6806 48.8403 45.0625 48.8542 45.5208C48.8681 45.9792 48.7083 46.375 48.375 46.7083C48.0694 47.0139 47.6806 47.1667 47.2083 47.1667C46.7361 47.1667 46.3472 47.0139 46.0417 46.7083L43.6667 44.375ZM22 48.6667C20.6111 48.6667 19.4306 48.1805 18.4583 47.2083C17.4861 46.2361 17 45.0555 17 43.6667V42C17 41.0833 17.3264 40.2986 17.9792 39.6458C18.6319 38.9931 19.4167 38.6667 20.3333 38.6667H22V18.6667C22 17.75 22.3264 16.9653 22.9792 16.3125C23.6319 15.6597 24.4167 15.3333 25.3333 15.3333H43.6667C44.5833 15.3333 45.3681 15.6597 46.0208 16.3125C46.6736 16.9653 47 17.75 47 18.6667V32.625C46.4722 32.4305 45.9306 32.2847 45.375 32.1875C44.8194 32.0903 44.25 32.0417 43.6667 32.0417V18.6667H25.3333V38.6667H34.25C34.0556 39.1944 33.9097 39.7361 33.8125 40.2917C33.7153 40.8472 33.6667 41.4167 33.6667 42H20.3333V43.6667C20.3333 44.1389 20.4931 44.5347 20.8125 44.8542C21.1319 45.1736 21.5278 45.3333 22 45.3333H34.25C34.4722 45.9722 34.75 46.5694 35.0833 47.125C35.4167 47.6805 35.8056 48.1944 36.25 48.6667H22ZM28.6667 27C28.1944 27 27.7986 26.8403 27.4792 26.5208C27.1597 26.2014 27 25.8056 27 25.3333C27 24.8611 27.1597 24.4653 27.4792 24.1458C27.7986 23.8264 28.1944 23.6667 28.6667 23.6667H40.3333C40.8056 23.6667 41.2014 23.8264 41.5208 24.1458C41.8403 24.4653 42 24.8611 42 25.3333C42 25.8056 41.8403 26.2014 41.5208 26.5208C41.2014 26.8403 40.8056 27 40.3333 27H28.6667ZM28.6667 32C28.1944 32 27.7986 31.8403 27.4792 31.5208C27.1597 31.2014 27 30.8055 27 30.3333C27 29.8611 27.1597 29.4653 27.4792 29.1458C27.7986 28.8264 28.1944 28.6667 28.6667 28.6667H40.3333C40.8056 28.6667 41.2014 28.8264 41.5208 29.1458C41.8403 29.4653 42 29.8611 42 30.3333C42 30.8055 41.8403 31.2014 41.5208 31.5208C41.2014 31.8403 40.8056 32 40.3333 32H28.6667Z" fill="white"/>
</g>
<defs>
<linearGradient id="paint0_linear_646_5349" x1="32.5" y1="0" x2="32.5" y2="65" gradientUnits="userSpaceOnUse">
<stop stop-color="#26D07C" stop-opacity="0.6"/>
<stop offset="1" stop-color="#26D07C" stop-opacity="0.2"/>
</linearGradient>
</defs>
</svg>
