<svg width="65" height="65" viewBox="0 0 65 65" fill="none" xmlns="http://www.w3.org/2000/svg">
<rect width="65" height="65" rx="10" fill="url(#paint0_linear_646_5348)"/>
<mask id="mask0_646_5348" style="mask-type:alpha" maskUnits="userSpaceOnUse" x="12" y="12" width="40" height="40">
<rect x="12" y="12" width="40" height="40" fill="#D9D9D9"/>
</mask>
<g mask="url(#mask0_646_5348)">
<path d="M22 48.6667C21.0833 48.6667 20.2986 48.3403 19.6458 47.6875C18.993 47.0347 18.6667 46.25 18.6667 45.3333V28.6667C18.6667 27.75 18.993 26.9653 19.6458 26.3125C20.2986 25.6597 21.0833 25.3333 22 25.3333H37V22C37 20.6111 36.5139 19.4306 35.5417 18.4583C34.5694 17.4861 33.3889 17 32 17C30.8333 17 29.8125 17.3542 28.9375 18.0625C28.0625 18.7708 27.4722 19.6528 27.1667 20.7083C27.0555 21.0972 26.8264 21.4097 26.4792 21.6458C26.1319 21.8819 25.75 22 25.3333 22C24.8611 22 24.4653 21.8472 24.1458 21.5417C23.8264 21.2361 23.7083 20.875 23.7917 20.4583C24.1805 18.5417 25.1389 16.9306 26.6667 15.625C28.1944 14.3194 29.9722 13.6667 32 13.6667C34.3055 13.6667 36.2708 14.4792 37.8958 16.1042C39.5208 17.7292 40.3333 19.6944 40.3333 22V25.3333H42C42.9167 25.3333 43.7014 25.6597 44.3542 26.3125C45.0069 26.9653 45.3333 27.75 45.3333 28.6667V45.3333C45.3333 46.25 45.0069 47.0347 44.3542 47.6875C43.7014 48.3403 42.9167 48.6667 42 48.6667H22ZM22 45.3333H42V28.6667H22V45.3333ZM32 40.3333C32.9167 40.3333 33.7014 40.0069 34.3542 39.3542C35.0069 38.7014 35.3333 37.9167 35.3333 37C35.3333 36.0833 35.0069 35.2986 34.3542 34.6458C33.7014 33.9931 32.9167 33.6667 32 33.6667C31.0833 33.6667 30.2986 33.9931 29.6458 34.6458C28.993 35.2986 28.6667 36.0833 28.6667 37C28.6667 37.9167 28.993 38.7014 29.6458 39.3542C30.2986 40.0069 31.0833 40.3333 32 40.3333Z" fill="white"/>
</g>
<defs>
<linearGradient id="paint0_linear_646_5348" x1="32.5" y1="0" x2="32.5" y2="65" gradientUnits="userSpaceOnUse">
<stop stop-color="#26D07C" stop-opacity="0.6"/>
<stop offset="1" stop-color="#26D07C" stop-opacity="0.2"/>
</linearGradient>
</defs>
</svg>
