<svg width="65" height="65" viewBox="0 0 65 65" fill="none" xmlns="http://www.w3.org/2000/svg">
<rect width="65" height="65" rx="10" fill="url(#paint0_linear_646_5347)"/>
<path d="M49 42.494C45.5405 47.9532 39.44 51.5814 32.5042 51.5814C25.5684 51.5814 19.4595 47.9532 16 42.494C20.067 46.2403 25.9565 48.5945 32.4958 48.5945C39.035 48.5945 44.9246 46.2403 48.9916 42.494M34.8583 42.7724H30.9179V27.0867H34.8583V42.7724ZM34.8583 24.6482H30.9179V21.4081H34.8583V24.6482ZM19.3076 42.8484V26.4117C19.3076 20.8343 25.1718 19.6362 29.3569 21.2224V24.3444C26.4797 23.1716 23.248 23.4416 23.248 27.0782H27.9225V30.2002H23.248V42.7809L19.3076 42.8399V42.8484ZM37.8706 24.6397H40.7816L41.3807 27.0782H45.0005V30.2002H41.811V37.4651C41.811 38.9164 42.4439 39.6505 43.7011 39.6505H45.7008V42.7724H41.8026C39.1869 42.7724 37.8791 41.3718 37.8791 38.5704V24.6397H37.8706Z" fill="white"/>
<path d="M19.5523 17.8811V16.7758C20.1429 17.012 20.818 17.1301 21.5858 17.1301C22.1596 17.1301 22.4464 16.9445 22.4464 16.5733C22.4464 16.2357 22.2524 16.067 21.8727 16.067H20.9192C19.8476 16.067 19.316 15.527 19.316 14.4554C19.316 13.3838 20.1007 12.8016 21.6617 12.8016C22.3283 12.8016 22.9527 12.9028 23.5349 13.1053V14.2107C22.9443 13.9744 22.3114 13.8563 21.6195 13.8563C20.9276 13.8563 20.5395 14.0419 20.5395 14.4132C20.5395 14.7507 20.7505 14.9195 21.1723 14.9195H22.0246C23.1974 14.9195 23.7796 15.4595 23.7796 16.5311C23.7796 17.6027 23.0286 18.1933 21.5352 18.1933C20.8011 18.1933 20.1429 18.092 19.5523 17.8895M24.7078 18.1427V12.8522H25.7372L25.8975 13.5188C26.505 13.0716 27.1041 12.8522 27.7032 12.8522C28.3697 12.8522 28.8422 13.0885 29.1207 13.5779C29.7957 13.0969 30.4201 12.8522 31.0107 12.8522C32.1245 12.8522 32.6814 13.5188 32.6814 14.8604V18.1342H31.3483V14.8098C31.3483 14.2276 31.1036 13.9322 30.6057 13.9322C30.2092 13.9322 29.7957 14.1601 29.3654 14.6157V18.1342H28.0322V14.8266C28.0322 14.2276 27.7875 13.9322 27.2981 13.9322C26.8763 13.9322 26.4628 14.1601 26.0494 14.6157V18.1342H24.7162L24.7078 18.1427ZM33.6433 16.4973C33.6433 15.4173 34.4027 14.8773 35.9384 14.8773C36.394 14.8773 36.8075 14.911 37.1619 14.9785V14.6326C37.1619 14.1601 36.7062 13.9238 35.7865 13.9238C35.2127 13.9238 34.639 14.0082 34.0652 14.1769V13.1222C34.639 12.9535 35.2043 12.8691 35.7865 12.8691C37.5922 12.8691 38.495 13.4513 38.495 14.6073V18.1511H37.82L37.2462 17.7799C36.7906 18.0245 36.3012 18.1511 35.7781 18.1511C34.3521 18.1511 33.6433 17.6027 33.6433 16.5058M37.1619 15.9911C36.8244 15.9235 36.4193 15.8898 35.9384 15.8898C35.2971 15.8898 34.9765 16.0923 34.9765 16.4889C34.9765 16.8855 35.2465 17.0964 35.7781 17.0964C36.3096 17.0964 36.7822 16.9614 37.1619 16.6829V15.9911ZM39.7944 18.1511V12.8522H40.8238L40.9842 13.5272C41.4482 13.08 41.9376 12.8522 42.4523 12.8522V13.9322C41.9545 13.9322 41.5157 14.1516 41.1192 14.5988V18.1342H39.786L39.7944 18.1511ZM43.2877 12.0169H44.2749L44.4774 12.8691H45.7009V13.9238H44.6208V16.3539C44.6208 16.8433 44.8318 17.0964 45.2621 17.0964H45.7009V18.1511H44.6124C43.7264 18.1511 43.2877 17.6786 43.2877 16.7251V12V12.0169Z" fill="white"/>
<defs>
<linearGradient id="paint0_linear_646_5347" x1="32.5" y1="0" x2="32.5" y2="65" gradientUnits="userSpaceOnUse">
<stop stop-color="#26D07C" stop-opacity="0.6"/>
<stop offset="1" stop-color="#26D07C" stop-opacity="0.2"/>
</linearGradient>
</defs>
</svg>
