<svg width="65" height="65" viewBox="0 0 65 65" fill="none" xmlns="http://www.w3.org/2000/svg">
<rect width="65" height="65" rx="10" fill="url(#paint0_linear_646_5350)"/>
<mask id="mask0_646_5350" style="mask-type:alpha" maskUnits="userSpaceOnUse" x="12" y="12" width="40" height="40">
<rect x="12" y="12" width="40" height="40" fill="#D9D9D9"/>
</mask>
<g mask="url(#mask0_646_5350)">
<path d="M25.5 36.5834C25.8889 37.9167 26.4931 38.9931 27.3125 39.8125C28.132 40.632 29.1945 41.1945 30.5 41.5V42.2084C30.5 42.5972 30.6459 42.9375 30.9375 43.2292C31.2292 43.5209 31.5695 43.6667 31.9584 43.6667C32.3472 43.6667 32.6875 43.5209 32.9792 43.2292C33.2709 42.9375 33.4167 42.5972 33.4167 42.2084V41.5834C34.8056 41.3334 36 40.7917 37 39.9584C38 39.125 38.5 37.8889 38.5 36.25C38.5 35.0834 38.1667 34.0139 37.5 33.0417C36.8334 32.0695 35.5 31.2222 33.5 30.5C31.8334 29.9445 30.6806 29.4584 30.0417 29.0417C29.4028 28.625 29.0834 28.0556 29.0834 27.3334C29.0834 26.6111 29.3403 26.0417 29.8542 25.625C30.3681 25.2084 31.1111 25 32.0834 25C32.9722 25 33.6667 25.2153 34.1667 25.6459C34.6667 26.0764 35.0278 26.6111 35.25 27.25L37.9167 26.1667C37.6111 25.1945 37.0486 24.3472 36.2292 23.625C35.4097 22.9028 34.5 22.5 33.5 22.4167V21.7917C33.5 21.4028 33.3542 21.0625 33.0625 20.7709C32.7709 20.4792 32.4306 20.3334 32.0417 20.3334C31.6528 20.3334 31.3125 20.4792 31.0209 20.7709C30.7292 21.0625 30.5834 21.4028 30.5834 21.7917V22.4167C29.1945 22.7222 28.1111 23.3334 27.3334 24.25C26.5556 25.1667 26.1667 26.1945 26.1667 27.3334C26.1667 28.6389 26.5486 29.6945 27.3125 30.5C28.0764 31.3056 29.2778 32 30.9167 32.5834C32.6667 33.2222 33.882 33.7917 34.5625 34.2917C35.2431 34.7917 35.5834 35.4445 35.5834 36.25C35.5834 37.1667 35.257 37.8403 34.6042 38.2709C33.9514 38.7014 33.1667 38.9167 32.25 38.9167C31.3334 38.9167 30.5209 38.632 29.8125 38.0625C29.1042 37.4931 28.5834 36.6389 28.25 35.5L25.5 36.5834ZM32 48.6667C29.6945 48.6667 27.5278 48.2292 25.5 47.3542C23.4722 46.4792 21.7084 45.2917 20.2084 43.7917C18.7084 42.2917 17.5209 40.5278 16.6459 38.5C15.7709 36.4722 15.3334 34.3056 15.3334 32C15.3334 29.6945 15.7709 27.5278 16.6459 25.5C17.5209 23.4722 18.7084 21.7084 20.2084 20.2084C21.7084 18.7084 23.4722 17.5209 25.5 16.6459C27.5278 15.7709 29.6945 15.3334 32 15.3334C34.3056 15.3334 36.4722 15.7709 38.5 16.6459C40.5278 17.5209 42.2917 18.7084 43.7917 20.2084C45.2917 21.7084 46.4792 23.4722 47.3542 25.5C48.2292 27.5278 48.6667 29.6945 48.6667 32C48.6667 34.3056 48.2292 36.4722 47.3542 38.5C46.4792 40.5278 45.2917 42.2917 43.7917 43.7917C42.2917 45.2917 40.5278 46.4792 38.5 47.3542C36.4722 48.2292 34.3056 48.6667 32 48.6667ZM32 45.3334C35.7222 45.3334 38.875 44.0417 41.4584 41.4584C44.0417 38.875 45.3334 35.7222 45.3334 32C45.3334 28.2778 44.0417 25.125 41.4584 22.5417C38.875 19.9584 35.7222 18.6667 32 18.6667C28.2778 18.6667 25.125 19.9584 22.5417 22.5417C19.9584 25.125 18.6667 28.2778 18.6667 32C18.6667 35.7222 19.9584 38.875 22.5417 41.4584C25.125 44.0417 28.2778 45.3334 32 45.3334Z" fill="white"/>
</g>
<defs>
<linearGradient id="paint0_linear_646_5350" x1="32.5" y1="0" x2="32.5" y2="65" gradientUnits="userSpaceOnUse">
<stop stop-color="#26D07C" stop-opacity="0.6"/>
<stop offset="1" stop-color="#26D07C" stop-opacity="0.2"/>
</linearGradient>
</defs>
</svg>
