<?xml version="1.0" encoding="UTF-8"?>
<!DOCTYPE svg PUBLIC "-//W3C//DTD SVG 1.1//EN" "http://www.w3.org/Graphics/SVG/1.1/DTD/svg11.dtd">
<svg xmlns="http://www.w3.org/2000/svg" version="1.1" width="561px" height="445px" style="shape-rendering:geometricPrecision; text-rendering:geometricPrecision; image-rendering:optimizeQuality; fill-rule:evenodd; clip-rule:evenodd" xmlns:xlink="http://www.w3.org/1999/xlink">
<g><path style="opacity:0.699" fill="#969696" d="M 231.5,118.5 C 263.683,117.676 296.016,118.009 328.5,119.5C 328.5,119.833 328.5,120.167 328.5,120.5C 296.168,119.764 263.835,119.097 231.5,118.5 Z"/></g>
<g><path style="opacity:1" fill="#090909" d="M 231.5,118.5 C 263.835,119.097 296.168,119.764 328.5,120.5C 331.112,121.371 333.779,122.037 336.5,122.5C 338.153,122.66 339.486,123.326 340.5,124.5C 340.973,125.906 341.973,126.573 343.5,126.5C 343.5,127.833 344.167,128.5 345.5,128.5C 346.419,131.089 348.086,133.089 350.5,134.5C 352.008,136.181 353.008,138.181 353.5,140.5C 353.427,142.027 354.094,143.027 355.5,143.5C 357.008,145.181 358.008,147.181 358.5,149.5C 358.427,151.027 359.094,152.027 360.5,152.5C 361.674,153.514 362.34,154.847 362.5,156.5C 362.427,158.027 363.094,159.027 364.5,159.5C 366.341,161.849 367.674,164.515 368.5,167.5C 368.427,169.027 369.094,170.027 370.5,170.5C 371.674,171.514 372.34,172.847 372.5,174.5C 372.427,176.027 373.094,177.027 374.5,177.5C 376.008,179.181 377.008,181.181 377.5,183.5C 377.427,185.027 378.094,186.027 379.5,186.5C 381.341,188.849 382.674,191.515 383.5,194.5C 383.427,196.027 384.094,197.027 385.5,197.5C 387.008,199.181 388.008,201.181 388.5,203.5C 388.427,205.027 389.094,206.027 390.5,206.5C 392.341,208.849 393.674,211.515 394.5,214.5C 395.292,220.13 395.625,225.797 395.5,231.5C 394.699,235.235 393.699,238.901 392.5,242.5C 391.89,244.434 390.89,246.101 389.5,247.5C 388.094,247.973 387.427,248.973 387.5,250.5C 387.672,251.492 387.338,252.158 386.5,252.5C 385.094,252.973 384.427,253.973 384.5,255.5C 384.672,256.492 384.338,257.158 383.5,257.5C 382.094,257.973 381.427,258.973 381.5,260.5C 380.416,263.004 379.083,265.337 377.5,267.5C 376.094,267.973 375.427,268.973 375.5,270.5C 375.672,271.492 375.338,272.158 374.5,272.5C 373.094,272.973 372.427,273.973 372.5,275.5C 372.672,276.492 372.338,277.158 371.5,277.5C 370.094,277.973 369.427,278.973 369.5,280.5C 369.672,281.492 369.338,282.158 368.5,282.5C 367.094,282.973 366.427,283.973 366.5,285.5C 366.573,287.027 365.906,288.027 364.5,288.5C 362.241,289.344 361.241,291.011 361.5,293.5C 361.34,295.153 360.674,296.486 359.5,297.5C 358.094,297.973 357.427,298.973 357.5,300.5C 357.672,301.492 357.338,302.158 356.5,302.5C 355.094,302.973 354.427,303.973 354.5,305.5C 354.672,306.492 354.338,307.158 353.5,307.5C 352.094,307.973 351.427,308.973 351.5,310.5C 349.967,314.704 347.3,318.037 343.5,320.5C 341.973,320.427 340.973,321.094 340.5,322.5C 340.158,323.338 339.492,323.672 338.5,323.5C 336.847,323.66 335.514,324.326 334.5,325.5C 306.525,326.466 278.525,326.8 250.5,326.5C 241.905,325.917 233.239,324.917 224.5,323.5C 222.847,323.34 221.514,322.674 220.5,321.5C 219.089,319.086 217.089,317.419 214.5,316.5C 213.5,316.167 212.833,315.5 212.5,314.5C 212.573,312.973 211.906,311.973 210.5,311.5C 210.25,309.326 209.25,307.659 207.5,306.5C 205.992,304.819 204.992,302.819 204.5,300.5C 204.573,298.973 203.906,297.973 202.5,297.5C 201.326,296.486 200.66,295.153 200.5,293.5C 200.715,291.821 200.048,290.821 198.5,290.5C 196.659,288.151 195.326,285.485 194.5,282.5C 194.573,280.973 193.906,279.973 192.5,279.5C 190.992,277.819 189.992,275.819 189.5,273.5C 189.573,271.973 188.906,270.973 187.5,270.5C 185.992,268.819 184.992,266.819 184.5,264.5C 184.25,262.326 183.25,260.659 181.5,259.5C 180.326,258.486 179.66,257.153 179.5,255.5C 179.573,253.973 178.906,252.973 177.5,252.5C 175.992,250.819 174.992,248.819 174.5,246.5C 174.25,244.326 173.25,242.659 171.5,241.5C 170.5,240.167 169.5,238.833 168.5,237.5C 168.5,236.833 168.5,236.167 168.5,235.5C 167.342,232.011 166.009,228.678 164.5,225.5C 163.256,220.965 163.256,216.298 164.5,211.5C 165.931,210.22 166.598,208.553 166.5,206.5C 166.328,205.508 166.662,204.842 167.5,204.5C 168.338,204.158 168.672,203.492 168.5,202.5C 169.906,202.027 170.573,201.027 170.5,199.5C 170.328,198.508 170.662,197.842 171.5,197.5C 172.906,197.027 173.573,196.027 173.5,194.5C 174.906,194.027 175.573,193.027 175.5,191.5C 175.66,189.847 176.326,188.514 177.5,187.5C 178.906,187.027 179.573,186.027 179.5,184.5C 179.328,183.508 179.662,182.842 180.5,182.5C 181.906,182.027 182.573,181.027 182.5,179.5C 182.328,178.508 182.662,177.842 183.5,177.5C 184.906,177.027 185.573,176.027 185.5,174.5C 185.328,173.508 185.662,172.842 186.5,172.5C 187.906,172.027 188.573,171.027 188.5,169.5C 188.328,168.508 188.662,167.842 189.5,167.5C 190.906,167.027 191.573,166.027 191.5,164.5C 192.906,164.027 193.573,163.027 193.5,161.5C 193.66,159.847 194.326,158.514 195.5,157.5C 196.906,157.027 197.573,156.027 197.5,154.5C 198.906,154.027 199.573,153.027 199.5,151.5C 199.328,150.508 199.662,149.842 200.5,149.5C 201.906,149.027 202.573,148.027 202.5,146.5C 202.328,145.508 202.662,144.842 203.5,144.5C 205.25,143.341 206.25,141.674 206.5,139.5C 206.328,138.508 206.662,137.842 207.5,137.5C 208.906,137.027 209.573,136.027 209.5,134.5C 210.906,134.027 211.573,133.027 211.5,131.5C 214.5,129.167 217.167,126.5 219.5,123.5C 223.576,121.814 227.576,120.147 231.5,118.5 Z M 268.5,140.5 C 270.167,140.5 271.833,140.5 273.5,140.5C 278.5,141.167 283.5,141.833 288.5,142.5C 286.738,143.262 285.738,144.596 285.5,146.5C 284.094,146.973 283.427,147.973 283.5,149.5C 282.463,150.93 281.796,152.597 281.5,154.5C 279.441,159.746 279.108,165.079 280.5,170.5C 280.528,173.916 281.528,176.916 283.5,179.5C 283.66,181.153 284.326,182.486 285.5,183.5C 286.73,185.297 287.396,187.297 287.5,189.5C 286.094,189.973 285.427,190.973 285.5,192.5C 284.662,192.842 284.328,193.508 284.5,194.5C 282.75,195.659 281.75,197.326 281.5,199.5C 279.75,200.659 278.75,202.326 278.5,204.5C 277.662,204.842 277.328,205.508 277.5,206.5C 276.094,206.973 275.427,207.973 275.5,209.5C 274.662,209.842 274.328,210.508 274.5,211.5C 273.094,211.973 272.427,212.973 272.5,214.5C 270.75,215.659 269.75,217.326 269.5,219.5C 267.75,220.659 266.75,222.326 266.5,224.5C 265.094,224.973 264.427,225.973 264.5,227.5C 263.662,227.842 263.328,228.508 263.5,229.5C 261.75,230.659 260.75,232.326 260.5,234.5C 259.662,234.842 259.328,235.508 259.5,236.5C 258.094,236.973 257.427,237.973 257.5,239.5C 256.094,239.973 255.427,240.973 255.5,242.5C 254.607,244.297 253.274,245.63 251.5,246.5C 243.822,244.657 236.488,245.657 229.5,249.5C 227.973,249.427 226.973,250.094 226.5,251.5C 224.251,252.08 222.585,253.413 221.5,255.5C 220.5,255.833 219.833,256.5 219.5,257.5C 217.413,258.585 216.08,260.251 215.5,262.5C 214.326,263.514 213.66,264.847 213.5,266.5C 213.167,266.5 212.833,266.5 212.5,266.5C 212.167,265.167 211.833,265.167 211.5,266.5C 210.5,265.167 209.5,263.833 208.5,262.5C 208.573,260.973 207.906,259.973 206.5,259.5C 206.008,257.181 205.008,255.181 203.5,253.5C 203.573,251.973 202.906,250.973 201.5,250.5C 201.008,248.181 200.008,246.181 198.5,244.5C 198.573,242.973 197.906,241.973 196.5,241.5C 196.008,239.181 195.008,237.181 193.5,235.5C 193.573,233.973 192.906,232.973 191.5,232.5C 189.411,228.156 187.744,223.656 186.5,219C 187.153,215.202 188.486,211.702 190.5,208.5C 191.906,208.027 192.573,207.027 192.5,205.5C 193.338,205.158 193.672,204.492 193.5,203.5C 194.906,203.027 195.573,202.027 195.5,200.5C 196.338,200.158 196.672,199.492 196.5,198.5C 197.906,198.027 198.573,197.027 198.5,195.5C 199.338,195.158 199.672,194.492 199.5,193.5C 200.906,193.027 201.573,192.027 201.5,190.5C 204,187.506 206,184.173 207.5,180.5C 209.25,179.341 210.25,177.674 210.5,175.5C 211.338,175.158 211.672,174.492 211.5,173.5C 212.906,173.027 213.573,172.027 213.5,170.5C 216,167.506 218,164.173 219.5,160.5C 221.25,159.341 222.25,157.674 222.5,155.5C 223.338,155.158 223.672,154.492 223.5,153.5C 224.906,153.027 225.573,152.027 225.5,150.5C 226.89,149.101 227.89,147.434 228.5,145.5C 229.906,145.027 230.573,144.027 230.5,142.5C 231.922,142.291 233.255,141.791 234.5,141C 245.828,140.5 257.162,140.333 268.5,140.5 Z M 314.5,141.5 C 316.435,142.15 318.435,142.483 320.5,142.5C 321.234,143.708 321.567,145.041 321.5,146.5C 319.833,147.5 318.5,148.833 317.5,150.5C 315.847,150.66 314.514,151.326 313.5,152.5C 308.225,154.352 302.892,154.685 297.5,153.5C 299.031,152.075 298.698,151.409 296.5,151.5C 296.5,151.167 296.5,150.833 296.5,150.5C 297.906,150.027 298.573,149.027 298.5,147.5C 301.004,146.416 303.337,145.083 305.5,143.5C 308.689,143.142 311.689,142.475 314.5,141.5 Z M 347.5,178.5 C 348.609,178.557 349.609,178.89 350.5,179.5C 350.992,181.819 351.992,183.819 353.5,185.5C 353.75,187.674 354.75,189.341 356.5,190.5C 356.992,192.819 357.992,194.819 359.5,196.5C 359.932,197.71 360.599,198.71 361.5,199.5C 361.66,201.153 362.326,202.486 363.5,203.5C 363.75,205.674 364.75,207.341 366.5,208.5C 366.992,210.819 367.992,212.819 369.5,214.5C 369.427,216.027 370.094,217.027 371.5,217.5C 371.66,219.153 372.326,220.486 373.5,221.5C 374.833,224.833 374.833,228.167 373.5,231.5C 372.094,231.973 371.427,232.973 371.5,234.5C 370.662,234.842 370.328,235.508 370.5,236.5C 369.094,236.973 368.427,237.973 368.5,239.5C 367.662,239.842 367.328,240.508 367.5,241.5C 366.094,241.973 365.427,242.973 365.5,244.5C 364.662,244.842 364.328,245.508 364.5,246.5C 363.094,246.973 362.427,247.973 362.5,249.5C 361.662,249.842 361.328,250.508 361.5,251.5C 360.094,251.973 359.427,252.973 359.5,254.5C 358.662,254.842 358.328,255.508 358.5,256.5C 357.094,256.973 356.427,257.973 356.5,259.5C 355.662,259.842 355.328,260.508 355.5,261.5C 354.094,261.973 353.427,262.973 353.5,264.5C 352.662,264.842 352.328,265.508 352.5,266.5C 351.094,266.973 350.427,267.973 350.5,269.5C 349.662,269.842 349.328,270.508 349.5,271.5C 348.094,271.973 347.427,272.973 347.5,274.5C 346.662,274.842 346.328,275.508 346.5,276.5C 345.094,276.973 344.427,277.973 344.5,279.5C 343.662,279.842 343.328,280.508 343.5,281.5C 342.094,281.973 341.427,282.973 341.5,284.5C 340.662,284.842 340.328,285.508 340.5,286.5C 339.094,286.973 338.427,287.973 338.5,289.5C 337.662,289.842 337.328,290.508 337.5,291.5C 336.094,291.973 335.427,292.973 335.5,294.5C 334.662,294.842 334.328,295.508 334.5,296.5C 333.094,296.973 332.427,297.973 332.5,299.5C 331.512,300.795 330.512,302.128 329.5,303.5C 327.847,303.66 326.514,304.326 325.5,305.5C 307.654,305.422 289.987,304.756 272.5,303.5C 273.167,303.167 273.833,302.833 274.5,302.5C 274.5,301.833 274.5,301.167 274.5,300.5C 277.707,297.232 279.373,293.232 279.5,288.5C 280.65,283.684 280.816,278.684 280,273.5C 279.61,270.896 278.776,268.562 277.5,266.5C 277.573,264.973 276.906,263.973 275.5,263.5C 275.672,262.508 275.338,261.842 274.5,261.5C 274.489,259.983 273.823,258.816 272.5,258C 273.252,257.329 273.586,256.496 273.5,255.5C 276.89,250.767 279.89,245.767 282.5,240.5C 283.906,240.027 284.573,239.027 284.5,237.5C 286.083,235.337 287.416,233.004 288.5,230.5C 289.906,230.027 290.573,229.027 290.5,227.5C 291.338,227.158 291.672,226.492 291.5,225.5C 292.906,225.027 293.573,224.027 293.5,222.5C 294.338,222.158 294.672,221.492 294.5,220.5C 295.906,220.027 296.573,219.027 296.5,217.5C 297.338,217.158 297.672,216.492 297.5,215.5C 298.906,215.027 299.573,214.027 299.5,212.5C 300.338,212.158 300.672,211.492 300.5,210.5C 301.906,210.027 302.573,209.027 302.5,207.5C 304.083,205.337 305.416,203.004 306.5,200.5C 310.828,200.273 315.161,199.94 319.5,199.5C 322.495,199.706 325.162,199.04 327.5,197.5C 331.505,196.502 334.839,194.502 337.5,191.5C 340.167,190.833 341.833,189.167 342.5,186.5C 343.167,186.5 343.5,186.167 343.5,185.5C 344.906,185.027 345.573,184.027 345.5,182.5C 346.674,181.486 347.34,180.153 347.5,178.5 Z M 251.5,260.5 C 251.672,261.492 251.338,262.158 250.5,262.5C 250.5,263.167 250.5,263.833 250.5,264.5C 249.5,264.833 248.833,265.5 248.5,266.5C 246.973,266.427 245.973,267.094 245.5,268.5C 242.341,269.331 239.341,270.331 236.5,271.5C 236.167,271.5 235.833,271.5 235.5,271.5C 232.68,271.752 230.014,271.252 227.5,270C 226.587,268.586 226.587,267.086 227.5,265.5C 228.872,264.488 230.205,263.488 231.5,262.5C 233.153,262.34 234.486,261.674 235.5,260.5C 240.847,259.225 246.18,259.225 251.5,260.5 Z"/></g>
<g><path style="opacity:0.255" fill="#b1b1b1" d="M 231.5,118.5 C 227.576,120.147 223.576,121.814 219.5,123.5C 222.768,120.293 226.768,118.627 231.5,118.5 Z"/></g>
<g><path style="opacity:0.392" fill="#b1b1b1" d="M 328.5,120.5 C 328.5,120.167 328.5,119.833 328.5,119.5C 331.542,119.733 334.208,120.733 336.5,122.5C 333.779,122.037 331.112,121.371 328.5,120.5 Z"/></g>
<g><path style="opacity:0.004" fill="#dadada" d="M 340.5,124.5 C 342.027,124.427 343.027,125.094 343.5,126.5C 341.973,126.573 340.973,125.906 340.5,124.5 Z"/></g>
<g><path style="opacity:0.631" fill="#9e9e9e" d="M 219.5,123.5 C 217.167,126.5 214.5,129.167 211.5,131.5C 213.167,127.833 215.833,125.167 219.5,123.5 Z"/></g>
<g><path style="opacity:0.694" fill="#959595" d="M 343.5,126.5 C 344.5,126.833 345.167,127.5 345.5,128.5C 344.167,128.5 343.5,127.833 343.5,126.5 Z"/></g>
<g><path style="opacity:0.31" fill="#b4b4b4" d="M 211.5,131.5 C 211.573,133.027 210.906,134.027 209.5,134.5C 209.427,132.973 210.094,131.973 211.5,131.5 Z"/></g>
<g><path style="opacity:0.227" fill="#b0b0b0" d="M 345.5,128.5 C 347.914,129.911 349.581,131.911 350.5,134.5C 348.086,133.089 346.419,131.089 345.5,128.5 Z"/></g>
<g><path style="opacity:0.467" fill="#c2c2c2" d="M 209.5,134.5 C 209.573,136.027 208.906,137.027 207.5,137.5C 206.509,135.877 207.176,134.877 209.5,134.5 Z"/></g>
<g><path style="opacity:0.141" fill="#bdbdbd" d="M 268.5,139.5 C 268.5,139.833 268.5,140.167 268.5,140.5C 257.162,140.333 245.828,140.5 234.5,141C 233.255,141.791 231.922,142.291 230.5,142.5C 231.058,141.21 232.058,140.377 233.5,140C 245.162,139.5 256.829,139.333 268.5,139.5 Z"/></g>
<g><path style="opacity:0.816" fill="#404040" d="M 268.5,140.5 C 268.5,140.167 268.5,139.833 268.5,139.5C 275.863,139.169 283.197,139.503 290.5,140.5C 290.376,141.107 290.043,141.44 289.5,141.5C 284.36,140.512 279.026,140.179 273.5,140.5C 271.833,140.5 270.167,140.5 268.5,140.5 Z"/></g>
<g><path style="opacity:0.096" fill="#f1f1f1" d="M 273.5,140.5 C 279.026,140.179 284.36,140.512 289.5,141.5C 289.5,142.167 289.167,142.5 288.5,142.5C 283.5,141.833 278.5,141.167 273.5,140.5 Z"/></g>
<g><path style="opacity:0.212" fill="#bfbfbf" d="M 206.5,139.5 C 206.25,141.674 205.25,143.341 203.5,144.5C 203.75,142.326 204.75,140.659 206.5,139.5 Z"/></g>
<g><path style="opacity:0.192" fill="#c0c0c0" d="M 314.5,141.5 C 311.689,142.475 308.689,143.142 305.5,143.5C 308.123,141.735 311.123,141.068 314.5,141.5 Z"/></g>
<g><path style="opacity:0.267" fill="#b9b9b9" d="M 353.5,140.5 C 354.906,140.973 355.573,141.973 355.5,143.5C 354.094,143.027 353.427,142.027 353.5,140.5 Z"/></g>
<g><path style="opacity:0.012" fill="#cfcfcf" d="M 230.5,142.5 C 230.573,144.027 229.906,145.027 228.5,145.5C 228.427,143.973 229.094,142.973 230.5,142.5 Z"/></g>
<g><path style="opacity:0.702" fill="#737373" d="M 288.5,142.5 C 288.262,144.404 287.262,145.738 285.5,146.5C 285.738,144.596 286.738,143.262 288.5,142.5 Z"/></g>
<g><path style="opacity:0.247" fill="#9e9e9e" d="M 320.5,142.5 C 321.586,142.62 322.253,143.287 322.5,144.5C 322.457,145.416 322.124,146.083 321.5,146.5C 321.567,145.041 321.234,143.708 320.5,142.5 Z"/></g>
<g><path style="opacity:0.648" fill="#8f8f8f" d="M 262.5,147.5 C 262.5,147.833 262.5,148.167 262.5,148.5C 254.16,148.334 245.827,148.5 237.5,149C 235.963,150.707 234.296,152.207 232.5,153.5C 233.684,150.151 236.017,147.985 239.5,147C 247.246,146.202 254.913,146.369 262.5,147.5 Z"/></g>
<g><path style="opacity:0.439" fill="#a2a2a2" d="M 262.5,148.5 C 262.5,148.167 262.5,147.833 262.5,147.5C 265.85,147.335 269.183,147.502 272.5,148C 274.646,150.357 274.979,152.857 273.5,155.5C 273.896,152.956 273.229,150.789 271.5,149C 268.518,148.502 265.518,148.335 262.5,148.5 Z"/></g>
<g><path style="opacity:0.345" fill="#acacac" d="M 202.5,146.5 C 202.573,148.027 201.906,149.027 200.5,149.5C 200.427,147.973 201.094,146.973 202.5,146.5 Z"/></g>
<g><path style="opacity:1" fill="#181818" d="M 262.5,148.5 C 265.518,148.335 268.518,148.502 271.5,149C 273.229,150.789 273.896,152.956 273.5,155.5C 273.5,156.167 273.167,156.5 272.5,156.5C 262.828,156.334 253.161,156.5 243.5,157C 242.058,157.377 241.058,158.21 240.5,159.5C 240.672,160.492 240.338,161.158 239.5,161.5C 238.094,161.973 237.427,162.973 237.5,164.5C 237.672,165.492 237.338,166.158 236.5,166.5C 235.094,166.973 234.427,167.973 234.5,169.5C 225.89,184.767 216.89,199.767 207.5,214.5C 206.883,214.611 206.383,214.944 206,215.5C 205.199,218.367 205.366,221.034 206.5,223.5C 208.341,225.849 209.674,228.515 210.5,231.5C 210.427,233.027 211.094,234.027 212.5,234.5C 214.008,236.181 215.008,238.181 215.5,240.5C 215.427,242.027 216.094,243.027 217.5,243.5C 218.833,245.167 218.833,246.833 217.5,248.5C 216.5,248.833 215.833,249.5 215.5,250.5C 213.435,250.483 211.435,250.15 209.5,249.5C 208.662,249.158 208.328,248.492 208.5,247.5C 208.573,245.973 207.906,244.973 206.5,244.5C 204.992,242.819 203.992,240.819 203.5,238.5C 203.25,236.326 202.25,234.659 200.5,233.5C 199.833,232.833 199.167,232.167 198.5,231.5C 198.5,230.833 198.5,230.167 198.5,229.5C 198.573,227.973 197.906,226.973 196.5,226.5C 195.662,226.158 195.328,225.492 195.5,224.5C 195.5,221.5 195.5,218.5 195.5,215.5C 195.328,214.508 195.662,213.842 196.5,213.5C 197.906,213.027 198.573,212.027 198.5,210.5C 198.66,208.847 199.326,207.514 200.5,206.5C 201.906,206.027 202.573,205.027 202.5,203.5C 202.328,202.508 202.662,201.842 203.5,201.5C 204.906,201.027 205.573,200.027 205.5,198.5C 205.328,197.508 205.662,196.842 206.5,196.5C 207.906,196.027 208.573,195.027 208.5,193.5C 208.328,192.508 208.662,191.842 209.5,191.5C 210.906,191.027 211.573,190.027 211.5,188.5C 211.328,187.508 211.662,186.842 212.5,186.5C 213.906,186.027 214.573,185.027 214.5,183.5C 215.906,183.027 216.573,182.027 216.5,180.5C 216.66,178.847 217.326,177.514 218.5,176.5C 219.906,176.027 220.573,175.027 220.5,173.5C 220.328,172.508 220.662,171.842 221.5,171.5C 222.906,171.027 223.573,170.027 223.5,168.5C 224.906,168.027 225.573,167.027 225.5,165.5C 225.66,163.847 226.326,162.514 227.5,161.5C 228.906,161.027 229.573,160.027 229.5,158.5C 229.328,157.508 229.662,156.842 230.5,156.5C 231.906,156.027 232.573,155.027 232.5,153.5C 234.296,152.207 235.963,150.707 237.5,149C 245.827,148.5 254.16,148.334 262.5,148.5 Z"/></g>
<g><path style="opacity:0.259" fill="#b6b6b6" d="M 285.5,146.5 C 285.573,148.027 284.906,149.027 283.5,149.5C 283.427,147.973 284.094,146.973 285.5,146.5 Z"/></g>
<g><path style="opacity:0.004" fill="#d2d2d2" d="M 298.5,147.5 C 298.573,149.027 297.906,150.027 296.5,150.5C 296.427,148.973 297.094,147.973 298.5,147.5 Z"/></g>
<g><path style="opacity:0.557" fill="#9b9b9b" d="M 321.5,146.5 C 321.167,148.833 319.833,150.167 317.5,150.5C 318.5,148.833 319.833,147.5 321.5,146.5 Z"/></g>
<g><path style="opacity:0.008" fill="#f3f3f3" d="M 296.5,151.5 C 298.698,151.409 299.031,152.075 297.5,153.5C 296.662,153.158 296.328,152.492 296.5,151.5 Z"/></g>
<g><path style="opacity:0.263" fill="#b9b9b9" d="M 358.5,149.5 C 359.906,149.973 360.573,150.973 360.5,152.5C 359.094,152.027 358.427,151.027 358.5,149.5 Z"/></g>
<g><path style="opacity:0.188" fill="#bdbdbd" d="M 225.5,150.5 C 225.573,152.027 224.906,153.027 223.5,153.5C 223.427,151.973 224.094,150.973 225.5,150.5 Z"/></g>
<g><path style="opacity:0.796" fill="#8b8b8b" d="M 283.5,149.5 C 283.88,151.698 283.213,153.365 281.5,154.5C 281.796,152.597 282.463,150.93 283.5,149.5 Z"/></g>
<g><path style="opacity:0.333" fill="#afafaf" d="M 199.5,151.5 C 199.573,153.027 198.906,154.027 197.5,154.5C 197.427,152.973 198.094,151.973 199.5,151.5 Z"/></g>
<g><path style="opacity:0.376" fill="#939393" d="M 313.5,152.5 C 308.96,155.296 303.96,156.129 298.5,155C 297.944,154.617 297.611,154.117 297.5,153.5C 302.892,154.685 308.225,154.352 313.5,152.5 Z"/></g>
<g><path style="opacity:0.22" fill="#c5c5c5" d="M 232.5,153.5 C 232.573,155.027 231.906,156.027 230.5,156.5C 230.427,154.973 231.094,153.973 232.5,153.5 Z"/></g>
<g><path style="opacity:0.192" fill="#cbcbcb" d="M 197.5,154.5 C 197.573,156.027 196.906,157.027 195.5,157.5C 195.427,155.973 196.094,154.973 197.5,154.5 Z"/></g>
<g><path style="opacity:0.48" fill="#939393" d="M 272.5,156.5 C 271.469,157.249 270.302,157.915 269,158.5C 259.419,156.934 249.919,157.267 240.5,159.5C 241.058,158.21 242.058,157.377 243.5,157C 253.161,156.5 262.828,156.334 272.5,156.5 Z"/></g>
<g><path style="opacity:0.18" fill="#c6c6c6" d="M 222.5,155.5 C 222.25,157.674 221.25,159.341 219.5,160.5C 219.75,158.326 220.75,156.659 222.5,155.5 Z"/></g>
<g><path style="opacity:0.192" fill="#c9c9c9" d="M 362.5,156.5 C 363.906,156.973 364.573,157.973 364.5,159.5C 363.094,159.027 362.427,158.027 362.5,156.5 Z"/></g>
<g><path style="opacity:0.184" fill="#cbcbcb" d="M 229.5,158.5 C 229.573,160.027 228.906,161.027 227.5,161.5C 227.427,159.973 228.094,158.973 229.5,158.5 Z"/></g>
<g><path style="opacity:0.008" fill="#d9d9d9" d="M 239.5,161.5 C 239.573,163.027 238.906,164.027 237.5,164.5C 237.427,162.973 238.094,161.973 239.5,161.5 Z"/></g>
<g><path style="opacity:0.325" fill="#adadad" d="M 193.5,161.5 C 193.573,163.027 192.906,164.027 191.5,164.5C 191.427,162.973 192.094,161.973 193.5,161.5 Z"/></g>
<g><path style="opacity:0.22" fill="#cccccc" d="M 191.5,164.5 C 191.573,166.027 190.906,167.027 189.5,167.5C 189.427,165.973 190.094,164.973 191.5,164.5 Z"/></g>
<g><path style="opacity:0.353" fill="#a7a7a7" d="M 225.5,165.5 C 225.573,167.027 224.906,168.027 223.5,168.5C 223.427,166.973 224.094,165.973 225.5,165.5 Z"/></g>
<g><path style="opacity:0.106" fill="#d7d7d7" d="M 236.5,166.5 C 236.573,168.027 235.906,169.027 234.5,169.5C 234.427,167.973 235.094,166.973 236.5,166.5 Z"/></g>
<g><path style="opacity:0.247" fill="#bababa" d="M 368.5,167.5 C 369.906,167.973 370.573,168.973 370.5,170.5C 369.094,170.027 368.427,169.027 368.5,167.5 Z"/></g>
<g><path style="opacity:0.224" fill="#c6c6c6" d="M 223.5,168.5 C 223.573,170.027 222.906,171.027 221.5,171.5C 221.427,169.973 222.094,168.973 223.5,168.5 Z"/></g>
<g><path style="opacity:0.212" fill="#cacaca" d="M 188.5,169.5 C 188.573,171.027 187.906,172.027 186.5,172.5C 186.427,170.973 187.094,169.973 188.5,169.5 Z"/></g>
<g><path style="opacity:0.196" fill="#bfbfbf" d="M 213.5,170.5 C 213.573,172.027 212.906,173.027 211.5,173.5C 211.427,171.973 212.094,170.973 213.5,170.5 Z"/></g>
<g><path style="opacity:0.004" fill="#c7c7c7" d="M 280.5,170.5 C 282.072,173.215 283.072,176.215 283.5,179.5C 281.528,176.916 280.528,173.916 280.5,170.5 Z"/></g>
<g><path style="opacity:0.247" fill="#c2c2c2" d="M 220.5,173.5 C 220.573,175.027 219.906,176.027 218.5,176.5C 218.427,174.973 219.094,173.973 220.5,173.5 Z"/></g>
<g><path style="opacity:0.2" fill="#cbcbcb" d="M 185.5,174.5 C 185.573,176.027 184.906,177.027 183.5,177.5C 183.427,175.973 184.094,174.973 185.5,174.5 Z"/></g>
<g><path style="opacity:0.188" fill="#c8c8c8" d="M 372.5,174.5 C 373.906,174.973 374.573,175.973 374.5,177.5C 373.094,177.027 372.427,176.027 372.5,174.5 Z"/></g>
<g><path style="opacity:0.184" fill="#c7c7c7" d="M 210.5,175.5 C 210.25,177.674 209.25,179.341 207.5,180.5C 207.75,178.326 208.75,176.659 210.5,175.5 Z"/></g>
<g><path style="opacity:0.029" fill="#dbdbdb" d="M 350.5,179.5 C 349.609,178.89 348.609,178.557 347.5,178.5C 348.86,175.985 349.86,176.318 350.5,179.5 Z"/></g>
<g><path style="opacity:0.212" fill="#c4c4c4" d="M 182.5,179.5 C 182.573,181.027 181.906,182.027 180.5,182.5C 180.427,180.973 181.094,179.973 182.5,179.5 Z"/></g>
<g><path style="opacity:0.38" fill="#a7a7a7" d="M 216.5,180.5 C 216.573,182.027 215.906,183.027 214.5,183.5C 214.427,181.973 215.094,180.973 216.5,180.5 Z"/></g>
<g><path style="opacity:0.125" fill="#c4c4c4" d="M 345.5,182.5 C 345.573,184.027 344.906,185.027 343.5,185.5C 343.427,183.973 344.094,182.973 345.5,182.5 Z"/></g>
<g><path style="opacity:0.22" fill="#c4c4c4" d="M 214.5,183.5 C 214.573,185.027 213.906,186.027 212.5,186.5C 212.427,184.973 213.094,183.973 214.5,183.5 Z"/></g>
<g><path style="opacity:0.588" fill="#929292" d="M 285.5,183.5 C 287.257,184.292 288.591,185.625 289.5,187.5C 289.145,188.522 288.478,189.189 287.5,189.5C 287.396,187.297 286.73,185.297 285.5,183.5 Z"/></g>
<g><path style="opacity:0.196" fill="#c9c9c9" d="M 377.5,183.5 C 378.906,183.973 379.573,184.973 379.5,186.5C 378.094,186.027 377.427,185.027 377.5,183.5 Z"/></g>
<g><path style="opacity:0.208" fill="#c8c8c8" d="M 179.5,184.5 C 179.573,186.027 178.906,187.027 177.5,187.5C 177.427,185.973 178.094,184.973 179.5,184.5 Z"/></g>
<g><path style="opacity:0.196" fill="#c1c1c1" d="M 353.5,185.5 C 355.25,186.659 356.25,188.326 356.5,190.5C 354.75,189.341 353.75,187.674 353.5,185.5 Z"/></g>
<g><path style="opacity:0.031" fill="#d2d2d2" d="M 342.5,186.5 C 341.833,189.167 340.167,190.833 337.5,191.5C 338.833,189.5 340.5,187.833 342.5,186.5 Z"/></g>
<g><path style="opacity:0.529" fill="#bbbbbb" d="M 211.5,188.5 C 211.573,190.027 210.906,191.027 209.5,191.5C 208.509,189.877 209.176,188.877 211.5,188.5 Z"/></g>
<g><path style="opacity:0.165" fill="#d8d8d8" d="M 287.5,189.5 C 287.573,191.027 286.906,192.027 285.5,192.5C 285.427,190.973 286.094,189.973 287.5,189.5 Z"/></g>
<g><path style="opacity:0.157" fill="#bfbfbf" d="M 201.5,190.5 C 201.573,192.027 200.906,193.027 199.5,193.5C 199.427,191.973 200.094,190.973 201.5,190.5 Z"/></g>
<g><path style="opacity:0.345" fill="#ababab" d="M 175.5,191.5 C 175.573,193.027 174.906,194.027 173.5,194.5C 173.427,192.973 174.094,191.973 175.5,191.5 Z"/></g>
<g><path style="opacity:0.533" fill="#9b9b9b" d="M 352.5,198.5 C 346.797,193.678 343.797,195.011 343.5,202.5C 340.845,199.858 341.178,197.358 344.5,195C 348.506,193.579 351.172,194.746 352.5,198.5 Z"/></g>
<g><path style="opacity:0.212" fill="#c3c3c3" d="M 208.5,193.5 C 208.573,195.027 207.906,196.027 206.5,196.5C 206.427,194.973 207.094,193.973 208.5,193.5 Z"/></g>
<g><path style="opacity:1" fill="#171717" d="M 352.5,198.5 C 353.674,199.514 354.34,200.847 354.5,202.5C 354.427,204.027 355.094,205.027 356.5,205.5C 358.008,207.181 359.008,209.181 359.5,211.5C 359.427,213.027 360.094,214.027 361.5,214.5C 368.366,222.781 368.033,230.781 360.5,238.5C 359.094,238.973 358.427,239.973 358.5,241.5C 358.672,242.492 358.338,243.158 357.5,243.5C 356.094,243.973 355.427,244.973 355.5,246.5C 355.672,247.492 355.338,248.158 354.5,248.5C 353.094,248.973 352.427,249.973 352.5,251.5C 351.921,254.331 350.588,256.664 348.5,258.5C 347.094,258.973 346.427,259.973 346.5,261.5C 346.672,262.492 346.338,263.158 345.5,263.5C 344.094,263.973 343.427,264.973 343.5,266.5C 343.672,267.492 343.338,268.158 342.5,268.5C 341.094,268.973 340.427,269.973 340.5,271.5C 340.672,272.492 340.338,273.158 339.5,273.5C 338.094,273.973 337.427,274.973 337.5,276.5C 337.672,277.492 337.338,278.158 336.5,278.5C 335.094,278.973 334.427,279.973 334.5,281.5C 334.672,282.492 334.338,283.158 333.5,283.5C 332.094,283.973 331.427,284.973 331.5,286.5C 331.672,287.492 331.338,288.158 330.5,288.5C 329.094,288.973 328.427,289.973 328.5,291.5C 328.573,293.027 327.906,294.027 326.5,294.5C 325.5,294.833 324.833,295.5 324.5,296.5C 312.884,297.458 301.217,297.791 289.5,297.5C 286.833,294.5 286.833,291.5 289.5,288.5C 298.337,289.286 307.003,289.286 315.5,288.5C 315.842,287.662 316.508,287.328 317.5,287.5C 320.702,287.463 322.368,285.797 322.5,282.5C 322.328,281.508 322.662,280.842 323.5,280.5C 324.906,280.027 325.573,279.027 325.5,277.5C 325.66,275.847 326.326,274.514 327.5,273.5C 328.906,273.027 329.573,272.027 329.5,270.5C 330.906,270.027 331.573,269.027 331.5,267.5C 331.328,266.508 331.662,265.842 332.5,265.5C 333.906,265.027 334.573,264.027 334.5,262.5C 334.328,261.508 334.662,260.842 335.5,260.5C 336.906,260.027 337.573,259.027 337.5,257.5C 337.328,256.508 337.662,255.842 338.5,255.5C 339.906,255.027 340.573,254.027 340.5,252.5C 340.328,251.508 340.662,250.842 341.5,250.5C 342.906,250.027 343.573,249.027 343.5,247.5C 343.328,246.508 343.662,245.842 344.5,245.5C 345.906,245.027 346.573,244.027 346.5,242.5C 346.328,241.508 346.662,240.842 347.5,240.5C 348.906,240.027 349.573,239.027 349.5,237.5C 349.328,236.508 349.662,235.842 350.5,235.5C 351.906,235.027 352.573,234.027 352.5,232.5C 353.447,230.266 354.114,227.932 354.5,225.5C 354.114,223.068 353.447,220.734 352.5,218.5C 352.25,216.326 351.25,214.659 349.5,213.5C 348.326,212.486 347.66,211.153 347.5,209.5C 347.25,207.326 346.25,205.659 344.5,204.5C 343.662,204.158 343.328,203.492 343.5,202.5C 343.797,195.011 346.797,193.678 352.5,198.5 Z"/></g>
<g><path style="opacity:0.224" fill="#cccccc" d="M 173.5,194.5 C 173.573,196.027 172.906,197.027 171.5,197.5C 171.427,195.973 172.094,194.973 173.5,194.5 Z"/></g>
<g><path style="opacity:0.188" fill="#cbcbcb" d="M 284.5,194.5 C 284.25,196.674 283.25,198.341 281.5,199.5C 281.75,197.326 282.75,195.659 284.5,194.5 Z"/></g>
<g><path style="opacity:0.867" fill="#797979" d="M 359.5,196.5 C 361.048,196.821 361.715,197.821 361.5,199.5C 360.599,198.71 359.932,197.71 359.5,196.5 Z"/></g>
<g><path style="opacity:0.243" fill="#b7b7b7" d="M 383.5,194.5 C 384.906,194.973 385.573,195.973 385.5,197.5C 384.094,197.027 383.427,196.027 383.5,194.5 Z"/></g>
<g><path style="opacity:0.18" fill="#bdbdbd" d="M 198.5,195.5 C 198.573,197.027 197.906,198.027 196.5,198.5C 196.427,196.973 197.094,195.973 198.5,195.5 Z"/></g>
<g><path style="opacity:0.722" fill="#888888" d="M 319.5,198.5 C 319.5,198.833 319.5,199.167 319.5,199.5C 315.161,199.94 310.828,200.273 306.5,200.5C 310.373,198.57 314.706,197.903 319.5,198.5 Z"/></g>
<g><path style="opacity:0.133" fill="#bebebe" d="M 327.5,197.5 C 325.162,199.04 322.495,199.706 319.5,199.5C 319.5,199.167 319.5,198.833 319.5,198.5C 322.167,198.167 324.833,197.833 327.5,197.5 Z"/></g>
<g><path style="opacity:0.243" fill="#c0c0c0" d="M 205.5,198.5 C 205.573,200.027 204.906,201.027 203.5,201.5C 203.427,199.973 204.094,198.973 205.5,198.5 Z"/></g>
<g><path style="opacity:0.22" fill="#c5c5c5" d="M 170.5,199.5 C 170.573,201.027 169.906,202.027 168.5,202.5C 168.427,200.973 169.094,199.973 170.5,199.5 Z"/></g>
<g><path style="opacity:0.18" fill="#c9c9c9" d="M 281.5,199.5 C 281.25,201.674 280.25,203.341 278.5,204.5C 278.75,202.326 279.75,200.659 281.5,199.5 Z"/></g>
<g><path style="opacity:0.018" fill="#e9e9e9" d="M 168.5,202.5 C 168.672,203.492 168.338,204.158 167.5,204.5C 165.969,203.075 166.302,202.409 168.5,202.5 Z"/></g>
<g><path style="opacity:0.176" fill="#c4c4c4" d="M 195.5,200.5 C 195.573,202.027 194.906,203.027 193.5,203.5C 193.427,201.973 194.094,200.973 195.5,200.5 Z"/></g>
<g><path style="opacity:0.22" fill="#c0c0c0" d="M 354.5,202.5 C 355.906,202.973 356.573,203.973 356.5,205.5C 355.094,205.027 354.427,204.027 354.5,202.5 Z"/></g>
<g><path style="opacity:0.255" fill="#c1c1c1" d="M 202.5,203.5 C 202.573,205.027 201.906,206.027 200.5,206.5C 200.427,204.973 201.094,203.973 202.5,203.5 Z"/></g>
<g><path style="opacity:0.212" fill="#c3c3c3" d="M 363.5,203.5 C 365.25,204.659 366.25,206.326 366.5,208.5C 364.75,207.341 363.75,205.674 363.5,203.5 Z"/></g>
<g><path style="opacity:0.271" fill="#bbbbbb" d="M 388.5,203.5 C 389.906,203.973 390.573,204.973 390.5,206.5C 389.094,206.027 388.427,205.027 388.5,203.5 Z"/></g>
<g><path style="opacity:0.169" fill="#c5c5c5" d="M 344.5,204.5 C 346.25,205.659 347.25,207.326 347.5,209.5C 345.75,208.341 344.75,206.674 344.5,204.5 Z"/></g>
<g><path style="opacity:0.169" fill="#c0c0c0" d="M 192.5,205.5 C 192.573,207.027 191.906,208.027 190.5,208.5C 190.427,206.973 191.094,205.973 192.5,205.5 Z"/></g>
<g><path style="opacity:0.024" fill="#e2e2e2" d="M 166.5,206.5 C 166.598,208.553 165.931,210.22 164.5,211.5C 164.402,209.447 165.069,207.78 166.5,206.5 Z"/></g>
<g><path style="opacity:0.31" fill="#b1b1b1" d="M 277.5,206.5 C 277.573,208.027 276.906,209.027 275.5,209.5C 275.427,207.973 276.094,206.973 277.5,206.5 Z"/></g>
<g><path style="opacity:0.114" fill="#d0d0d0" d="M 302.5,207.5 C 302.573,209.027 301.906,210.027 300.5,210.5C 300.427,208.973 301.094,207.973 302.5,207.5 Z"/></g>
<g><path style="opacity:0.4" fill="#a6a6a6" d="M 198.5,210.5 C 198.573,212.027 197.906,213.027 196.5,213.5C 196.427,211.973 197.094,210.973 198.5,210.5 Z"/></g>
<g><path style="opacity:0.294" fill="#b4b4b4" d="M 274.5,211.5 C 274.573,213.027 273.906,214.027 272.5,214.5C 272.427,212.973 273.094,211.973 274.5,211.5 Z"/></g>
<g><path style="opacity:0.212" fill="#c1c1c1" d="M 359.5,211.5 C 360.906,211.973 361.573,212.973 361.5,214.5C 360.094,214.027 359.427,213.027 359.5,211.5 Z"/></g>
<g><path style="opacity:0.106" fill="#d2d2d2" d="M 299.5,212.5 C 299.573,214.027 298.906,215.027 297.5,215.5C 297.427,213.973 298.094,212.973 299.5,212.5 Z"/></g>
<g><path style="opacity:0.216" fill="#c2c2c2" d="M 349.5,213.5 C 351.25,214.659 352.25,216.326 352.5,218.5C 350.75,217.341 349.75,215.674 349.5,213.5 Z"/></g>
<g><path style="opacity:0.165" fill="#c9c9c9" d="M 272.5,214.5 C 272.25,216.674 271.25,218.341 269.5,219.5C 269.75,217.326 270.75,215.659 272.5,214.5 Z"/></g>
<g><path style="opacity:0.153" fill="#c3c3c3" d="M 369.5,214.5 C 370.906,214.973 371.573,215.973 371.5,217.5C 370.094,217.027 369.427,216.027 369.5,214.5 Z"/></g>
<g><path style="opacity:0.038" fill="#e3e3e3" d="M 207.5,214.5 C 206.701,217.43 206.368,220.43 206.5,223.5C 205.366,221.034 205.199,218.367 206,215.5C 206.383,214.944 206.883,214.611 207.5,214.5 Z"/></g>
<g><path style="opacity:0.69" fill="#959595" d="M 195.5,215.5 C 195.5,218.5 195.5,221.5 195.5,224.5C 193.12,221.447 193.12,218.447 195.5,215.5 Z"/></g>
<g><path style="opacity:0.008" fill="#d5d5d5" d="M 296.5,217.5 C 296.573,219.027 295.906,220.027 294.5,220.5C 294.427,218.973 295.094,217.973 296.5,217.5 Z"/></g>
<g><path style="opacity:0.443" fill="#a0a0a0" d="M 394.5,214.5 C 397.214,219.879 397.88,225.546 396.5,231.5C 396.167,231.5 395.833,231.5 395.5,231.5C 395.625,225.797 395.292,220.13 394.5,214.5 Z"/></g>
<g><path style="opacity:0.184" fill="#c6c6c6" d="M 269.5,219.5 C 269.25,221.674 268.25,223.341 266.5,224.5C 266.75,222.326 267.75,220.659 269.5,219.5 Z"/></g>
<g><path style="opacity:0.118" fill="#cdcdcd" d="M 293.5,222.5 C 293.573,224.027 292.906,225.027 291.5,225.5C 291.427,223.973 292.094,222.973 293.5,222.5 Z"/></g>
<g><path style="opacity:0.435" fill="#939393" d="M 373.5,221.5 C 375.026,222.492 375.693,223.992 375.5,226C 375.607,228.221 374.94,230.054 373.5,231.5C 374.833,228.167 374.833,224.833 373.5,221.5 Z"/></g>
<g><path style="opacity:0.2" fill="#cecece" d="M 266.5,224.5 C 266.573,226.027 265.906,227.027 264.5,227.5C 264.427,225.973 265.094,224.973 266.5,224.5 Z"/></g>
<g><path style="opacity:0.01" fill="#c5c5c5" d="M 164.5,225.5 C 166.009,228.678 167.342,232.011 168.5,235.5C 166.746,233.427 165.08,231.261 163.5,229C 164.337,227.989 164.67,226.822 164.5,225.5 Z"/></g>
<g><path style="opacity:0.145" fill="#cfcfcf" d="M 196.5,226.5 C 197.906,226.973 198.573,227.973 198.5,229.5C 197.094,229.027 196.427,228.027 196.5,226.5 Z"/></g>
<g><path style="opacity:0.102" fill="#d1d1d1" d="M 290.5,227.5 C 290.573,229.027 289.906,230.027 288.5,230.5C 288.427,228.973 289.094,227.973 290.5,227.5 Z"/></g>
<g><path style="opacity:0.184" fill="#c5c5c5" d="M 263.5,229.5 C 263.25,231.674 262.25,233.341 260.5,234.5C 260.75,232.326 261.75,230.659 263.5,229.5 Z"/></g>
<g><path style="opacity:0.227" fill="#c4c4c4" d="M 210.5,231.5 C 211.906,231.973 212.573,232.973 212.5,234.5C 211.094,234.027 210.427,233.027 210.5,231.5 Z"/></g>
<g><path style="opacity:0.243" fill="#c2c2c2" d="M 373.5,231.5 C 373.573,233.027 372.906,234.027 371.5,234.5C 371.427,232.973 372.094,231.973 373.5,231.5 Z"/></g>
<g><path style="opacity:0.22" fill="#c5c5c5" d="M 191.5,232.5 C 192.906,232.973 193.573,233.973 193.5,235.5C 192.094,235.027 191.427,234.027 191.5,232.5 Z"/></g>
<g><path style="opacity:0.282" fill="#b9b9b9" d="M 352.5,232.5 C 352.573,234.027 351.906,235.027 350.5,235.5C 350.427,233.973 351.094,232.973 352.5,232.5 Z"/></g>
<g><path style="opacity:0.008" fill="#cbcbcb" d="M 395.5,231.5 C 395.833,231.5 396.167,231.5 396.5,231.5C 396.333,235.673 395,239.34 392.5,242.5C 393.699,238.901 394.699,235.235 395.5,231.5 Z"/></g>
<g><path style="opacity:0.196" fill="#c5c5c5" d="M 200.5,233.5 C 202.25,234.659 203.25,236.326 203.5,238.5C 201.75,237.341 200.75,235.674 200.5,233.5 Z"/></g>
<g><path style="opacity:0.004" fill="#fefffe" d="M 168.5,237.5 C 167.833,238.167 167.833,238.167 168.5,237.5 Z"/></g>
<g><path style="opacity:0.318" fill="#b3b3b3" d="M 259.5,236.5 C 259.573,238.027 258.906,239.027 257.5,239.5C 257.427,237.973 258.094,236.973 259.5,236.5 Z"/></g>
<g><path style="opacity:0.008" fill="#d7d7d7" d="M 284.5,237.5 C 284.573,239.027 283.906,240.027 282.5,240.5C 282.427,238.973 283.094,237.973 284.5,237.5 Z"/></g>
<g><path style="opacity:0.243" fill="#c8c8c8" d="M 370.5,236.5 C 370.573,238.027 369.906,239.027 368.5,239.5C 368.427,237.973 369.094,236.973 370.5,236.5 Z"/></g>
<g><path style="opacity:0.271" fill="#bcbcbc" d="M 349.5,237.5 C 349.573,239.027 348.906,240.027 347.5,240.5C 347.427,238.973 348.094,237.973 349.5,237.5 Z"/></g>
<g><path style="opacity:0.157" fill="#c2c2c2" d="M 360.5,238.5 C 360.573,240.027 359.906,241.027 358.5,241.5C 358.427,239.973 359.094,238.973 360.5,238.5 Z"/></g>
<g><path style="opacity:0.169" fill="#cfcfcf" d="M 257.5,239.5 C 257.573,241.027 256.906,242.027 255.5,242.5C 255.427,240.973 256.094,239.973 257.5,239.5 Z"/></g>
<g><path style="opacity:0.227" fill="#bcbcbc" d="M 215.5,240.5 C 216.906,240.973 217.573,241.973 217.5,243.5C 216.094,243.027 215.427,242.027 215.5,240.5 Z"/></g>
<g><path style="opacity:0.196" fill="#c3c3c3" d="M 171.5,241.5 C 173.25,242.659 174.25,244.326 174.5,246.5C 172.75,245.341 171.75,243.674 171.5,241.5 Z"/></g>
<g><path style="opacity:0.212" fill="#c6c6c6" d="M 196.5,241.5 C 197.906,241.973 198.573,242.973 198.5,244.5C 197.094,244.027 196.427,243.027 196.5,241.5 Z"/></g>
<g><path style="opacity:0.231" fill="#c3c3c3" d="M 367.5,241.5 C 367.573,243.027 366.906,244.027 365.5,244.5C 365.427,242.973 366.094,241.973 367.5,241.5 Z"/></g>
<g><path style="opacity:0.275" fill="#b6b6b6" d="M 346.5,242.5 C 346.573,244.027 345.906,245.027 344.5,245.5C 344.427,243.973 345.094,242.973 346.5,242.5 Z"/></g>
<g><path style="opacity:0.149" fill="#c7c7c7" d="M 357.5,243.5 C 357.573,245.027 356.906,246.027 355.5,246.5C 355.427,244.973 356.094,243.973 357.5,243.5 Z"/></g>
<g><path style="opacity:0.157" fill="#cccccc" d="M 206.5,244.5 C 207.906,244.973 208.573,245.973 208.5,247.5C 207.094,247.027 206.427,246.027 206.5,244.5 Z"/></g>
<g><path style="opacity:0.812" fill="#9e9e9e" d="M 251.5,246.5 C 247.486,246.334 243.486,246.501 239.5,247C 236.28,248.352 232.947,249.186 229.5,249.5C 236.488,245.657 243.822,244.657 251.5,246.5 Z"/></g>
<g><path style="opacity:0.255" fill="#bcbcbc" d="M 364.5,246.5 C 364.573,248.027 363.906,249.027 362.5,249.5C 362.427,247.973 363.094,246.973 364.5,246.5 Z"/></g>
<g><path style="opacity:0.004" fill="#d6d6d6" d="M 217.5,248.5 C 217.5,249.833 216.833,250.5 215.5,250.5C 215.833,249.5 216.5,248.833 217.5,248.5 Z"/></g>
<g><path style="opacity:0.275" fill="#b8b8b8" d="M 343.5,247.5 C 343.573,249.027 342.906,250.027 341.5,250.5C 341.427,248.973 342.094,247.973 343.5,247.5 Z"/></g>
<g><path style="opacity:0.125" fill="#cdcdcd" d="M 389.5,247.5 C 389.573,249.027 388.906,250.027 387.5,250.5C 387.427,248.973 388.094,247.973 389.5,247.5 Z"/></g>
<g><path style="opacity:0.184" fill="#c6c6c6" d="M 209.5,249.5 C 211.435,250.15 213.435,250.483 215.5,250.5C 214.903,251.139 214.07,251.472 213,251.5C 211.301,251.613 210.134,250.947 209.5,249.5 Z"/></g>
<g><path style="opacity:0.545" fill="#adadad" d="M 229.5,249.5 C 229.027,250.906 228.027,251.573 226.5,251.5C 226.973,250.094 227.973,249.427 229.5,249.5 Z"/></g>
<g><path style="opacity:0.145" fill="#c9c9c9" d="M 354.5,248.5 C 354.573,250.027 353.906,251.027 352.5,251.5C 352.427,249.973 353.094,248.973 354.5,248.5 Z"/></g>
<g><path style="opacity:0.18" fill="#cdcdcd" d="M 201.5,250.5 C 202.906,250.973 203.573,251.973 203.5,253.5C 202.094,253.027 201.427,252.027 201.5,250.5 Z"/></g>
<g><path style="opacity:0.251" fill="#bfbfbf" d="M 361.5,251.5 C 361.573,253.027 360.906,254.027 359.5,254.5C 359.427,252.973 360.094,251.973 361.5,251.5 Z"/></g>
<g><path style="opacity:0.145" fill="#cccccc" d="M 177.5,252.5 C 178.906,252.973 179.573,253.973 179.5,255.5C 179.167,255.5 178.833,255.5 178.5,255.5C 177.89,254.609 177.557,253.609 177.5,252.5 Z"/></g>
<g><path style="opacity:0.835" fill="#747474" d="M 226.5,251.5 C 225.415,253.587 223.749,254.92 221.5,255.5C 222.585,253.413 224.251,252.08 226.5,251.5 Z"/></g>
<g><path style="opacity:0.29" fill="#b7b7b7" d="M 340.5,252.5 C 340.573,254.027 339.906,255.027 338.5,255.5C 338.427,253.973 339.094,252.973 340.5,252.5 Z"/></g>
<g><path style="opacity:0.129" fill="#cacaca" d="M 386.5,252.5 C 386.573,254.027 385.906,255.027 384.5,255.5C 384.427,253.973 385.094,252.973 386.5,252.5 Z"/></g>
<g><path style="opacity:0.004" fill="#fefffe" d="M 178.5,255.5 C 177.833,256.167 177.833,256.167 178.5,255.5 Z"/></g>
<g><path style="opacity:0.29" fill="#b3b3b3" d="M 273.5,255.5 C 273.586,256.496 273.252,257.329 272.5,258C 273.823,258.816 274.489,259.983 274.5,261.5C 271.145,259.815 270.811,257.815 273.5,255.5 Z"/></g>
<g><path style="opacity:0.039" fill="#d9d9d9" d="M 251.5,260.5 C 246.18,259.225 240.847,259.225 235.5,260.5C 235.918,259.778 236.584,259.278 237.5,259C 241.833,258.333 246.167,258.333 250.5,259C 251.056,259.383 251.389,259.883 251.5,260.5 Z"/></g>
<g><path style="opacity:0.255" fill="#c1c1c1" d="M 358.5,256.5 C 358.573,258.027 357.906,259.027 356.5,259.5C 356.427,257.973 357.094,256.973 358.5,256.5 Z"/></g>
<g><path style="opacity:0.008" fill="#cfcfcf" d="M 383.5,257.5 C 383.573,259.027 382.906,260.027 381.5,260.5C 381.427,258.973 382.094,257.973 383.5,257.5 Z"/></g>
<g><path style="opacity:0.298" fill="#b9b9b9" d="M 337.5,257.5 C 337.573,259.027 336.906,260.027 335.5,260.5C 335.427,258.973 336.094,257.973 337.5,257.5 Z"/></g>
<g><path style="opacity:0.149" fill="#c6c6c6" d="M 348.5,258.5 C 348.573,260.027 347.906,261.027 346.5,261.5C 346.427,259.973 347.094,258.973 348.5,258.5 Z"/></g>
<g><path style="opacity:0.231" fill="#bdbdbd" d="M 181.5,259.5 C 183.25,260.659 184.25,262.326 184.5,264.5C 182.75,263.341 181.75,261.674 181.5,259.5 Z"/></g>
<g><path style="opacity:0.212" fill="#c5c5c5" d="M 206.5,259.5 C 207.906,259.973 208.573,260.973 208.5,262.5C 207.094,262.027 206.427,261.027 206.5,259.5 Z"/></g>
<g><path style="opacity:0.275" fill="#a7a7a7" d="M 219.5,257.5 C 218.92,259.749 217.587,261.415 215.5,262.5C 216.08,260.251 217.413,258.585 219.5,257.5 Z"/></g>
<g><path style="opacity:0.043" fill="#d2d2d2" d="M 235.5,260.5 C 234.486,261.674 233.153,262.34 231.5,262.5C 232.287,260.896 233.62,260.229 235.5,260.5 Z"/></g>
<g><path style="opacity:0.251" fill="#b5b5b5" d="M 251.5,260.5 C 252.853,262.128 252.519,263.462 250.5,264.5C 250.5,263.833 250.5,263.167 250.5,262.5C 251.338,262.158 251.672,261.492 251.5,260.5 Z"/></g>
<g><path style="opacity:0.263" fill="#bebebe" d="M 355.5,261.5 C 355.573,263.027 354.906,264.027 353.5,264.5C 353.427,262.973 354.094,261.973 355.5,261.5 Z"/></g>
<g><path style="opacity:0.298" fill="#b3b3b3" d="M 334.5,262.5 C 334.573,264.027 333.906,265.027 332.5,265.5C 332.427,263.973 333.094,262.973 334.5,262.5 Z"/></g>
<g><path style="opacity:0.71" fill="#919191" d="M 250.5,264.5 C 250.5,265.833 249.833,266.5 248.5,266.5C 248.833,265.5 249.5,264.833 250.5,264.5 Z"/></g>
<g><path style="opacity:0.212" fill="#bcbcbc" d="M 275.5,263.5 C 276.906,263.973 277.573,264.973 277.5,266.5C 276.094,266.027 275.427,265.027 275.5,263.5 Z"/></g>
<g><path style="opacity:0.157" fill="#c2c2c2" d="M 345.5,263.5 C 345.573,265.027 344.906,266.027 343.5,266.5C 343.427,264.973 344.094,263.973 345.5,263.5 Z"/></g>
<g><path style="opacity:0.337" fill="#a8a8a8" d="M 227.5,265.5 C 226.587,267.086 226.587,268.586 227.5,270C 230.014,271.252 232.68,271.752 235.5,271.5C 232.56,272.83 229.56,272.663 226.5,271C 225.02,268.765 225.353,266.932 227.5,265.5 Z"/></g>
<g><path style="opacity:0.514" fill="#aeaeae" d="M 248.5,266.5 C 248.027,267.906 247.027,268.573 245.5,268.5C 245.973,267.094 246.973,266.427 248.5,266.5 Z"/></g>
<g><path style="opacity:0.608" fill="#929292" d="M 212.5,266.5 C 212.833,266.5 213.167,266.5 213.5,266.5C 213.688,268.103 213.188,269.437 212,270.5C 211.536,269.906 211.369,269.239 211.5,268.5C 212.338,268.158 212.672,267.492 212.5,266.5 Z"/></g>
<g><path style="opacity:0.271" fill="#bebebe" d="M 352.5,266.5 C 352.573,268.027 351.906,269.027 350.5,269.5C 350.427,267.973 351.094,266.973 352.5,266.5 Z"/></g>
<g><path style="opacity:0.282" fill="#b7b7b7" d="M 331.5,267.5 C 331.573,269.027 330.906,270.027 329.5,270.5C 329.427,268.973 330.094,267.973 331.5,267.5 Z"/></g>
<g><path style="opacity:0.114" fill="#cdcdcd" d="M 377.5,267.5 C 377.573,269.027 376.906,270.027 375.5,270.5C 375.427,268.973 376.094,267.973 377.5,267.5 Z"/></g>
<g><path style="opacity:0.702" fill="#8e8e8e" d="M 245.5,268.5 C 243.081,270.862 240.081,271.862 236.5,271.5C 239.341,270.331 242.341,269.331 245.5,268.5 Z"/></g>
<g><path style="opacity:0.141" fill="#cacaca" d="M 342.5,268.5 C 342.573,270.027 341.906,271.027 340.5,271.5C 340.427,269.973 341.094,268.973 342.5,268.5 Z"/></g>
<g><path style="opacity:0.176" fill="#c5c5c5" d="M 187.5,270.5 C 188.906,270.973 189.573,271.973 189.5,273.5C 188.094,273.027 187.427,272.027 187.5,270.5 Z"/></g>
<g><path style="opacity:0.18" fill="#d2d2d2" d="M 329.5,270.5 C 329.573,272.027 328.906,273.027 327.5,273.5C 327.427,271.973 328.094,270.973 329.5,270.5 Z"/></g>
<g><path style="opacity:0.263" fill="#bdbdbd" d="M 349.5,271.5 C 349.573,273.027 348.906,274.027 347.5,274.5C 347.427,272.973 348.094,271.973 349.5,271.5 Z"/></g>
<g><path style="opacity:0.012" fill="#d1d1d1" d="M 374.5,272.5 C 374.573,274.027 373.906,275.027 372.5,275.5C 372.427,273.973 373.094,272.973 374.5,272.5 Z"/></g>
<g><path style="opacity:0.122" fill="#c9c9c9" d="M 339.5,273.5 C 339.573,275.027 338.906,276.027 337.5,276.5C 337.427,274.973 338.094,273.973 339.5,273.5 Z"/></g>
<g><path style="opacity:0.251" fill="#c1c1c1" d="M 346.5,276.5 C 346.573,278.027 345.906,279.027 344.5,279.5C 344.427,277.973 345.094,276.973 346.5,276.5 Z"/></g>
<g><path style="opacity:0.306" fill="#b6b6b6" d="M 325.5,277.5 C 325.573,279.027 324.906,280.027 323.5,280.5C 323.427,278.973 324.094,277.973 325.5,277.5 Z"/></g>
<g><path style="opacity:0.125" fill="#c9c9c9" d="M 371.5,277.5 C 371.573,279.027 370.906,280.027 369.5,280.5C 369.427,278.973 370.094,277.973 371.5,277.5 Z"/></g>
<g><path style="opacity:0.133" fill="#c9c9c9" d="M 336.5,278.5 C 336.573,280.027 335.906,281.027 334.5,281.5C 334.427,279.973 335.094,278.973 336.5,278.5 Z"/></g>
<g><path style="opacity:0.192" fill="#c1c1c1" d="M 192.5,279.5 C 193.906,279.973 194.573,280.973 194.5,282.5C 193.094,282.027 192.427,281.027 192.5,279.5 Z"/></g>
<g><path style="opacity:0.263" fill="#bbbbbb" d="M 343.5,281.5 C 343.573,283.027 342.906,284.027 341.5,284.5C 341.427,282.973 342.094,281.973 343.5,281.5 Z"/></g>
<g><path style="opacity:0.329" fill="#a4a4a4" d="M 322.5,282.5 C 322.368,285.797 320.702,287.463 317.5,287.5C 319.386,286.07 321.053,284.403 322.5,282.5 Z"/></g>
<g><path style="opacity:0.02" fill="#cfcfcf" d="M 333.5,283.5 C 333.573,285.027 332.906,286.027 331.5,286.5C 331.427,284.973 332.094,283.973 333.5,283.5 Z"/></g>
<g><path style="opacity:0.122" fill="#cccccc" d="M 368.5,282.5 C 368.573,284.027 367.906,285.027 366.5,285.5C 366.427,283.973 367.094,282.973 368.5,282.5 Z"/></g>
<g><path style="opacity:0.565" fill="#989898" d="M 289.5,288.5 C 298.006,287.445 306.673,287.445 315.5,288.5C 307.003,289.286 298.337,289.286 289.5,288.5 Z"/></g>
<g><path style="opacity:0.271" fill="#bcbcbc" d="M 340.5,286.5 C 340.573,288.027 339.906,289.027 338.5,289.5C 338.427,287.973 339.094,286.973 340.5,286.5 Z"/></g>
<g><path style="opacity:0.98" fill="#6a6a6a" d="M 364.5,288.5 C 364.25,290.674 363.25,292.341 361.5,293.5C 361.241,291.011 362.241,289.344 364.5,288.5 Z"/></g>
<g><path style="opacity:0.875" fill="#797979" d="M 198.5,290.5 C 200.048,290.821 200.715,291.821 200.5,293.5C 199.599,292.71 198.932,291.71 198.5,290.5 Z"/></g>
<g><path style="opacity:0.149" fill="#c8c8c8" d="M 330.5,288.5 C 330.573,290.027 329.906,291.027 328.5,291.5C 328.427,289.973 329.094,288.973 330.5,288.5 Z"/></g>
<g><path style="opacity:0.729" fill="#9d9d9d" d="M 289.5,288.5 C 286.833,291.5 286.833,294.5 289.5,297.5C 285.578,295.899 284.745,293.232 287,289.5C 287.671,288.748 288.504,288.414 289.5,288.5 Z"/></g>
<g><path style="opacity:0.286" fill="#bbbbbb" d="M 337.5,291.5 C 337.573,293.027 336.906,294.027 335.5,294.5C 335.427,292.973 336.094,291.973 337.5,291.5 Z"/></g>
<g><path style="opacity:0.204" fill="#c7c7c7" d="M 279.5,288.5 C 279.373,293.232 277.707,297.232 274.5,300.5C 276.186,296.424 277.853,292.424 279.5,288.5 Z"/></g>
<g><path style="opacity:0.012" fill="#cecece" d="M 326.5,294.5 C 326.5,295.833 325.833,296.5 324.5,296.5C 324.833,295.5 325.5,294.833 326.5,294.5 Z"/></g>
<g><path style="opacity:0.537" fill="#a0a0a0" d="M 324.5,296.5 C 324.389,297.117 324.056,297.617 323.5,298C 311.992,298.826 300.659,298.659 289.5,297.5C 301.217,297.791 312.884,297.458 324.5,296.5 Z"/></g>
<g><path style="opacity:0.286" fill="#bcbcbc" d="M 334.5,296.5 C 334.573,298.027 333.906,299.027 332.5,299.5C 332.427,297.973 333.094,296.973 334.5,296.5 Z"/></g>
<g><path style="opacity:0.008" fill="#d1d1d1" d="M 359.5,297.5 C 359.573,299.027 358.906,300.027 357.5,300.5C 357.427,298.973 358.094,297.973 359.5,297.5 Z"/></g>
<g><path style="opacity:0.22" fill="#bababa" d="M 202.5,297.5 C 203.906,297.973 204.573,298.973 204.5,300.5C 203.094,300.027 202.427,299.027 202.5,297.5 Z"/></g>
<g><path style="opacity:0.012" fill="#d3d3d3" d="M 274.5,300.5 C 274.5,301.167 274.5,301.833 274.5,302.5C 273.833,302.833 273.167,303.167 272.5,303.5C 272.427,301.973 273.094,300.973 274.5,300.5 Z"/></g>
<g><path style="opacity:0.028" fill="#c9c9c9" d="M 272.5,303.5 C 289.987,304.756 307.654,305.422 325.5,305.5C 307.305,306.694 288.972,306.361 270.5,304.5C 270.957,303.702 271.624,303.369 272.5,303.5 Z"/></g>
<g><path style="opacity:0.925" fill="#7e7e7e" d="M 329.5,303.5 C 328.817,305.176 327.483,305.843 325.5,305.5C 326.514,304.326 327.847,303.66 329.5,303.5 Z"/></g>
<g><path style="opacity:0.114" fill="#cfcfcf" d="M 356.5,302.5 C 356.573,304.027 355.906,305.027 354.5,305.5C 354.427,303.973 355.094,302.973 356.5,302.5 Z"/></g>
<g><path style="opacity:0.212" fill="#c2c2c2" d="M 207.5,306.5 C 209.25,307.659 210.25,309.326 210.5,311.5C 208.75,310.341 207.75,308.674 207.5,306.5 Z"/></g>
<g><path style="opacity:0.102" fill="#d3d3d3" d="M 353.5,307.5 C 353.573,309.027 352.906,310.027 351.5,310.5C 351.427,308.973 352.094,307.973 353.5,307.5 Z"/></g>
<g><path style="opacity:0.016" fill="#d6d6d6" d="M 210.5,311.5 C 211.906,311.973 212.573,312.973 212.5,314.5C 211.094,314.027 210.427,313.027 210.5,311.5 Z"/></g>
<g><path style="opacity:0.788" fill="#909090" d="M 214.5,316.5 C 217.089,317.419 219.089,319.086 220.5,321.5C 217.911,320.581 215.911,318.914 214.5,316.5 Z"/></g>
<g><path style="opacity:0.012" fill="#e0e0e0" d="M 343.5,320.5 C 343.027,321.906 342.027,322.573 340.5,322.5C 340.973,321.094 341.973,320.427 343.5,320.5 Z"/></g>
<g><path style="opacity:0.169" fill="#bfbfbf" d="M 338.5,323.5 C 337.713,325.104 336.38,325.771 334.5,325.5C 335.514,324.326 336.847,323.66 338.5,323.5 Z"/></g>
<g><path style="opacity:0.409" fill="#939393" d="M 224.5,323.5 C 233.239,324.917 241.905,325.917 250.5,326.5C 243.825,326.666 237.158,326.5 230.5,326C 228.277,325.434 226.277,324.6 224.5,323.5 Z"/></g>
<g><path style="opacity:0.118" fill="#a7a7a7" d="M 334.5,325.5 C 329.854,327.629 324.854,328.629 319.5,328.5C 296.338,327.908 273.338,327.241 250.5,326.5C 278.525,326.8 306.525,326.466 334.5,325.5 Z"/></g>
</svg>
