<svg xmlns="http://www.w3.org/2000/svg" xmlns:xlink="http://www.w3.org/1999/xlink" version="1.1" x="0px" y="0px"
    viewBox="0 0 100 100" xml:space="preserve">
    <g>
        <path
            d="M50,44.8037109c-3.6025391,0-6.5332031,2.9580078-6.5332031,6.5947266S46.3974609,57.9941406,50,57.9941406   s6.5332031-2.9589844,6.5332031-6.5957031S53.6025391,44.8037109,50,44.8037109z M50,55.9941406   c-2.5,0-4.5332031-2.0615234-4.5332031-4.5957031c0-2.5332031,2.0332031-4.5947266,4.5332031-4.5947266   s4.5332031,2.0615234,4.5332031,4.5947266C54.5332031,53.9326172,52.5,55.9941406,50,55.9941406z" />
        <path
            d="M85.84375,59.1855469c-0.1425781-0.2255859-0.3701172-0.3837891-0.6308594-0.4404297   c-0.5635376-0.1230469-1.1400757-0.2724609-1.7195435-0.4328613c0.4607544-2.2717285,0.7078247-4.5915527,0.7078247-6.9138184   c0-15.6862793-10.7544556-29.6005859-25.7008057-33.4594727c0.1069946-0.5900879,0.2252197-1.1782227,0.3707275-1.7749023   c0.0634766-0.2597656,0.0195313-0.5341797-0.1201172-0.7617188c-0.140625-0.2275391-0.3662109-0.3896484-0.6269531-0.4501953   c-5.2988281-1.2246094-10.9736328-1.2226563-16.2363281,0.0009766c-0.2597656,0.0595703-0.4853516,0.2216797-0.625,0.4492188   s-0.1835938,0.5019531-0.1201172,0.7617188c0.1315918,0.5397949,0.2474976,1.1342773,0.3574829,1.7609863   c-14.9470825,3.8759766-25.7012329,17.7961426-25.7012329,33.4733887c0,2.3249512,0.2476807,4.6477051,0.7095337,6.9223633   c-0.5577393,0.1584473-1.1282349,0.3085938-1.7212524,0.4379883c-0.2617188,0.0566406-0.4892578,0.2158203-0.6318359,0.4414063   c-0.1435547,0.2255859-0.1894531,0.5-0.1298828,0.7597656c1.5185547,6.5761719,4.8164063,12.6298828,9.5380859,17.5068359   c0.1894531,0.1972656,0.4521484,0.2636719,0.7236328,0.3046875c0.2724609-0.0009766,0.5332031-0.1142578,0.7207031-0.3115234   c0.3782959-0.3989258,0.7994995-0.8071289,1.2443237-1.2233887C32.666626,82.5144043,41.0578613,85.96875,50,85.96875   c8.9441528,0,17.3372192-3.4560547,23.7521973-9.7365723c0.4367065,0.404541,0.8612061,0.8134766,1.2536621,1.2277832   c0.1884766,0.1982422,0.4033203,0.3144531,0.7255859,0.3115234c0.2705078,0,0.5302734-0.109375,0.71875-0.3046875   c4.7294922-4.8847656,8.0234375-10.9443359,9.5244141-17.5224609C86.0341797,59.6835938,85.9873047,59.4111328,85.84375,59.1855469   z M82.2011719,51.3984375c0,2.1147461-0.2058105,4.2285156-0.6115112,6.2998047   c-0.3405762-0.1174316-0.6815796-0.2333984-1.0175781-0.3608398c-0.2945557-0.1118164-0.5913086-0.21875-0.8822632-0.3381348   c-0.6029053-0.2475586-1.194458-0.5185547-1.781189-0.7990723c-0.2044067-0.0976563-0.4142456-0.1848145-0.6166382-0.286377   c-0.7832642-0.3933105-1.5518799-0.8149414-2.3030396-1.2666016c-0.1542969-0.0927734-0.3012085-0.197998-0.4541016-0.2932129   c-0.5025024-0.3129883-0.9959106-0.6411133-1.482666-0.9799805c0.0554199-0.6303711,0.0825806-1.28125,0.0825806-1.9755859   c0-9.6628418-5.9174805-18.3459473-14.7895508-21.8032227c-0.0870972-0.5878906-0.161377-1.1767578-0.2194214-1.7668457   c-0.0185547-0.1887207-0.0487671-0.3762207-0.0643311-0.5651855c-0.0726318-0.880127-0.1114502-1.7624512-0.1195068-2.6452637   c-0.0021362-0.2351074,0.0119629-0.4702148,0.0144043-0.7053223c0.0067139-0.6489258,0.0231323-1.2978516,0.0646973-1.9462891   c0.0209351-0.3261719,0.0557861-0.6516113,0.0855713-0.9775391c0.0323486-0.354248,0.0759888-0.7077637,0.1187134-1.0615234   C72.1838379,23.6391602,82.2011719,36.6953125,82.2011719,51.3984375z M65.3310547,46.046875   c-3.1985474-4.1525879-5.4414673-8.9936523-6.5611572-14.09375c7.4631348,3.4370117,12.3648682,11.0319824,12.3648682,19.4453125   c0,0.1850586-0.0101318,0.3552246-0.0142822,0.5336914C68.9942627,50.2258301,67.0448608,48.2617188,65.3310547,46.046875z    M28.8798218,51.9418945c-0.0043335-0.1816406-0.0145874-0.3549805-0.0145874-0.543457   c0-8.4108887,4.9040527-16.0073242,12.3700562-19.4472656C39.5038452,39.8505859,35.1636963,46.8857422,28.8798218,51.9418945z    M41.7999878,19.9067383c0.0043335,0.0344238,0.0099487,0.0688477,0.0141602,0.1035156   c0.0849609,0.6965332,0.1459351,1.3964844,0.1886597,2.0983887c0.0082397,0.1350098,0.0154419,0.2702637,0.0220947,0.4055176   c0.034729,0.7053223,0.0517578,1.4125977,0.0439453,2.1218262c-0.0009766,0.0927734-0.0054321,0.185791-0.0072021,0.2785645   c-0.0132446,0.7028809-0.0455933,1.4067383-0.1005249,2.1115723c-0.0045166,0.0581055-0.0065918,0.1159668-0.0114136,0.1740723   c-0.0600586,0.7246094-0.1472168,1.449707-0.2512817,2.1748047c-0.010376,0.0717773-0.0206299,0.1437988-0.0313721,0.2158203   c-8.8789063,3.4577637-14.8018188,12.144043-14.8018188,21.8076172c0,0.6953125,0.0271606,1.3474121,0.0825806,1.9775391   c-0.4821777,0.3376465-0.9710083,0.6633301-1.4677124,0.9746094c-0.1637573,0.1025391-0.3215942,0.2160645-0.4868164,0.3156738   c-0.7493286,0.4519043-1.5151367,0.8723145-2.2947388,1.263916c-0.2130127,0.1071777-0.4331665,0.1984863-0.6483154,0.3007813   c-0.5778809,0.2753906-1.1599121,0.5415039-1.7528687,0.7836914c-0.2896118,0.1181641-0.5844116,0.2236328-0.8773804,0.3337402   c-0.3331909,0.1254883-0.6713257,0.2387695-1.0088501,0.3537598c-0.4064941-2.0732422-0.6123047-4.1884766-0.6123047-6.3037109   C17.7988281,36.6960449,27.8287964,23.6269531,41.7999878,19.9067383z M27.7606812,74.9282227   c0.2817383-0.2358398,0.5631104-0.4719238,0.8510742-0.6982422c0.2462158-0.1933594,0.4892578-0.3916016,0.7399292-0.5778809   c0.531189-0.3947754,1.0759277-0.767334,1.6263428-1.130127c0.1779785-0.1171875,0.3500977-0.244873,0.5299683-0.3586426   c0.7351685-0.4655762,1.4862671-0.9025879,2.2525635-1.3103027c0.18573-0.098877,0.3787842-0.1833496,0.5662842-0.2788086   c0.491394-0.25,0.9890747-0.4870605,1.4920654-0.7131348C39.8482666,73.0361328,44.857666,74.7783203,50,74.7783203   c5.142395,0,10.1518555-1.7421875,14.1802979-4.9174805c0.5018921,0.2255859,0.9978027,0.4619141,1.4871216,0.7102051   c0.1956177,0.0991211,0.3974609,0.1875,0.5909424,0.2902832c0.767334,0.4082031,1.5180054,0.8449707,2.2516479,1.3093262   c0.1830444,0.1157227,0.3572388,0.244873,0.5380249,0.3642578c0.5491333,0.3620605,1.0922241,0.7338867,1.6207886,1.1276855   c0.2442017,0.1818848,0.4803467,0.375,0.7198486,0.5634766c0.2883301,0.2270508,0.5691528,0.4643555,0.8508301,0.7009277   C66.2157593,80.7663574,58.3609009,83.96875,50,83.96875C41.6397095,83.96875,33.7855835,80.7670898,27.7606812,74.9282227z    M37.9616089,68.9599609C41.8157349,67.520752,45.8574829,66.7919922,50,66.7919922   c4.1420288,0,8.1831665,0.7285156,12.0375977,2.1679688C58.5286255,71.4299316,54.3168945,72.7783203,50,72.7783203   C45.6838989,72.7783203,41.4714966,71.4299316,37.9616089,68.9599609z M75.7148438,75.3300781   c-0.4248047-0.4160156-0.8681641-0.8242188-1.3232422-1.2207031c-0.739502-0.6608887-1.503479-1.2897949-2.2904663-1.8859863   c-2.3610229-1.7883301-4.9292603-3.2814941-7.6655884-4.454834c-0.0014648-0.0004883-0.0031128-0.0004883-0.0045776-0.0012207   C59.8505249,65.7932129,54.9950562,64.7919922,50,64.7919922c-4.9970703,0-9.8544922,1.0019531-14.4365234,2.9765625   c-0.9042969,0.3876953-1.7918091,0.8117676-2.6610718,1.2714844c-2.6079102,1.3789063-5.0518188,3.0769043-7.2930298,5.0683594   c-0.4716797,0.4199219-0.90625,0.8242188-1.3105469,1.2216797c-3.8691406-4.234375-6.6455078-9.3330078-8.0869141-14.8525391   c0.6064453-0.1533203,1.1933594-0.3203125,1.7490234-0.4990234c0.6538086-0.1992188,1.2981567-0.4238281,1.9379272-0.6594238   c3.0840454-1.1362305,6.0012817-2.685791,8.6880493-4.6325684c0.0012207-0.0009766,0.0023193-0.0019531,0.00354-0.0026855   c0.0001221,0,0.0002441-0.0002441,0.0003662-0.0002441c0.000061,0,0.000061,0,0.0001221,0   c0.4371338-0.3146973,0.8615723-0.6416016,1.2918701-0.9765625c7.2851563-5.7587891,12.1416016-14.0068359,13.6748047-23.2246094   c0.5812988-3.5141602,0.6716309-7.0373535,0.2724609-10.4916992c-0.0176392-0.152832-0.0427246-0.3046875-0.0622559-0.4572754   c-0.043396-0.3383789-0.085083-0.677002-0.1379395-1.013916c-0.0001221-0.0004883-0.0001831-0.0012207-0.0003052-0.001709   c-0.0002441-0.001709-0.0004272-0.003418-0.0006714-0.005127c-0.000061-0.0002441-0.0001831-0.0004883-0.0002441-0.0004883   c-0.0983887-0.6513672-0.2033691-1.2536621-0.3190918-1.8208008c4.3642578-0.8759766,9.0009766-0.8769531,13.390625,0   c-0.1279297,0.6074219-0.2373047,1.2119141-0.3300781,1.828125c-0.0019531,0.0175781-0.0048828,0.0380859-0.0058594,0.0585938   c-0.0303955,0.2019043-0.052124,0.404541-0.0792847,0.6066895c-0.0388794,0.2893066-0.0811157,0.5783691-0.1134033,0.8679199   c-0.0167236,0.1508789-0.0267334,0.3017578-0.041687,0.4523926c-0.0344849,0.3474121-0.0701904,0.6945801-0.0951538,1.0422363   c-0.0074463,0.1044922-0.0099487,0.2089844-0.0166016,0.3134766c-0.0250244,0.394043-0.0487061,0.7878418-0.0615234,1.1821289   c-0.0015869,0.0495605-0.0006104,0.0991211-0.0020142,0.1486816c-0.0556641,1.9401855,0.0337524,3.8811035,0.2739868,5.8093262   c0.0615234,0.4946289,0.1328125,0.9885254,0.2138062,1.4814453c1.0048828,6.0830078,3.53125,11.8867188,7.3056641,16.7871094   c2.2216797,2.8691406,4.7998047,5.3652344,7.6630859,7.4160156c3.2246094,2.3251953,6.7988281,4.1054688,10.6230469,5.2910156   c0.0009766,0.0009766,0.0029297,0.0009766,0.0039063,0.0009766c0.5869141,0.1796875,1.1728516,0.3417969,1.7519531,0.4873047   C82.3623047,65.9863281,79.5898438,71.0888672,75.7148438,75.3300781z" />
    </g>
</svg>