<svg width="80" height="80" viewBox="0 0 80 80" fill="none" xmlns="http://www.w3.org/2000/svg">
<rect width="79.9998" height="79.9998" rx="3.36666" fill="#242424"/>
<g clip-path="url(#clip0_252_3049)">
<path d="M63.7267 31.6884C63.7267 28.7103 61.2697 26.2532 58.2916 26.2532C57.0257 26.2532 55.909 26.6999 55.0157 27.37L52.8566 25.2109C53.5267 24.3173 53.9734 23.2006 53.9734 21.935C53.9734 18.9569 51.5163 16.4999 48.5382 16.4999C45.5601 16.4999 43.1031 18.9569 43.1031 21.935C43.1031 22.6051 43.2519 23.2752 43.4754 23.871L39.7524 25.8814C38.7845 24.5411 37.221 23.7222 35.4341 23.7222C33.5728 23.7222 32.0091 24.6159 30.9667 26.0305L26.4993 23.7222C26.7228 23.1265 26.7972 22.5311 26.7972 21.9354C26.7972 18.9573 24.3401 16.5002 21.362 16.5002C18.5321 16.5739 16.075 19.031 16.075 22.0093C16.075 24.7643 18.0854 26.9978 20.7656 27.37V34.5924C18.0854 34.9647 16.075 37.1982 16.075 39.9531C16.075 42.9312 18.5321 45.3883 21.5102 45.3883C24.4883 45.3883 26.9453 42.9312 26.9453 39.9531C26.9453 38.9851 26.6474 38.0172 26.2008 37.2726L31.7106 33.0287C32.6786 33.9967 34.0189 34.5921 35.5078 34.5921C36.2524 34.5921 36.9225 34.4433 37.5926 34.1454L41.0921 40.1763C39.8262 41.1443 39.0073 42.7077 39.0073 44.4202C39.0073 45.2391 39.156 45.9836 39.5283 46.6537L25.6057 55.3654C24.6377 54.1743 23.1487 53.4294 21.4361 53.4294C18.458 53.4294 16.001 55.8865 16.001 58.8646C16.001 61.8429 18.5324 64.2256 21.5108 64.2256C24.2657 64.2256 26.4993 62.1408 26.8715 59.5351H39.0075C39.3797 62.2156 41.6133 64.2256 44.3682 64.2256C47.3463 64.2256 49.8033 61.7686 49.8033 58.7905C49.8033 58.1204 49.6546 57.5246 49.5055 57.0036L53.9729 54.6953C54.9408 56.11 56.5786 57.0036 58.4403 57.0036C61.4184 57.0036 63.8754 54.5466 63.8754 51.5685C63.8754 48.8135 61.7906 46.58 59.1848 46.2078V37.0492C61.6419 36.6769 63.7267 34.369 63.7267 31.6885L63.7267 31.6884ZM62.3121 31.6884C62.3121 33.8475 60.5252 35.6345 58.366 35.6345C56.2068 35.6345 54.4199 33.8476 54.4199 31.6884C54.4199 29.5293 56.2068 27.7423 58.366 27.7423C60.5251 27.6679 62.3121 29.4548 62.3121 31.6884ZM48.5378 17.9887C50.6969 17.9887 52.4839 19.7755 52.4839 21.9347C52.4839 24.0939 50.697 25.8808 48.5378 25.8808C47.0487 25.8808 45.7085 25.0619 45.0384 23.796C44.7405 23.2003 44.5173 22.6049 44.5173 21.8601C44.517 19.7756 46.3039 17.9888 48.5378 17.9888L48.5378 17.9887ZM30.3707 27.3701C30.1472 27.9659 30.0728 28.5613 30.0728 29.157C30.0728 30.125 30.3707 31.093 30.8173 31.8375L25.3075 36.0815C24.4886 35.2626 23.4462 34.7412 22.2547 34.5924V27.37C23.8181 27.1466 25.1584 26.3277 25.9777 25.1365L30.3707 27.3701ZM17.4897 22.0094C17.4897 19.8503 19.2766 18.0633 21.4358 18.0633C23.595 18.0633 25.3819 19.8502 25.3819 22.0094C25.3819 24.1686 23.595 25.9555 21.4358 25.9555C19.2766 25.9555 17.4897 24.1686 17.4897 22.0094ZM21.5104 43.8989C19.3513 43.8989 17.5644 42.1121 17.5644 39.9529C17.5644 37.7937 19.3512 36.0068 21.5104 36.0068C23.6697 36.0068 25.4565 37.7937 25.4565 39.9529C25.4565 42.112 23.6697 43.8989 21.5104 43.8989ZM35.433 33.1029C34.1671 33.1029 33.0504 32.5072 32.3059 31.5395C31.7848 30.8694 31.487 30.0505 31.487 29.1569C31.487 26.9978 33.2738 25.2108 35.433 25.2108C37.5922 25.2108 39.3791 26.9977 39.3791 29.1569C39.3795 31.3905 37.6669 33.103 35.433 33.103C35.3587 33.103 35.3587 33.103 35.433 33.103V33.1029ZM38.7837 33.4008C40.0496 32.4328 40.8685 30.8693 40.8685 29.1569C40.8685 28.4868 40.7198 27.8167 40.4963 27.2209L44.2192 25.2105C45.1872 26.5508 46.7506 27.4441 48.5375 27.4441C49.8034 27.4441 50.9201 26.9974 51.8134 26.3273L53.9726 28.4864C53.3024 29.38 52.8558 30.4968 52.8558 31.7623C52.8558 34.5172 54.8661 36.7508 57.5463 37.123V46.3553C55.9829 46.5788 54.717 47.3977 53.8234 48.5888L49.4304 46.2806C49.6539 45.6848 49.7283 45.0894 49.7283 44.4937C49.7283 41.5156 47.2712 39.0585 44.2931 39.0585C43.5486 39.0585 42.8785 39.2073 42.2083 39.5052L38.7837 33.4008ZM44.368 40.474C46.5271 40.474 48.314 42.2608 48.314 44.4201C48.314 45.0902 48.1653 45.6859 47.8674 46.2069C47.1973 47.4728 45.857 48.366 44.368 48.366C42.9533 48.366 41.6874 47.6215 41.0173 46.5048C40.645 45.909 40.4215 45.1645 40.4215 44.42C40.4215 42.2608 42.1341 40.4739 44.368 40.4739L44.368 40.474ZM21.5105 62.811C19.3514 62.811 17.5645 61.0241 17.5645 58.8649C17.5645 56.7057 19.3513 54.9189 21.5105 54.9189C23.6697 54.9189 25.4566 56.7057 25.4566 58.8649C25.4566 61.0241 23.6697 62.811 21.5105 62.811ZM44.368 62.811C42.2088 62.811 40.4219 61.0241 40.4219 58.8649C40.4219 56.7057 42.2087 54.9189 44.368 54.9189C45.9313 54.9189 47.1972 55.8125 47.8674 57.078C48.1653 57.599 48.314 58.2691 48.314 58.8649C48.314 61.024 46.5271 62.8109 44.3679 62.8109L44.368 62.811ZM48.7607 55.7378C47.7927 54.3232 46.1549 53.4295 44.2933 53.4295C41.5383 53.4295 39.3048 55.4399 38.9326 58.1201H26.8712C26.7968 57.5991 26.6477 57.0777 26.4245 56.6311L40.1988 47.9941C41.1668 49.1852 42.6559 49.93 44.3684 49.93C46.2297 49.93 47.7934 49.0364 48.8358 47.6217L53.2288 49.93C53.0053 50.5258 52.9309 51.1212 52.9309 51.7169C52.9309 52.387 53.0797 52.9828 53.2288 53.5038L48.7607 55.7378ZM62.3121 51.6427C62.3121 53.8018 60.5252 55.5887 58.366 55.5887C56.2068 55.5887 54.4199 53.8019 54.4199 51.6427C54.4199 49.4836 56.2068 47.6966 58.366 47.6966C60.5252 47.6966 62.3121 49.4091 62.3121 51.6427Z" fill="white"/>
<path d="M44.3679 56.5562C43.102 56.5562 42.0596 57.5985 42.0596 58.8644C42.0596 60.1303 43.102 61.1727 44.3679 61.1727C45.6338 61.1727 46.6762 60.1303 46.6762 58.8644C46.6758 57.5242 45.6334 56.5562 44.3679 56.5562ZM44.3679 59.6833C43.9212 59.6833 43.549 59.3111 43.549 58.8644C43.549 58.4178 43.9212 58.0456 44.3679 58.0456C44.8145 58.0456 45.1868 58.4178 45.1868 58.8644C45.1868 59.3111 44.8145 59.6833 44.3679 59.6833Z" fill="#2DFF73"/>
<path d="M44.3679 46.7279C45.6338 46.7279 46.6762 45.6855 46.6762 44.4196C46.6762 43.1537 45.6338 42.1113 44.3679 42.1113C43.102 42.1113 42.0596 43.1537 42.0596 44.4196C42.0596 45.6855 43.102 46.7279 44.3679 46.7279ZM44.3679 43.6007C44.8145 43.6007 45.1868 43.973 45.1868 44.4196C45.1868 44.8663 44.8145 45.2385 44.3679 45.2385C43.9212 45.2385 43.549 44.8663 43.549 44.4196C43.5486 43.973 43.9209 43.6007 44.3679 43.6007Z" fill="#2DFF73"/>
<path d="M58.2907 33.9218C59.5566 33.9218 60.599 32.8794 60.599 31.6135C60.599 30.3476 59.5566 29.3052 58.2907 29.3052C57.0248 29.3052 55.9824 30.3476 55.9824 31.6135C56.0571 32.8794 57.0252 33.9218 58.2907 33.9218ZM58.2907 30.7946C58.7374 30.7946 59.1096 31.1668 59.1096 31.6135C59.1096 32.0601 58.7374 32.4324 58.2907 32.4324C57.8441 32.4324 57.4718 32.0601 57.4718 31.6135C57.4718 31.1668 57.8441 30.7946 58.2907 30.7946Z" fill="#2DFF73"/>
<path d="M21.5104 37.645C20.2445 37.645 19.2021 38.6874 19.2021 39.9533C19.2021 41.2192 20.2445 42.2616 21.5104 42.2616C22.7763 42.2616 23.8187 41.2192 23.8187 39.9533C23.744 38.6874 22.776 37.645 21.5104 37.645ZM21.5104 40.7722C21.0638 40.7722 20.6915 40.4 20.6915 39.9533C20.6915 39.5067 21.0638 39.1344 21.5104 39.1344C21.9571 39.1344 22.3293 39.5067 22.3293 39.9533C22.3293 40.4 21.9571 40.7722 21.5104 40.7722Z" fill="#2DFF73"/>
<path d="M35.4333 26.8479C34.1674 26.8479 33.125 27.8903 33.125 29.1562C33.125 30.4221 34.1674 31.4645 35.4333 31.4645C36.6992 31.4645 37.7416 30.4221 37.7416 29.1562C37.7416 27.8903 36.6992 26.8479 35.4333 26.8479ZM35.4333 29.9751C34.9867 29.9751 34.6144 29.6028 34.6144 29.1562C34.6144 28.7096 34.9867 28.3373 35.4333 28.3373C35.8799 28.3373 36.2522 28.7096 36.2522 29.1562C36.2525 29.6028 35.8803 29.9751 35.4333 29.9751Z" fill="#2DFF73"/>
<path d="M56.0576 51.642C56.0576 52.9079 57.1 53.9503 58.3659 53.9503C59.6318 53.9503 60.6742 52.9079 60.6742 51.642C60.6742 50.3761 59.6318 49.3337 58.3659 49.3337C57.0257 49.3337 56.0576 50.3761 56.0576 51.642ZM59.1848 51.642C59.1848 52.0887 58.8125 52.4609 58.3659 52.4609C57.9193 52.4609 57.547 52.0887 57.547 51.642C57.547 51.1954 57.9193 50.8231 58.3659 50.8231C58.8125 50.8231 59.1848 51.1954 59.1848 51.642Z" fill="#2DFF73"/>
<path d="M23.7435 22.009C23.7435 20.7431 22.7011 19.7007 21.4352 19.7007C20.1693 19.7007 19.127 20.7431 19.127 22.009C19.127 23.2749 20.1693 24.3173 21.4352 24.3173C22.7755 24.2425 23.7435 23.2745 23.7435 22.009ZM20.6164 22.009C20.6164 21.5623 20.9886 21.1901 21.4352 21.1901C21.8819 21.1901 22.2541 21.5623 22.2541 22.009C22.2541 22.4556 21.8819 22.8279 21.4352 22.8279C20.9886 22.8279 20.6164 22.4556 20.6164 22.009Z" fill="#2DFF73"/>
<path d="M48.5378 24.2428C49.8037 24.2428 50.8461 23.2004 50.8461 21.9345C50.8461 20.6686 49.8037 19.6262 48.5378 19.6262C47.2719 19.6262 46.2295 20.6686 46.2295 21.9345C46.2295 23.2747 47.2719 24.2428 48.5378 24.2428ZM48.5378 21.1156C48.9844 21.1156 49.3567 21.4879 49.3567 21.9345C49.3567 22.3812 48.9844 22.7534 48.5378 22.7534C48.0911 22.7534 47.7189 22.3812 47.7189 21.9345C47.6442 21.4879 48.0908 21.1156 48.5378 21.1156Z" fill="#2DFF73"/>
<path d="M21.5104 56.5562C20.2445 56.5562 19.2021 57.5985 19.2021 58.8644C19.2021 60.1303 20.2445 61.1727 21.5104 61.1727C22.7763 61.1727 23.8187 60.1303 23.8187 58.8644C23.744 57.5242 22.776 56.5562 21.5104 56.5562ZM21.5104 59.6833C21.0638 59.6833 20.6915 59.3111 20.6915 58.8644C20.6915 58.4178 21.0638 58.0456 21.5104 58.0456C21.9571 58.0456 22.3293 58.4178 22.3293 58.8644C22.3293 59.3111 21.9571 59.6833 21.5104 59.6833Z" fill="#2DFF73"/>
</g>
<defs>
<clipPath id="clip0_252_3049">
<rect width="47.9999" height="47.9999" fill="white" transform="translate(15.999 16)"/>
</clipPath>
</defs>
</svg>