<svg width="88" height="88" viewBox="0 0 88 88" fill="none" xmlns="http://www.w3.org/2000/svg">
<rect width="88" height="88" rx="5" fill="#242424"/>
<path d="M55.275 38.306C55.275 37.8989 55.0474 37.5503 54.7054 37.3759L44.3981 33.0168C44.1705 32.9005 43.8857 32.9005 43.6577 33.0168L33.3504 37.3759C33.0088 37.5503 32.7808 37.8989 32.7808 38.306C32.7808 38.713 33.0084 39.0617 33.3504 39.236L37.6214 41.0376L33.3504 42.8393C33.0088 43.0136 32.7808 43.3623 32.7808 43.7693C32.7808 44.1764 33.0084 44.525 33.3504 44.6994L37.6214 46.501L33.3504 48.3027C33.0088 48.477 32.7808 48.8257 32.7808 49.2327C32.7808 49.6397 33.0084 49.9884 33.3504 50.1627L43.6577 54.5218C43.7717 54.5798 43.8853 54.5798 43.9993 54.5798C44.1133 54.5798 44.2269 54.5798 44.3409 54.5218L54.6482 50.1627C54.9898 49.9884 55.2178 49.6397 55.2178 49.2327C55.2178 48.8257 54.9902 48.477 54.6482 48.3027L50.3772 46.501L54.6482 44.6994C54.9898 44.525 55.2178 44.1764 55.2178 43.7693C55.2178 43.3623 54.9902 43.0136 54.6482 42.8393L50.3772 41.0376L54.6482 39.236C55.0474 39.0612 55.275 38.6546 55.275 38.306H55.275ZM51.8013 49.1165L43.9997 52.4296L36.1982 49.1165L40.0703 47.4891L43.6009 49.0001C43.7149 49.0581 43.8285 49.0581 43.9425 49.0581C44.0565 49.0581 44.1701 49.0581 44.2842 49.0001L47.8147 47.4891L51.8013 49.1165ZM51.8013 43.7114L43.9997 47.0245L36.1982 43.7114L40.0703 42.084L43.6009 43.5951C43.7149 43.6531 43.8285 43.6531 43.9425 43.6531C44.0565 43.6531 44.1701 43.6531 44.2842 43.5951L47.8147 42.084L51.8013 43.7114ZM43.9997 41.6191L36.1982 38.306L43.9997 34.9933L51.8013 38.3064L43.9997 41.6191Z" fill="white"/>
<path fill-rule="evenodd" clip-rule="evenodd" d="M47.9173 27.09C49.2648 25.9723 50.1074 24.253 50.1074 22.2756C50.1074 18.837 47.3278 16 43.9586 16C40.5892 16 37.8936 18.9229 37.8936 22.3619C37.8936 25.5428 40.2522 28.1218 43.2001 28.5516L43.2001 31.5876L44.8008 31.5876L44.8008 28.5512C46.0138 28.3744 46.9836 27.8644 47.9173 27.09ZM43.9582 17.8053C41.5155 17.8053 39.494 19.8686 39.494 22.3616C39.494 24.8547 41.5155 26.9179 43.9582 26.9179C46.4009 26.9179 48.4224 24.8547 48.4224 22.3616C48.4224 19.8685 46.4009 17.8053 43.9582 17.8053Z" fill="#818181"/>
<path d="M46.5693 22.3614C46.5693 20.8998 45.3901 19.6962 43.958 19.6962C42.5258 19.6962 41.3466 20.8998 41.3466 22.3614C41.3466 23.8231 42.5258 25.0267 43.958 25.0267C45.4742 24.9404 46.5693 23.8227 46.5693 22.3614ZM43.0315 22.3614C43.0315 21.8457 43.4527 21.4159 43.958 21.4159C44.4632 21.4159 44.8844 21.8457 44.8844 22.3614C44.8844 22.8771 44.4632 23.3069 43.958 23.3069C43.4527 23.3069 43.0315 22.8771 43.0315 22.3614Z" fill="#818181"/>
<path fill-rule="evenodd" clip-rule="evenodd" d="M34.3461 27.9163C34.5246 26.1535 33.9292 24.3297 32.5593 22.9314C30.1769 20.5 26.2459 20.5 23.8636 22.9314C21.481 25.3631 21.6 29.3753 23.9826 31.807C26.1864 34.0563 29.6408 34.1778 32.0231 32.3542L34.1265 34.501L35.2584 33.3457L33.1547 31.1987C33.89 30.1983 34.2224 29.1377 34.3461 27.9163ZM25.114 24.2083C23.3867 25.9712 23.3868 28.889 25.114 30.6519C26.8412 32.4147 29.7001 32.4148 31.4273 30.6519C33.1546 28.889 33.1546 25.9712 31.4273 24.2083C29.7001 22.4454 26.8412 22.4454 25.114 24.2083Z" fill="#818181"/>
<path d="M30.1185 25.5449C29.1058 24.5113 27.4381 24.5113 26.4254 25.5449C25.4128 26.5784 25.4128 28.2806 26.4254 29.3141C27.4381 30.3477 29.1058 30.3477 30.1185 29.3141C31.1308 28.1589 31.1309 26.5782 30.1185 25.5449ZM27.6169 28.0981C27.2596 27.7334 27.2596 27.1256 27.6169 26.7609C27.9742 26.3963 28.5698 26.3963 28.927 26.7609C29.2843 27.1256 29.2843 27.7334 28.927 28.0981C28.5698 28.4628 27.9742 28.4628 27.6169 28.0981Z" fill="#818181"/>
<path fill-rule="evenodd" clip-rule="evenodd" d="M26.8658 39.4252C25.7708 38.0498 24.0862 37.1898 22.1488 37.1898C18.7796 37.1898 16 40.0268 16 43.4655C16 46.9044 18.8638 49.6556 22.2333 49.6556C25.3499 49.6556 27.8767 47.2484 28.2979 44.2396L31.2726 44.2396V42.6059L28.2975 42.6059C28.1243 41.3679 27.6245 40.378 26.8658 39.4252ZM17.7688 43.4659C17.7688 45.959 19.7904 48.0222 22.233 48.0222C24.6757 48.0222 26.6972 45.959 26.6972 43.4659C26.6972 40.9728 24.6757 38.9096 22.233 38.9096C19.7903 38.9096 17.7688 40.9728 17.7688 43.4659Z" fill="#818181"/>
<path d="M22.2335 40.8002C20.8013 40.8002 19.6221 42.0038 19.6221 43.4654C19.6221 44.9271 20.8013 46.1307 22.2335 46.1307C23.6656 46.1307 24.8448 44.9271 24.8448 43.4654C24.7603 41.9179 23.6652 40.8002 22.2335 40.8002ZM22.2335 44.411C21.7282 44.411 21.307 43.9811 21.307 43.4654C21.307 42.9497 21.7282 42.5199 22.2335 42.5199C22.7387 42.5199 23.1599 42.9497 23.1599 43.4654C23.1599 43.9811 22.7387 44.411 22.2335 44.411Z" fill="#818181"/>
<path fill-rule="evenodd" clip-rule="evenodd" d="M28.8077 54.4301C27.0805 54.2479 25.2935 54.8555 23.9235 56.2537C21.5412 58.6852 21.5412 62.6973 23.9235 65.1288C26.3061 67.5605 30.2372 67.4391 32.6197 65.0074C34.8235 62.7581 34.9425 59.2324 33.1558 56.801L35.2592 54.6541L34.1273 53.4989L32.0236 55.646C31.0435 54.8956 30.0043 54.5563 28.8077 54.4301ZM25.1745 63.8526C26.9018 65.6155 29.7607 65.6154 31.4879 63.8526C33.2152 62.0897 33.2152 59.1719 31.4879 57.409C29.7606 55.6461 26.9018 55.6461 25.1745 57.409C23.4473 59.1719 23.4473 62.0897 25.1745 63.8526Z" fill="#818181"/>
<path d="M26.4847 58.7461C25.4721 59.7797 25.4721 61.4818 26.4847 62.5154C27.4974 63.5489 29.1651 63.5489 30.1778 62.5154C31.1904 61.4818 31.1904 59.7797 30.1778 58.7461C29.0459 57.7129 27.4971 57.7129 26.4847 58.7461ZM28.9863 61.2993C28.629 61.664 28.0334 61.664 27.6762 61.2993C27.3189 60.9347 27.3189 60.3268 27.6762 59.9621C28.0334 59.5975 28.629 59.5975 28.9863 59.9621C29.3436 60.3268 29.3436 60.9347 28.9863 61.2993Z" fill="#818181"/>
<path fill-rule="evenodd" clip-rule="evenodd" d="M47.9173 60.91C49.2648 62.0277 50.1074 63.747 50.1074 65.7244C50.1074 69.163 47.3278 72 43.9586 72C40.5892 72 37.8936 69.0771 37.8936 65.6381C37.8936 62.4572 40.2522 59.8782 43.2001 59.4484L43.2001 56.4124L44.8008 56.4124L44.8008 59.4488C46.0138 59.6256 46.9836 60.1356 47.9173 60.91ZM43.9582 70.1947C41.5155 70.1947 39.494 68.1314 39.494 65.6384C39.494 63.1453 41.5155 61.0821 43.9582 61.0821C46.4009 61.0821 48.4224 63.1453 48.4224 65.6384C48.4224 68.1315 46.4009 70.1947 43.9582 70.1947Z" fill="#818181"/>
<path d="M46.5693 65.6386C46.5693 67.1002 45.3901 68.3038 43.958 68.3038C42.5258 68.3038 41.3466 67.1002 41.3466 65.6386C41.3466 64.1769 42.5258 62.9733 43.958 62.9733C45.4742 63.0596 46.5693 64.1773 46.5693 65.6386ZM43.0315 65.6386C43.0315 66.1543 43.4527 66.5841 43.958 66.5841C44.4632 66.5841 44.8844 66.1543 44.8844 65.6386C44.8844 65.1229 44.4632 64.6931 43.958 64.6931C43.4527 64.6931 43.0315 65.1229 43.0315 65.6386Z" fill="#818181"/>
<path fill-rule="evenodd" clip-rule="evenodd" d="M53.6539 60.0837C53.4754 61.8465 54.0708 63.6703 55.4407 65.0686C57.8231 67.5 61.7541 67.5 64.1364 65.0686C66.519 62.6369 66.4 58.6247 64.0174 56.193C61.8136 53.9437 58.3592 53.8222 55.9769 55.6458L53.8735 53.499L52.7416 54.6543L54.8453 56.8013C54.11 57.8017 53.7776 58.8623 53.6539 60.0837ZM62.886 63.7917C64.6133 62.0288 64.6132 59.111 62.886 57.3481C61.1588 55.5852 58.2999 55.5852 56.5727 57.3481C54.8454 59.111 54.8454 62.0288 56.5727 63.7917C58.2999 65.5546 61.1588 65.5546 62.886 63.7917Z" fill="#818181"/>
<path d="M57.8815 62.455C58.8942 63.4885 60.5619 63.4885 61.5746 62.455C62.5872 61.4214 62.5872 59.7193 61.5746 58.6857C60.5619 57.6522 58.8942 57.6522 57.8815 58.6857C56.8692 59.841 56.8691 61.4217 57.8815 62.455ZM60.3831 59.9018C60.7404 60.2664 60.7404 60.8743 60.3831 61.239C60.0258 61.6036 59.4302 61.6036 59.073 61.239C58.7157 60.8743 58.7157 60.2664 59.073 59.9018C59.4302 59.5371 60.0258 59.5371 60.3831 59.9018Z" fill="#818181"/>
<path fill-rule="evenodd" clip-rule="evenodd" d="M61.1342 47.4202C62.2292 48.7955 63.9138 49.6555 65.8512 49.6555C69.2203 49.6555 72 46.8185 72 43.3799C72 39.9409 69.1362 37.1898 65.7667 37.1898C62.6501 37.1898 60.1233 39.597 59.7021 42.6057L56.7274 42.6057L56.7274 44.2395L59.7025 44.2395C59.8757 45.4774 60.3755 46.4673 61.1342 47.4202ZM70.2312 43.3794C70.2312 40.8863 68.2096 38.8231 65.767 38.8231C63.3243 38.8231 61.3028 40.8863 61.3028 43.3794C61.3028 45.8726 63.3243 47.9358 65.767 47.9358C68.2097 47.9358 70.2312 45.8726 70.2312 43.3794Z" fill="#818181"/>
<path d="M65.7665 46.045C67.1987 46.045 68.3779 44.8415 68.3779 43.3798C68.3779 41.9181 67.1987 40.7145 65.7665 40.7145C64.3344 40.7145 63.1552 41.9181 63.1552 43.3798C63.2397 44.9273 64.3348 46.045 65.7665 46.045ZM65.7665 42.4343C66.2718 42.4343 66.693 42.8641 66.693 43.3798C66.693 43.8955 66.2718 44.3253 65.7665 44.3253C65.2613 44.3253 64.8401 43.8955 64.8401 43.3798C64.8401 42.8641 65.2613 42.4343 65.7665 42.4343Z" fill="#818181"/>
<path fill-rule="evenodd" clip-rule="evenodd" d="M59.1928 33.5699C60.92 33.7521 62.707 33.1445 64.077 31.7463C66.4593 29.3148 66.4593 25.3027 64.077 22.8712C61.6944 20.4395 57.7633 20.5609 55.3808 22.9926C53.1769 25.2419 53.058 28.7676 54.8447 31.199L52.7412 33.3459L53.8731 34.5011L55.9768 32.354C56.957 33.1044 57.9962 33.4437 59.1928 33.5699ZM62.8259 24.1474C61.0987 22.3845 58.2398 22.3846 56.5126 24.1474C54.7853 25.9103 54.7853 28.8281 56.5126 30.591C58.2398 32.3539 61.0987 32.3539 62.8259 30.591C64.5532 28.8281 64.5532 25.9103 62.8259 24.1474Z" fill="#818181"/>
<path d="M61.5153 29.254C62.5279 28.2205 62.5279 26.5183 61.5153 25.4848C60.5026 24.4512 58.8349 24.4512 57.8222 25.4848C56.8096 26.5183 56.8096 28.2205 57.8222 29.254C58.9541 30.2872 60.5029 30.2873 61.5153 29.254ZM59.0137 26.7008C59.371 26.3361 59.9666 26.3361 60.3238 26.7008C60.6811 27.0655 60.6811 27.6733 60.3238 28.038C59.9666 28.4026 59.371 28.4026 59.0137 28.038C58.6564 27.6733 58.6564 27.0655 59.0137 26.7008Z" fill="#818181"/>
</svg>