<svg width="88" height="88" viewBox="0 0 88 88" fill="none" xmlns="http://www.w3.org/2000/svg">
<rect width="88" height="88" rx="5" fill="#242424"/>
<path d="M56.2131 40.3137C57.192 40.3137 57.9891 41.1109 57.9891 42.0897V62.6637C57.9891 63.6426 57.192 64.4397 56.2131 64.4397L31.7887 64.4393C30.8098 64.4393 30.0127 63.6422 30.0127 62.6633L30.0131 42.0853C30.0131 41.1064 30.8102 40.3093 31.7891 40.3093L56.2131 40.3137ZM47.6433 49.7566C47.6724 47.7697 46.0787 46.1142 44.0953 46.0665C43.1054 46.0449 42.1742 46.4084 41.4679 47.1001C40.7621 47.7914 40.3726 48.716 40.3726 49.7019C40.3726 50.9392 41.0021 52.0853 42.0282 52.7514L42.0286 56.6995C42.0286 57.7913 42.9166 58.6788 44.008 58.6788C45.0997 58.6788 45.9873 57.7908 45.9873 56.6995V52.7549C46.9992 52.0963 47.6287 50.9719 47.6432 49.7565L47.6433 49.7566Z" fill="white"/>
<path d="M54.4695 34.9101V39.4224H52.1479V34.9101C52.1479 32.7375 51.3 30.6924 49.7644 29.1533C48.2289 27.6142 46.1838 26.7699 44.0077 26.7699C41.8352 26.7699 39.7901 27.6178 38.251 29.1533C36.7154 30.6889 35.8676 32.734 35.8676 34.9101V39.4224H33.5459V34.9101C33.5459 33.498 33.8225 32.13 34.3682 30.838C34.8958 29.5936 35.6492 28.4727 36.6096 27.5158C37.5704 26.5551 38.6873 25.802 39.9317 25.2744C41.2233 24.7287 42.5917 24.4521 44.0038 24.4521C45.4159 24.4521 46.7839 24.7287 48.0759 25.2744C49.3203 25.802 50.4412 26.5555 51.398 27.5158C52.3588 28.4766 53.1119 29.5936 53.6394 30.838C54.1894 32.13 54.4696 33.5019 54.4696 34.9101H54.4695Z" fill="white"/>
<path d="M71.9481 58.5449V63.3554C71.9481 63.5994 71.7479 63.7992 71.5043 63.7992C71.2604 63.7992 71.0605 63.599 71.0605 63.3554V58.5449C71.0605 58.3009 71.2608 58.1011 71.5043 58.1011C71.7479 58.1011 71.9481 58.3013 71.9481 58.5449Z" fill="#818181"/>
<path d="M71.9475 49.9092V54.7198C71.9475 54.9637 71.7473 55.1636 71.5037 55.1636C71.2598 55.1636 71.06 54.9633 71.06 54.7198L71.0596 49.9092C71.0596 49.6653 71.2598 49.4655 71.5034 49.4655C71.7473 49.4655 71.9475 49.6657 71.9475 49.9092H71.9475Z" fill="#818181"/>
<path d="M71.9475 41.2746V46.0852C71.9475 46.3291 71.7473 46.5289 71.5037 46.5289C71.2598 46.5289 71.06 46.3287 71.06 46.0852L71.0596 41.2746C71.0596 41.0307 71.2598 40.8308 71.5034 40.8308C71.7473 40.8308 71.9475 41.0311 71.9475 41.2746H71.9475Z" fill="#818181"/>
<path d="M71.9475 32.6429V37.4535C71.9475 37.6974 71.7473 37.8972 71.5037 37.8972C71.2598 37.8972 71.06 37.697 71.06 37.4535L71.0596 32.6429C71.0596 32.399 71.2598 32.1991 71.5034 32.1991C71.7473 32.1987 71.9475 32.3954 71.9475 32.6429H71.9475Z" fill="#818181"/>
<path d="M71.9475 24.008V28.8186C71.9475 29.0625 71.7473 29.2624 71.5037 29.2624C71.2598 29.2624 71.06 29.0621 71.06 28.8186L71.0596 24.008C71.0596 23.7641 71.2598 23.5642 71.5034 23.5642C71.7473 23.5638 71.9475 23.7641 71.9475 24.008H71.9475Z" fill="#818181"/>
<path d="M67.8603 60.088V61.8093C67.8603 62.8972 66.9723 63.7851 65.8845 63.7851H65.4367C64.345 63.7851 63.4609 62.8971 63.4609 61.8093V60.088C63.4609 58.9962 64.3489 58.1122 65.4367 58.1122H65.8845C66.9759 58.1122 67.8603 59.0002 67.8603 60.088ZM66.9758 61.8128V60.0915C66.9758 59.4911 66.4884 59.0036 65.888 59.0036H65.4403C64.8399 59.0036 64.3524 59.4911 64.3524 60.0915V61.8128C64.3524 62.4132 64.8398 62.9007 65.4403 62.9007H65.888C66.4848 62.9007 66.9758 62.4132 66.9758 61.8128Z" fill="#818181"/>
<path d="M67.8603 51.4562V53.1775C67.8603 54.2693 66.9723 55.1533 65.8845 55.1533H65.4367C64.345 55.1533 63.4609 54.2653 63.4609 53.1775V51.4562C63.4609 50.3644 64.3489 49.4804 65.4367 49.4804H65.8845C66.9759 49.4768 67.8603 50.3648 67.8603 51.4562ZM66.9758 53.1775V51.4562C66.9758 50.8558 66.4884 50.3683 65.888 50.3683H65.4403C64.8399 50.3683 64.3524 50.8558 64.3524 51.4562V53.1775C64.3524 53.7778 64.8398 54.2653 65.4403 54.2653H65.888C66.4848 54.2657 66.9758 53.7779 66.9758 53.1775Z" fill="#818181"/>
<path d="M67.8603 42.8205V44.5418C67.8603 45.6336 66.9723 46.5177 65.8845 46.5177H65.4367C64.345 46.5177 63.4609 45.6297 63.4609 44.5418V42.8205C63.4609 41.7327 64.3489 40.8447 65.4367 40.8447H65.8845C66.9759 40.8447 67.8603 41.7292 67.8603 42.8205ZM66.9758 44.5418V42.8205C66.9758 42.2202 66.4884 41.7327 65.888 41.7327H65.4403C64.8399 41.7327 64.3524 42.2201 64.3524 42.8205V44.5418C64.3524 45.1422 64.8398 45.6297 65.4403 45.6297H65.888C66.4848 45.6336 66.9758 45.1422 66.9758 44.5418Z" fill="#818181"/>
<path d="M67.8603 34.1859V35.9072C67.8603 36.9951 66.9723 37.883 65.8845 37.883H65.4367C64.345 37.883 63.4609 36.995 63.4609 35.9072V34.1859C63.4609 33.098 64.3489 32.2101 65.4367 32.2101H65.8845C66.9759 32.2101 67.8603 33.0981 67.8603 34.1859ZM66.9758 35.9072V34.1859C66.9758 33.5855 66.4884 33.098 65.888 33.098H65.4403C64.8399 33.098 64.3524 33.5855 64.3524 34.1859V35.9072C64.3524 36.5076 64.8398 36.9951 65.4403 36.9951H65.888C66.4848 36.999 66.9758 36.5076 66.9758 35.9072Z" fill="#818181"/>
<path d="M67.8603 25.5505V27.2718C67.8603 28.3597 66.9723 29.2476 65.8845 29.2476H65.4367C64.345 29.2476 63.4609 28.3596 63.4609 27.2718V25.5505C63.4609 24.4626 64.3489 23.5747 65.4367 23.5747H65.8845C66.9759 23.5747 67.8603 24.4627 67.8603 25.5505ZM66.9758 27.2753V25.5505C66.9758 24.9501 66.4884 24.4626 65.888 24.4626H65.4403C64.8399 24.4626 64.3524 24.9501 64.3524 25.5505V27.2718C64.3524 27.8722 64.8398 28.3597 65.4403 28.3597H65.888C66.4848 28.3636 66.9758 27.8762 66.9758 27.2753Z" fill="#818181"/>
<path d="M60.262 32.6429V37.4535C60.262 37.6974 60.0617 37.8972 59.8182 37.8972C59.5743 37.8972 59.3744 37.697 59.3744 37.4535L59.374 32.6429C59.374 32.399 59.5743 32.1991 59.8178 32.1991C60.0653 32.1987 60.262 32.3954 60.262 32.6429H60.262Z" fill="#818181"/>
<path d="M60.262 24.008V28.8186C60.262 29.0625 60.0617 29.2624 59.8182 29.2624C59.5743 29.2624 59.3744 29.0621 59.3744 28.8186L59.374 24.008C59.374 23.7641 59.5743 23.5642 59.8178 23.5642C60.0653 23.5638 60.262 23.7641 60.262 24.008H60.262Z" fill="#818181"/>
<path d="M28.6263 32.6429V37.4535C28.6263 37.6974 28.426 37.8972 28.1825 37.8972C27.9385 37.8972 27.7387 37.697 27.7387 37.4535L27.7383 32.6429C27.7383 32.399 27.9385 32.1991 28.1821 32.1991C28.426 32.1987 28.6263 32.3954 28.6263 32.6429H28.6263Z" fill="#818181"/>
<path d="M28.6263 24.008V28.8186C28.6263 29.0625 28.426 29.2624 28.1825 29.2624C27.9385 29.2624 27.7387 29.0621 27.7387 28.8186L27.7383 24.008C27.7383 23.7641 27.9385 23.5642 28.1821 23.5642C28.426 23.5638 28.6263 23.7641 28.6263 24.008H28.6263Z" fill="#818181"/>
<path d="M24.54 60.088V61.8093C24.54 62.8972 23.652 63.7851 22.5642 63.7851H22.1164C21.0286 63.7851 20.1406 62.8971 20.1406 61.8093V60.088C20.1406 58.9962 21.0286 58.1122 22.1164 58.1122H22.5642C23.652 58.1122 24.54 59.0002 24.54 60.088ZM23.652 61.8128V60.0915C23.652 59.4911 23.1645 59.0036 22.5641 59.0036H22.1164C21.516 59.0036 21.0285 59.4911 21.0285 60.0915V61.8128C21.0285 62.4132 21.516 62.9007 22.1164 62.9007H22.5641C23.1645 62.9007 23.652 62.4132 23.652 61.8128Z" fill="#818181"/>
<path d="M24.54 51.4562V53.1775C24.54 54.2693 23.652 55.1533 22.5642 55.1533H22.1164C21.0286 55.1533 20.1406 54.2653 20.1406 53.1775V51.4562C20.1406 50.3644 21.0286 49.4804 22.1164 49.4804H22.5642C23.652 49.4768 24.54 50.3648 24.54 51.4562ZM23.652 53.1775V51.4562C23.652 50.8558 23.1645 50.3683 22.5641 50.3683H22.1164C21.516 50.3683 21.0285 50.8558 21.0285 51.4562V53.1775C21.0285 53.7778 21.516 54.2653 22.1164 54.2653H22.5641C23.1645 54.2657 23.652 53.7779 23.652 53.1775Z" fill="#818181"/>
<path d="M24.54 42.8205V44.5418C24.54 45.6336 23.652 46.5177 22.5642 46.5177H22.1164C21.0286 46.5177 20.1406 45.6297 20.1406 44.5418V42.8205C20.1406 41.7327 21.0286 40.8447 22.1164 40.8447H22.5642C23.652 40.8447 24.54 41.7292 24.54 42.8205ZM23.652 44.5418V42.8205C23.652 42.2202 23.1645 41.7327 22.5641 41.7327H22.1164C21.516 41.7327 21.0285 42.2201 21.0285 42.8205V44.5418C21.0285 45.1422 21.516 45.6297 22.1164 45.6297H22.5641C23.1645 45.6336 23.652 45.1422 23.652 44.5418Z" fill="#818181"/>
<path d="M24.54 34.1859V35.9072C24.54 36.9951 23.652 37.883 22.5642 37.883H22.1164C21.0286 37.883 20.1406 36.995 20.1406 35.9072V34.1859C20.1406 33.098 21.0286 32.2101 22.1164 32.2101H22.5642C23.652 32.2101 24.54 33.0981 24.54 34.1859ZM23.652 35.9072V34.1859C23.652 33.5855 23.1645 33.098 22.5641 33.098H22.1164C21.516 33.098 21.0285 33.5855 21.0285 34.1859V35.9072C21.0285 36.5076 21.516 36.9951 22.1164 36.9951H22.5641C23.1645 36.999 23.652 36.5076 23.652 35.9072Z" fill="#818181"/>
<path d="M24.54 25.5505V27.2718C24.54 28.3597 23.652 29.2476 22.5642 29.2476H22.1164C21.0286 29.2476 20.1406 28.3596 20.1406 27.2718V25.5505C20.1406 24.4626 21.0286 23.5747 22.1164 23.5747H22.5642C23.652 23.5747 24.54 24.4627 24.54 25.5505ZM23.652 27.2753V25.5505C23.652 24.9501 23.1645 24.4626 22.5641 24.4626H22.1164C21.516 24.4626 21.0285 24.9501 21.0285 25.5505V27.2718C21.0285 27.8722 21.516 28.3597 22.1164 28.3597H22.5641C23.1645 28.3636 23.652 27.8762 23.652 27.2753Z" fill="#818181"/>
<path d="M16.9417 58.545V63.3555C16.9417 63.5995 16.7414 63.7993 16.4979 63.7993C16.254 63.7997 16.0537 63.5994 16.0537 63.3559V58.5454C16.0537 58.3014 16.254 58.1016 16.4975 58.1016C16.7414 58.1012 16.9417 58.3014 16.9417 58.545Z" fill="#818181"/>
<path d="M16.9417 49.9093V54.7198C16.9417 54.9637 16.7414 55.1636 16.4979 55.1636C16.254 55.164 16.0537 54.9637 16.0537 54.7202V49.9092C16.0537 49.6653 16.254 49.4655 16.4975 49.4655C16.7414 49.4655 16.9417 49.6657 16.9417 49.9092V49.9093Z" fill="#818181"/>
<path d="M16.9417 41.2746V46.0852C16.9417 46.3291 16.7414 46.529 16.4979 46.529C16.254 46.5294 16.0537 46.3291 16.0537 46.0856V41.2746C16.0537 41.0307 16.254 40.8308 16.4975 40.8308C16.7414 40.8308 16.9417 41.0311 16.9417 41.2746V41.2746Z" fill="#818181"/>
<path d="M16.9417 32.6429V37.4535C16.9417 37.6974 16.7414 37.8972 16.4979 37.8972C16.254 37.8972 16.0537 37.6974 16.0537 37.4535V32.6429C16.0537 32.399 16.254 32.1991 16.4975 32.1991C16.7414 32.1987 16.9417 32.3954 16.9417 32.6429Z" fill="#818181"/>
<path d="M16.9417 24.008V28.8186C16.9417 29.0625 16.7414 29.2623 16.4979 29.2623C16.254 29.2623 16.0537 29.0625 16.0537 28.8186V24.008C16.0537 23.7641 16.254 23.5642 16.4975 23.5642C16.7414 23.5638 16.9417 23.7641 16.9417 24.008Z" fill="#818181"/>
</svg>