<svg width="88" height="88" viewBox="0 0 88 88" fill="none" xmlns="http://www.w3.org/2000/svg">
<rect width="88" height="88" rx="5" fill="#242424"/>
<g clip-path="url(#clip0_252_1797)">
<path d="M69.4085 15.8669H18.6852C17.0883 15.8669 15.8672 17.0881 15.8672 18.6849V69.4083C15.8672 71.0051 17.0883 72.2263 18.6852 72.2263H69.4085C71.0054 72.2263 72.2265 71.0051 72.2265 69.4083V18.6849C72.2265 17.0881 71.0054 15.8669 69.4085 15.8669ZM62.8333 17.7456C63.8665 17.7456 64.7119 18.591 64.7119 19.6242C64.7119 20.6575 63.8665 21.5029 62.8333 21.5029C61.8 21.5029 60.9546 20.6575 60.9546 19.6242C60.9546 18.591 61.8 17.7456 62.8333 17.7456ZM57.1974 17.7456C58.2306 17.7456 59.076 18.591 59.076 19.6242C59.076 20.6575 58.2306 21.5029 57.1974 21.5029C56.1641 21.5029 55.3187 20.6575 55.3187 19.6242C55.3187 18.591 56.1641 17.7456 57.1974 17.7456ZM70.3479 69.4083C70.3479 69.9719 69.9721 70.3476 69.4085 70.3476H18.6852C18.1216 70.3476 17.7458 69.9719 17.7458 69.4083V23.3815H70.3479V69.4083ZM68.4692 21.5029C67.436 21.5029 66.5906 20.6575 66.5906 19.6242C66.5906 18.591 67.436 17.7456 68.4692 17.7456C69.5025 17.7456 70.3479 18.591 70.3479 19.6242C70.3479 20.6575 69.5025 21.5029 68.4692 21.5029Z" fill="white"/>
<path d="M34.9358 53.3188C35.2735 53.713 35.76 53.9484 36.279 53.9684C36.7976 53.9887 37.3013 53.7912 37.6681 53.4244C38.0353 53.0572 38.2324 52.5535 38.2124 52.0349C38.1925 51.5163 37.9571 51.0293 37.5628 50.6917L33.5197 46.6394L37.5628 42.5872C37.9733 42.1077 38.1135 41.4527 37.9342 40.8467C37.755 40.2412 37.2813 39.7675 36.6758 39.5888C36.0703 39.4095 35.4153 39.5497 34.9358 39.9601L29.5698 45.3261C29.2229 45.6751 29.0283 46.1471 29.0283 46.6395C29.0283 47.1319 29.2229 47.6039 29.5698 47.9528L34.9358 53.3188Z" fill="#2DFF73"/>
<path d="M50.4371 53.3188C50.7864 53.6656 51.2584 53.8607 51.7508 53.8607C52.2428 53.8607 52.7153 53.6656 53.0642 53.3188L58.4302 47.9528C58.777 47.6039 58.9716 47.1319 58.9716 46.6394C58.9716 46.147 58.777 45.675 58.4302 45.3261L53.0642 39.9601C52.7265 39.5659 52.2399 39.3305 51.7209 39.3105C51.2023 39.2901 50.6987 39.4877 50.3319 39.8545C49.9647 40.2217 49.7676 40.7253 49.7875 41.2439C49.8075 41.7625 50.0429 42.2495 50.4371 42.5872L54.4803 46.6394L50.4371 50.6917C50.0903 51.0406 49.8956 51.513 49.8956 52.005C49.8956 52.4974 50.0903 52.9694 50.4371 53.3188L50.4371 53.3188Z" fill="#2DFF73"/>
<path d="M40.6839 55.8431C40.8873 55.9154 41.1014 55.9533 41.3173 55.9549C41.7003 55.9549 42.0738 55.8368 42.3869 55.6164C42.7005 55.3964 42.9384 55.0853 43.0685 54.7252L48.4341 39.8202C48.6391 39.2002 48.504 38.5182 48.0785 38.0224C47.6531 37.5271 46.9989 37.2904 46.3551 37.3994C45.7109 37.5079 45.1711 37.9459 44.9316 38.5535L39.566 53.4584C39.398 53.923 39.4217 54.4349 39.6313 54.8819C39.8409 55.3294 40.2193 55.675 40.6839 55.843L40.6839 55.8431Z" fill="#2DFF73"/>
</g>
<defs>
<clipPath id="clip0_252_1797">
<rect width="56" height="56" fill="white" transform="translate(16 16)"/>
</clipPath>
</defs>
</svg>