<svg width="88" height="88" viewBox="0 0 88 88" fill="none" xmlns="http://www.w3.org/2000/svg">
<rect width="88" height="88" rx="4.4" fill="#242424"/>
<path d="M19.6721 39.4138C20.8916 38.1944 20.1366 36.8591 18.8014 36.8013C16.595 36.685 15.3176 34.3049 17.1179 32.3306C19.0918 30.5309 21.4723 31.8082 21.5885 34.0141C21.6464 35.3494 22.9821 36.1043 24.2011 34.8848L27.162 31.9239C28.0327 31.0532 29.4842 31.0532 30.3554 31.9239L33.3163 34.8848C34.5358 36.1043 35.871 35.3494 35.9289 34.0141C36.0451 31.8078 38.4252 30.5304 40.3995 32.3885C42.1993 34.3624 40.9803 36.7429 38.716 36.8591C37.3808 36.917 36.6259 38.2527 37.8453 39.4717L40.8645 42.4909C41.7352 43.3616 41.7352 44.8131 40.8645 45.6843L38.6586 47.8902C38.4265 47.1936 38.0199 46.4967 37.4975 45.9742C35.6394 44.1161 32.8526 44.1745 30.8209 46.0905L30.705 46.2063C28.7891 48.2386 28.7891 51.0832 30.5888 52.8829C31.1112 53.4054 31.7499 53.812 32.5048 54.044L30.4146 56.1341C29.4856 57.0049 28.0341 57.0049 27.1634 56.1341L24.2025 53.1732C22.983 51.9538 21.6478 52.7087 21.5899 54.0439C21.4721 56.1929 19.0915 57.4118 17.1176 55.6121C15.3178 53.6381 16.5368 51.2576 18.7432 51.1414C20.0785 51.0835 20.8334 49.7479 19.614 48.5288L16.653 45.5679C15.7823 44.6972 15.7823 43.2457 16.653 42.3745L19.6721 39.4138ZM31.9807 27.1053C31.11 27.976 31.0516 29.4858 31.9807 30.3565L34.0708 32.4466C34.3029 31.75 34.7095 31.0531 35.2319 30.5307C37.09 28.6726 39.8767 28.7309 41.9085 30.6469L42.0243 30.7627C43.9403 32.795 43.9403 35.6396 42.1406 37.4393C41.6181 37.9618 40.9795 38.3684 40.2246 38.6004L42.4306 40.8064C43.3013 41.6771 44.7527 41.6771 45.6239 40.8064L48.6431 37.7872C49.8626 36.5677 51.1978 37.3227 51.2557 38.6579C51.3719 40.8643 53.752 42.1417 55.7264 40.3414C57.5261 38.3675 56.3071 35.987 54.1007 35.8707C52.7654 35.8128 52.0106 34.4772 53.23 33.2582L56.1909 30.2973C57.0616 29.4265 57.0616 27.9751 56.1909 27.1039L53.23 24.143C52.0105 22.9235 52.7654 21.5883 54.1007 21.5304C56.307 21.4142 57.5845 19.0341 55.7842 17.0597C53.8103 15.26 51.4298 16.479 51.3135 18.7432C51.2556 20.0785 49.92 20.8334 48.701 19.614L45.74 16.653C44.8693 15.7823 43.4179 15.7823 42.5467 16.653L39.5858 19.614C38.3663 20.8334 37.0894 20.1364 36.9732 18.7432C36.857 16.5369 34.4768 15.2595 32.5025 17.1176C30.7028 19.0915 31.9218 21.472 34.1282 21.5883C35.4634 21.6462 36.2183 22.9818 34.9989 24.2008L31.9807 27.1053ZM57.4687 35.1176C59.3268 36.9757 59.2685 39.7624 57.3525 41.7942L57.2367 41.91C55.2044 43.826 52.3598 43.826 50.56 42.0262C50.0376 41.5038 49.631 40.8652 49.399 40.1103L47.193 42.3162C46.3223 43.1869 46.3223 44.6384 47.193 45.5096L50.2122 48.5288C51.4317 49.7482 50.6767 51.0835 49.3415 51.1413C47.1351 51.2576 45.8577 53.6377 47.658 55.612C49.6319 57.4118 52.0124 56.1928 52.1286 53.9864C52.1866 52.6511 53.5222 51.8962 54.7412 53.1156L57.7021 56.0766C58.5729 56.9473 60.0243 56.9473 60.8955 56.0766L63.8564 53.1156C65.0759 51.8962 66.4111 52.6511 66.469 53.9864C66.5852 56.1927 68.9653 57.4701 70.9397 55.6699C72.7394 53.696 71.5204 51.3154 69.2561 51.1992C67.9209 51.1413 67.166 49.8057 68.3854 48.5866L71.3464 45.6257C72.2171 44.755 72.2171 43.3035 71.3464 42.4323L68.3854 39.4714C67.166 38.252 67.863 36.9751 69.2561 36.8589C71.4625 36.7426 72.7399 34.3625 70.8818 32.3882C68.9079 30.5884 66.5274 31.8074 66.4111 34.0138C66.3532 35.3491 65.0176 36.104 63.7986 34.8846L60.8377 31.9236C59.9669 31.0529 58.4571 31.0529 57.5864 31.9236L55.4963 34.0138C56.3079 34.1883 56.9465 34.5949 57.469 35.1174L57.4687 35.1176ZM34.0128 66.4696C31.8064 66.5858 30.529 68.9659 32.3292 70.9403C34.3032 72.74 36.6837 71.521 36.7999 69.2568C36.8578 67.9215 38.1934 67.1666 39.4125 68.386L42.3734 71.347C43.2441 72.2177 44.6956 72.2177 45.5668 71.347L48.5277 68.386C49.7471 67.1666 51.024 67.8636 51.1403 69.2568C51.2565 71.4631 53.6366 72.7405 55.6109 70.8824C57.4107 68.9085 56.1917 66.528 53.9853 66.4117C52.65 66.3538 51.8951 65.0182 53.1145 63.7992L56.0755 60.8383C56.9462 59.9675 56.9462 58.4577 56.0755 57.587L53.9853 55.4969C53.7533 56.1935 53.3467 56.8904 52.8242 57.4129C50.9661 59.271 48.1794 59.2126 46.1476 57.2966L46.0318 57.1808C44.1158 55.1485 44.1158 52.3039 45.9156 50.5042C46.438 49.9817 47.0767 49.5751 47.8315 49.3431L45.6256 47.1372C44.7549 46.2664 43.3034 46.2664 42.4322 47.1372L39.4122 50.1551C38.1927 51.3746 36.8575 50.6196 36.7996 49.2844C36.6834 47.078 34.3033 45.8006 32.329 47.6009C30.5292 49.5748 31.7482 51.9553 33.9546 52.0715C35.2899 52.1295 36.0448 53.4651 34.8253 54.6841L31.8644 57.645C30.9937 58.5158 30.9937 59.9672 31.8644 60.8384L34.8253 63.7993C36.1031 65.0766 35.3482 66.4119 34.0129 66.4698L34.0128 66.4696Z" fill="#818181"/>
<path d="M19.6721 39.4137C20.8916 38.1943 20.1366 36.859 18.8014 36.8012C16.595 36.6849 15.3176 34.3048 17.1179 32.3305C19.0918 30.5307 21.4723 31.808 21.5885 34.014C21.6464 35.3493 22.9821 36.1041 24.2011 34.8847L27.162 31.9238C28.0327 31.0531 29.4842 31.0531 30.3554 31.9238L33.3163 34.8847C34.5358 36.1042 35.871 35.3492 35.9289 34.014C36.0451 31.8076 38.4252 30.5302 40.3995 32.3883C42.1993 34.3622 40.9803 36.7428 38.716 36.859C37.3808 36.9169 36.6259 38.2525 37.8453 39.4716L40.8645 42.4908C41.7352 43.3615 41.7352 44.8129 40.8645 45.6841L38.6586 47.8901C38.4265 47.1935 38.0199 46.4965 37.4975 45.9741C35.6394 44.116 32.8526 44.1744 30.8209 46.0903L30.705 46.2062C28.7891 48.2385 28.7891 51.0831 30.5888 52.8828C31.1112 53.4052 31.7499 53.8118 32.5048 54.0439L30.4146 56.134C29.4856 57.0047 28.0341 57.0047 27.1634 56.134L24.2025 53.1731C22.983 51.9536 21.6478 52.7086 21.5899 54.0438C21.4721 56.1927 19.0915 57.4117 17.1176 55.6119C15.3178 53.638 16.5368 51.2575 18.7432 51.1413C20.0785 51.0833 20.8334 49.7477 19.614 48.5287L16.653 45.5678C15.7823 44.697 15.7823 43.2456 16.653 42.3744L19.6721 39.4137Z" fill="white"/>
</svg>