<svg width="88" height="88" viewBox="0 0 88 88" fill="none" xmlns="http://www.w3.org/2000/svg">
<rect width="88" height="88" rx="5" fill="#242424"/>
<path d="M27.5433 35.4365L30.7615 21.8423H32.5593L32.9699 24.1062L29.5408 38H27.6099L27.5433 35.4365ZM25.8898 21.8423L28.5532 35.4365L28.3312 38H26.1784L22.5939 21.8423H25.8898ZM35.7997 35.381L38.4298 21.8423H41.7257L38.1523 38H35.9995L35.7997 35.381ZM33.5692 21.8423L36.8096 35.492L36.7208 38H34.7899L31.3386 24.0951L31.7825 21.8423H33.5692ZM48.5061 38.2219C47.574 38.2219 46.738 38.074 45.9981 37.7781C45.2583 37.4747 44.6295 37.0567 44.1116 36.5241C43.6011 35.9914 43.209 35.3736 42.9353 34.6708C42.6615 33.9606 42.5247 33.206 42.5247 32.407V31.9631C42.5247 31.0531 42.6541 30.2208 42.9131 29.4662C43.172 28.7116 43.5419 28.0568 44.0228 27.502C44.5111 26.9471 45.103 26.5217 45.7984 26.2258C46.4938 25.9224 47.278 25.7708 48.151 25.7708C49.0018 25.7708 49.7564 25.9113 50.4149 26.1925C51.0733 26.4736 51.6245 26.8731 52.0684 27.391C52.5196 27.9089 52.86 28.5303 53.0893 29.2553C53.3187 29.973 53.4333 30.772 53.4333 31.6523V32.984H43.8896V30.8533H50.2928V30.6092C50.2928 30.1653 50.2114 29.7695 50.0487 29.4218C49.8933 29.0667 49.6565 28.7855 49.3384 28.5784C49.0203 28.3712 48.6134 28.2677 48.1177 28.2677C47.696 28.2677 47.3335 28.3601 47.0302 28.5451C46.7269 28.7301 46.479 28.989 46.2867 29.3219C46.1017 29.6548 45.9611 30.0469 45.865 30.4982C45.7762 30.9421 45.7318 31.4304 45.7318 31.9631V32.407C45.7318 32.8878 45.7984 33.3317 45.9316 33.7386C46.0721 34.1455 46.2682 34.497 46.5197 34.7929C46.7786 35.0888 47.0894 35.3182 47.4519 35.4809C47.8218 35.6437 48.2398 35.7251 48.7059 35.7251C49.2829 35.7251 49.8193 35.6141 50.315 35.3921C50.8181 35.1628 51.2509 34.8188 51.6134 34.3601L53.167 36.0469C52.9155 36.4094 52.5714 36.7571 52.1349 37.09C51.7058 37.4229 51.188 37.6967 50.5813 37.9112C49.9747 38.1184 49.2829 38.2219 48.5061 38.2219ZM55.2533 20.9545H58.4493V35.2479L58.1275 38H55.2533V20.9545ZM66.051 31.8743V32.1073C66.051 33.0025 65.9548 33.8237 65.7624 34.5709C65.5775 35.3182 65.2889 35.9655 64.8968 36.513C64.5047 37.053 64.0165 37.4747 63.432 37.7781C62.8549 38.074 62.1743 38.2219 61.3901 38.2219C60.6577 38.2219 60.0214 38.074 59.4814 37.7781C58.9487 37.4821 58.5011 37.0641 58.1386 36.5241C57.7761 35.984 57.4838 35.3514 57.2619 34.6264C57.04 33.9014 56.8735 33.1098 56.7625 32.2516V31.7411C56.8735 30.8829 57.04 30.0913 57.2619 29.3663C57.4838 28.6413 57.7761 28.0087 58.1386 27.4687C58.5011 26.9286 58.9487 26.5106 59.4814 26.2147C60.014 25.9187 60.6429 25.7708 61.3679 25.7708C62.1595 25.7708 62.8475 25.9224 63.432 26.2258C64.0239 26.5217 64.5121 26.9434 64.8968 27.4909C65.2889 28.0309 65.5775 28.6746 65.7624 29.4218C65.9548 30.1616 66.051 30.9791 66.051 31.8743ZM62.8549 32.1073V31.8743C62.8549 31.386 62.8179 30.9273 62.744 30.4982C62.6774 30.0617 62.559 29.6807 62.3888 29.3552C62.2187 29.0223 61.9856 28.7596 61.6897 28.5673C61.4012 28.3749 61.0276 28.2788 60.5689 28.2788C60.1324 28.2788 59.7625 28.3527 59.4592 28.5007C59.1558 28.6487 58.9043 28.8558 58.7045 29.1222C58.5122 29.3885 58.3679 29.7066 58.2718 30.0765C58.1756 30.439 58.1164 30.8385 58.0942 31.275V32.7288C58.1164 33.3132 58.2126 33.8311 58.3827 34.2824C58.5603 34.7263 58.8266 35.0777 59.1817 35.3366C59.5442 35.5882 60.014 35.714 60.5911 35.714C61.0424 35.714 61.416 35.6252 61.7119 35.4476C62.0078 35.2701 62.2372 35.0185 62.3999 34.693C62.5701 34.3675 62.6885 33.9865 62.7551 33.55C62.8216 33.1061 62.8549 32.6252 62.8549 32.1073ZM32.5371 55.534H34.2461C34.7936 55.534 35.2449 55.4415 35.6 55.2566C35.9551 55.0642 36.2177 54.7979 36.3879 54.4576C36.5654 54.1098 36.6542 53.7066 36.6542 53.248C36.6542 52.8337 36.5728 52.4674 36.4101 52.1493C36.2547 51.8238 36.0143 51.5723 35.6887 51.3947C35.3632 51.2098 34.9526 51.1173 34.4569 51.1173C34.0648 51.1173 33.7023 51.195 33.3694 51.3503C33.0365 51.5057 32.7702 51.7239 32.5704 52.0051C32.3706 52.2862 32.2708 52.6265 32.2708 53.026H29.0637C29.0637 52.1382 29.3004 51.3651 29.7739 50.7067C30.2548 50.0482 30.8984 49.5341 31.7048 49.1642C32.5112 48.7942 33.399 48.6093 34.3682 48.6093C35.4631 48.6093 36.4212 48.7868 37.2424 49.142C38.0636 49.4897 38.7035 50.0038 39.1622 50.6845C39.6209 51.3651 39.8502 52.2085 39.8502 53.2147C39.8502 53.7251 39.7319 54.2208 39.4951 54.7017C39.2584 55.1752 38.9181 55.6043 38.4742 55.989C38.0377 56.3663 37.505 56.6696 36.8762 56.899C36.2473 57.1209 35.5408 57.2319 34.7566 57.2319H32.5371V55.534ZM32.5371 57.9643V56.3108H34.7566C35.637 56.3108 36.4101 56.4107 37.0759 56.6104C37.7417 56.8102 38.3003 57.0987 38.7516 57.476C39.2029 57.8459 39.5432 58.2861 39.7725 58.7966C40.0019 59.2997 40.1166 59.8583 40.1166 60.4723C40.1166 61.2269 39.9723 61.9002 39.6838 62.492C39.3952 63.0765 38.9883 63.5721 38.4631 63.979C37.9452 64.3859 37.3385 64.6967 36.6431 64.9112C35.9477 65.1184 35.1894 65.2219 34.3682 65.2219C33.6875 65.2219 33.018 65.1295 32.3596 64.9445C31.7085 64.7522 31.1167 64.4673 30.584 64.09C30.0587 63.7053 29.637 63.2244 29.3189 62.6474C29.0082 62.0629 28.8528 61.3712 28.8528 60.5722H32.0599C32.0599 60.9865 32.1635 61.3564 32.3706 61.6819C32.5778 62.0074 32.8626 62.2627 33.2251 62.4476C33.5951 62.6326 34.0057 62.7251 34.4569 62.7251C34.9674 62.7251 35.4039 62.6326 35.7664 62.4476C36.1363 62.2553 36.4175 61.9889 36.6098 61.6486C36.8096 61.3009 36.9094 60.8977 36.9094 60.439C36.9094 59.8472 36.8022 59.3737 36.5876 59.0186C36.3731 58.656 36.0661 58.3897 35.6665 58.2195C35.267 58.0494 34.7936 57.9643 34.2461 57.9643H32.5371ZM42.6024 63.4575C42.6024 62.984 42.7651 62.5882 43.0906 62.2701C43.4236 61.9519 43.8638 61.7929 44.4112 61.7929C44.9587 61.7929 45.3952 61.9519 45.7207 62.2701C46.0536 62.5882 46.2201 62.984 46.2201 63.4575C46.2201 63.931 46.0536 64.3268 45.7207 64.6449C45.3952 64.963 44.9587 65.1221 44.4112 65.1221C43.8638 65.1221 43.4236 64.963 43.0906 64.6449C42.7651 64.3268 42.6024 63.931 42.6024 63.4575ZM59.781 55.5007V58.2972C59.781 59.5105 59.6515 60.5574 59.3926 61.4378C59.1336 62.3108 58.76 63.0284 58.2718 63.5906C57.7909 64.1455 57.2175 64.5561 56.5517 64.8224C55.8858 65.0888 55.146 65.2219 54.3322 65.2219C53.6812 65.2219 53.0745 65.1406 52.5123 64.9778C51.95 64.8076 51.4432 64.545 50.9919 64.1899C50.548 63.8348 50.1633 63.3872 49.8378 62.8471C49.5197 62.2997 49.2755 61.6486 49.1054 60.894C48.9352 60.1394 48.8501 59.2738 48.8501 58.2972V55.5007C48.8501 54.2874 48.9796 53.248 49.2385 52.3824C49.5049 51.5094 49.8785 50.7955 50.3594 50.2406C50.8477 49.6857 51.4247 49.2788 52.0906 49.0199C52.7564 48.7536 53.4962 48.6204 54.31 48.6204C54.9611 48.6204 55.564 48.7055 56.1189 48.8756C56.6811 49.0384 57.1879 49.2936 57.6392 49.6413C58.0905 49.9891 58.4752 50.4366 58.7933 50.9841C59.1114 51.5242 59.3556 52.1715 59.5257 52.9261C59.6959 53.6734 59.781 54.5315 59.781 55.5007ZM56.5739 58.7189V55.0679C56.5739 54.4835 56.5406 53.973 56.474 53.5365C56.4148 53.1 56.3223 52.7301 56.1966 52.4268C56.0708 52.116 55.9154 51.8645 55.7305 51.6721C55.5455 51.4798 55.3347 51.3392 55.0979 51.2504C54.8612 51.1617 54.5985 51.1173 54.31 51.1173C53.9475 51.1173 53.6257 51.1876 53.3445 51.3281C53.0708 51.4687 52.8378 51.6943 52.6454 52.0051C52.4531 52.3084 52.3051 52.7153 52.2015 53.2258C52.1054 53.7288 52.0573 54.3429 52.0573 55.0679V58.7189C52.0573 59.3034 52.0869 59.8176 52.146 60.2615C52.2126 60.7053 52.3088 61.0864 52.4346 61.4045C52.5677 61.7152 52.7231 61.9704 52.9007 62.1702C53.0856 62.3625 53.2965 62.5031 53.5332 62.5919C53.7773 62.6807 54.0437 62.7251 54.3322 62.7251C54.6873 62.7251 55.0017 62.6548 55.2755 62.5142C55.5566 62.3662 55.7934 62.1369 55.9857 61.8262C56.1855 61.508 56.3334 61.0938 56.4296 60.5833C56.5258 60.0728 56.5739 59.4513 56.5739 58.7189Z" fill="white"/>
</svg>