<svg width="88" height="88" viewBox="0 0 88 88" fill="none" xmlns="http://www.w3.org/2000/svg">
<rect width="88" height="88" rx="4.4" fill="#242424"/>
<path d="M69.2 16H18.8C17.2133 16 16 17.2133 16 18.8V69.2C16 70.7867 17.2133 72 18.8 72H69.2C70.7867 72 72 70.7867 72 69.2V18.8C72 17.2133 70.7867 16 69.2 16ZM62.6667 17.8667C63.6933 17.8667 64.5333 18.7067 64.5333 19.7333C64.5333 20.76 63.6933 21.6 62.6667 21.6C61.64 21.6 60.8 20.76 60.8 19.7333C60.8 18.7067 61.64 17.8667 62.6667 17.8667ZM57.0667 17.8667C58.0933 17.8667 58.9333 18.7067 58.9333 19.7333C58.9333 20.76 58.0933 21.6 57.0667 21.6C56.04 21.6 55.2 20.76 55.2 19.7333C55.2 18.7067 56.04 17.8667 57.0667 17.8667ZM70.1333 69.2C70.1333 69.76 69.76 70.1333 69.2 70.1333H18.8C18.24 70.1333 17.8667 69.76 17.8667 69.2V23.4667H70.1333V69.2ZM68.2667 21.6C67.24 21.6 66.4 20.76 66.4 19.7333C66.4 18.7067 67.24 17.8667 68.2667 17.8667C69.2933 17.8667 70.1333 18.7067 70.1333 19.7333C70.1333 20.76 69.2933 21.6 68.2667 21.6Z" fill="#818181"/>
<path d="M43.9996 31.1421C35.3505 31.1421 28.3418 38.1508 28.3418 46.7999C28.3418 55.4489 35.3505 62.4577 43.9996 62.4577C52.6486 62.4577 59.6574 55.4489 59.6574 46.7999C59.6574 38.1508 52.6486 31.1421 43.9996 31.1421ZM53.6925 49.7823H34.3067V43.8174H53.6925V49.7823Z" fill="white"/>
</svg>