<svg width="88" height="88" viewBox="0 0 88 88" fill="none" xmlns="http://www.w3.org/2000/svg">
<rect width="88" height="88" rx="5" fill="#242424"/>
<path d="M69.2 16H18.8C17.2133 16 16 17.2133 16 18.8V69.2C16 70.7867 17.2133 72 18.8 72H69.2C70.7867 72 72 70.7867 72 69.2V18.8C72 17.2133 70.7867 16 69.2 16ZM62.6667 17.8667C63.6933 17.8667 64.5333 18.7067 64.5333 19.7333C64.5333 20.76 63.6933 21.6 62.6667 21.6C61.64 21.6 60.8 20.76 60.8 19.7333C60.8 18.7067 61.64 17.8667 62.6667 17.8667ZM57.0667 17.8667C58.0933 17.8667 58.9333 18.7067 58.9333 19.7333C58.9333 20.76 58.0933 21.6 57.0667 21.6C56.04 21.6 55.2 20.76 55.2 19.7333C55.2 18.7067 56.04 17.8667 57.0667 17.8667ZM70.1333 69.2C70.1333 69.76 69.76 70.1333 69.2 70.1333H18.8C18.24 70.1333 17.8667 69.76 17.8667 69.2V23.4667H70.1333V69.2ZM68.2667 21.6C67.24 21.6 66.4 20.76 66.4 19.7333C66.4 18.7067 67.24 17.8667 68.2667 17.8667C69.2933 17.8667 70.1333 18.7067 70.1333 19.7333C70.1333 20.76 69.2933 21.6 68.2667 21.6Z" fill="white"/>
<path d="M56.3161 49.441C56.3154 47.7862 54.973 46.4451 53.3184 46.4461L52.4333 46.4463L38.1997 46.4541H38.1972L38.1962 39.3898C38.1947 36.26 40.8173 33.7297 43.9806 33.8846C46.9401 34.0295 49.2131 36.5813 49.2146 39.5442L49.2156 41.6633C49.2158 42.2576 49.698 42.7399 50.2926 42.7399H51.3539C51.949 42.7399 52.4312 42.2574 52.4309 41.6621L52.4299 39.5798C52.4274 34.6994 48.4312 30.5782 43.5507 30.6634C38.8087 30.7457 34.9777 34.6298 34.9803 39.3908L34.9813 46.4551H34.6707C33.0159 46.4558 31.6748 47.7981 31.6758 49.4533L31.6813 59.9546C31.682 61.6095 33.0244 62.9506 34.6795 62.9495L53.3271 62.9403C54.982 62.9395 56.3231 61.5972 56.3221 59.942L56.3161 49.441ZM44.6783 56.529L44.6801 60.2532L43.3225 60.254L43.3203 56.5298C42.5741 56.2533 42.0393 55.5413 42.0387 54.699C42.038 53.6169 42.9151 52.739 43.9972 52.7388C45.0793 52.738 45.9571 53.6152 45.9574 54.6972C45.9584 55.5393 45.4241 56.2517 44.6784 56.529L44.6783 56.529Z" fill="#2DFF73"/>
</svg>