<svg width="88" height="88" viewBox="0 0 88 88" fill="none" xmlns="http://www.w3.org/2000/svg">
<rect width="88" height="88" rx="5" fill="#242424"/>
<path d="M63.9853 29.358V29.4658H25.1838C23.632 29.4658 22.244 30.5323 21.8238 32.054L16.0024 52.447L16.002 23.9542C16.002 21.7732 17.717 20.0122 19.8401 20.0122H27.3766C27.4117 20 27.4464 20 27.4583 20C28.7065 20 29.4763 21.342 29.7798 22.0009L31.8562 25.4156H60.1465C62.2585 25.4156 63.9855 27.1889 63.9855 29.3576L63.9853 29.358Z" fill="#818181"/>
<path d="M71.9526 33.4078L70.3077 39.159C68.6674 36.4118 65.7549 34.702 62.5261 34.702H61.161C56.0978 34.702 51.9914 38.9317 51.9914 44.1197V46.3962C50.4748 46.7917 49.3546 48.2055 49.3546 49.8708V65.088H19.8391C17.7156 65.088 16.001 63.3265 16.001 61.146C16.001 61.0383 16.0128 60.9305 16.0475 60.8105L24.0622 32.7249C24.2023 32.2216 24.6572 31.8622 25.1823 31.8622H70.8325C71.1943 31.8622 71.5443 32.0421 71.766 32.3416C71.9877 32.6527 72.058 33.0361 71.9526 33.4077L71.9526 33.4078Z" fill="#818181"/>
<path d="M62.527 37.0983H61.1618C57.3935 37.0983 54.3252 40.2496 54.3252 44.1198V46.2764H56.6585V44.1198C56.6585 41.5795 58.6766 39.4947 61.1618 39.4947H62.527C64.9783 39.4947 67.0302 41.5661 67.0302 44.1198V46.2764H69.3635V44.1198C69.3635 40.3987 66.4238 37.0983 62.527 37.0983Z" fill="white"/>
<path d="M70.8335 48.6729H52.8562C52.2146 48.6729 51.6895 49.2122 51.6895 49.8711V65.6035C51.6895 66.9334 52.7393 67.9999 54.0228 67.9999H69.6667C70.9502 67.9999 72 66.9334 72 65.6035V49.8711C72 49.2123 71.4748 48.6729 70.8333 48.6729H70.8335ZM63.0113 59.3808V61.2723C63.0113 61.9346 62.4891 62.4706 61.8446 62.4706C61.2006 62.4706 60.6779 61.9347 60.6779 61.2723V59.3808C59.488 58.9002 58.6408 57.7149 58.6408 56.3242C58.6408 54.5093 60.0783 53.0337 61.8445 53.0337C63.6113 53.0337 65.0483 54.5093 65.0483 56.3242C65.0483 57.7149 64.2011 58.9001 63.0111 59.3808H63.0113Z" fill="white"/>
</svg>