<svg width="88" height="88" viewBox="0 0 88 88" fill="none" xmlns="http://www.w3.org/2000/svg">
<rect width="88" height="88" rx="5" fill="#242424"/>
<g clip-path="url(#clip0_252_1510)">
<g clip-path="url(#clip1_252_1510)">
<path d="M69.3725 58.7959H63.4399L66.2431 47.6562L66.2435 47.6558C66.9249 44.9358 66.6235 42.0619 65.3932 39.5428L63.9584 36.6129C62.6164 37.8384 61.053 38.7959 59.3525 39.434C59.3946 40.5515 59.4368 41.6694 59.4732 42.6841L59.5939 45.9766H59.5935C59.6081 46.3159 59.4874 46.6467 59.2577 46.896C59.028 47.1456 58.7084 47.293 58.3702 47.306C58.0315 47.3189 57.7022 47.196 57.4542 46.9646C57.2063 46.7332 57.0609 46.4125 57.0496 46.0732C57.0014 44.8164 56.911 42.5149 56.8264 40.1228C56.6996 36.7577 56.5732 33.2299 56.5371 32.2091C56.51 31.4942 56.1332 30.8386 55.5297 30.4559C54.9265 30.0735 54.1738 30.0131 53.5176 30.2948C52.8609 30.5761 52.3849 31.1634 52.2448 31.8648C51.9435 33.3752 51.3585 36.8365 50.8461 39.8995C50.7375 40.5579 50.629 41.1923 50.5326 41.7842C50.2162 43.6811 49.4562 45.476 48.3138 47.0217C45.0403 51.462 45.2692 55.7693 46.1737 58.7953H41.6099C40.9322 58.7953 40.2815 59.0648 39.8023 59.5454C39.3231 60.0256 39.0537 60.6772 39.0537 61.3567V68.8686C39.0537 69.5489 39.3235 70.2012 39.8031 70.6818C40.2832 71.1628 40.9341 71.4331 41.6131 71.4331C42.2916 71.4331 42.9426 71.1628 43.4226 70.6818C43.9026 70.2012 44.172 69.5489 44.172 68.8686V63.9241H66.8157V68.8686H66.8161C66.8161 69.5489 67.0855 70.2012 67.5656 70.6818C68.0456 71.1628 68.6966 71.4331 69.3751 71.4331C70.054 71.4331 70.705 71.1628 71.1846 70.6818C71.6646 70.2012 71.9344 69.5489 71.9344 68.8686V61.3567C71.9336 60.6764 71.6634 60.0245 71.1826 59.5439C70.7022 59.0637 70.0508 58.7942 69.3722 58.7954L69.3725 58.7959Z" fill="white"/>
<path d="M48.3383 34.8373C48.6037 33.3208 48.8386 32.0101 48.9954 31.2129V31.2125C49.2988 29.6529 50.2682 28.3045 51.6479 27.5214C52.3447 27.1175 53.1241 26.878 53.927 26.8208C53.8784 26.57 53.8541 26.315 53.8545 26.0597C53.8529 25.1208 54.1928 24.2132 54.8101 23.5074C55.4275 22.8011 56.2802 22.344 57.2091 22.2222C58.1384 22.1005 59.0798 22.3213 59.858 22.8445C60.6358 23.3678 61.1972 24.1564 61.4371 25.064C61.6769 25.9717 61.5785 26.9358 61.1608 27.776C60.7428 28.6163 60.0335 29.2755 59.1662 29.6299C59.5883 30.3869 59.8241 31.2341 59.8532 32.1006C59.8715 32.5959 59.9075 33.7137 59.9618 35.121C62.8553 33.3277 64.718 30.2557 64.9736 26.8566C65.2292 23.457 63.8462 20.1402 61.2536 17.9329C58.6606 15.7255 55.1704 14.8942 51.864 15.6963C48.5572 16.4984 45.833 18.8369 44.5342 21.9881H32.9287C32.1992 22.7252 31.7831 23.136 31.054 23.8728H25.2786L23.3977 21.9881H18.7432L16.0664 26.0599L18.7432 30.1255H23.3973C24.133 29.3945 24.5429 28.9776 25.2782 28.2465H31.054C31.7836 28.9776 32.1996 29.3945 32.9287 30.1255H44.5342C45.3201 32.0322 46.6419 33.6692 48.3385 34.8374L48.3383 34.8373Z" fill="#2DFF73"/>
</g>
</g>
<defs>
<clipPath id="clip0_252_1510">
<rect width="56" height="56" fill="white" transform="translate(16 16)"/>
</clipPath>
<clipPath id="clip1_252_1510">
<rect width="56" height="56.1141" fill="white" transform="translate(16 15.3584)"/>
</clipPath>
</defs>
</svg>